ISO-10303-21;
HEADER;
/* Generated by software containing ST-Developer
 * from STEP Tools, Inc. (www.steptools.com) 
 */

FILE_DESCRIPTION(
/* description */ ('KiCad electronic assembly'),
/* implementation_level */ '2;1');

FILE_NAME(
/* name */ 'F1 Blare PCB_Lid.step',
/* time_stamp */ '2026-09-10T09:36:49+05:30',
/* author */ (''),
/* organization */ (''),
/* preprocessor_version */ 'ST-DEVELOPER v20.2',
/* originating_system */ 'Autodesk Translation Framework v15.15.0.0',
/* authorisation */ '');

FILE_SCHEMA (('AUTOMOTIVE_DESIGN { 1 0 10303 214 3 1 1 }'));
ENDSEC;

DATA;
#10=MECHANICAL_DESIGN_GEOMETRIC_PRESENTATION_REPRESENTATION('',(#13),#1917);
#11=SHAPE_REPRESENTATION_RELATIONSHIP('SRR','None',#1923,#12);
#12=ADVANCED_BREP_SHAPE_REPRESENTATION('',(#14),#1916);
#13=STYLED_ITEM('',(#1932),#14);
#14=MANIFOLD_SOLID_BREP('Body1',#1225);
#15=FACE_BOUND('',#106,.T.);
#16=FACE_BOUND('',#107,.T.);
#17=FACE_BOUND('',#108,.T.);
#18=FACE_BOUND('',#109,.T.);
#19=FACE_BOUND('',#110,.T.);
#20=FACE_BOUND('',#114,.T.);
#21=FACE_BOUND('',#115,.T.);
#22=FACE_BOUND('',#116,.T.);
#23=FACE_BOUND('',#117,.T.);
#24=FACE_BOUND('',#118,.T.);
#25=FACE_BOUND('',#154,.T.);
#26=FACE_OUTER_BOUND('',#85,.T.);
#27=FACE_OUTER_BOUND('',#86,.T.);
#28=FACE_OUTER_BOUND('',#87,.T.);
#29=FACE_OUTER_BOUND('',#88,.T.);
#30=FACE_OUTER_BOUND('',#89,.T.);
#31=FACE_OUTER_BOUND('',#90,.T.);
#32=FACE_OUTER_BOUND('',#91,.T.);
#33=FACE_OUTER_BOUND('',#92,.T.);
#34=FACE_OUTER_BOUND('',#93,.T.);
#35=FACE_OUTER_BOUND('',#94,.T.);
#36=FACE_OUTER_BOUND('',#95,.T.);
#37=FACE_OUTER_BOUND('',#96,.T.);
#38=FACE_OUTER_BOUND('',#97,.T.);
#39=FACE_OUTER_BOUND('',#98,.T.);
#40=FACE_OUTER_BOUND('',#99,.T.);
#41=FACE_OUTER_BOUND('',#100,.T.);
#42=FACE_OUTER_BOUND('',#101,.T.);
#43=FACE_OUTER_BOUND('',#102,.T.);
#44=FACE_OUTER_BOUND('',#103,.T.);
#45=FACE_OUTER_BOUND('',#104,.T.);
#46=FACE_OUTER_BOUND('',#105,.T.);
#47=FACE_OUTER_BOUND('',#111,.T.);
#48=FACE_OUTER_BOUND('',#112,.T.);
#49=FACE_OUTER_BOUND('',#113,.T.);
#50=FACE_OUTER_BOUND('',#119,.T.);
#51=FACE_OUTER_BOUND('',#120,.T.);
#52=FACE_OUTER_BOUND('',#121,.T.);
#53=FACE_OUTER_BOUND('',#122,.T.);
#54=FACE_OUTER_BOUND('',#123,.T.);
#55=FACE_OUTER_BOUND('',#124,.T.);
#56=FACE_OUTER_BOUND('',#125,.T.);
#57=FACE_OUTER_BOUND('',#126,.T.);
#58=FACE_OUTER_BOUND('',#127,.T.);
#59=FACE_OUTER_BOUND('',#128,.T.);
#60=FACE_OUTER_BOUND('',#129,.T.);
#61=FACE_OUTER_BOUND('',#130,.T.);
#62=FACE_OUTER_BOUND('',#131,.T.);
#63=FACE_OUTER_BOUND('',#132,.T.);
#64=FACE_OUTER_BOUND('',#133,.T.);
#65=FACE_OUTER_BOUND('',#134,.T.);
#66=FACE_OUTER_BOUND('',#135,.T.);
#67=FACE_OUTER_BOUND('',#136,.T.);
#68=FACE_OUTER_BOUND('',#137,.T.);
#69=FACE_OUTER_BOUND('',#138,.T.);
#70=FACE_OUTER_BOUND('',#139,.T.);
#71=FACE_OUTER_BOUND('',#140,.T.);
#72=FACE_OUTER_BOUND('',#141,.T.);
#73=FACE_OUTER_BOUND('',#142,.T.);
#74=FACE_OUTER_BOUND('',#143,.T.);
#75=FACE_OUTER_BOUND('',#144,.T.);
#76=FACE_OUTER_BOUND('',#145,.T.);
#77=FACE_OUTER_BOUND('',#146,.T.);
#78=FACE_OUTER_BOUND('',#147,.T.);
#79=FACE_OUTER_BOUND('',#148,.T.);
#80=FACE_OUTER_BOUND('',#149,.T.);
#81=FACE_OUTER_BOUND('',#150,.T.);
#82=FACE_OUTER_BOUND('',#151,.T.);
#83=FACE_OUTER_BOUND('',#152,.T.);
#84=FACE_OUTER_BOUND('',#153,.T.);
#85=EDGE_LOOP('',(#771,#772,#773,#774));
#86=EDGE_LOOP('',(#775,#776,#777,#778));
#87=EDGE_LOOP('',(#779,#780,#781,#782));
#88=EDGE_LOOP('',(#783,#784,#785,#786));
#89=EDGE_LOOP('',(#787,#788,#789,#790));
#90=EDGE_LOOP('',(#791,#792,#793,#794));
#91=EDGE_LOOP('',(#795,#796,#797,#798));
#92=EDGE_LOOP('',(#799,#800,#801,#802));
#93=EDGE_LOOP('',(#803,#804,#805,#806));
#94=EDGE_LOOP('',(#807,#808,#809,#810));
#95=EDGE_LOOP('',(#811,#812,#813,#814));
#96=EDGE_LOOP('',(#815,#816,#817,#818));
#97=EDGE_LOOP('',(#819,#820,#821,#822));
#98=EDGE_LOOP('',(#823,#824,#825,#826));
#99=EDGE_LOOP('',(#827,#828,#829,#830));
#100=EDGE_LOOP('',(#831,#832,#833,#834));
#101=EDGE_LOOP('',(#835,#836,#837,#838));
#102=EDGE_LOOP('',(#839,#840,#841,#842));
#103=EDGE_LOOP('',(#843,#844,#845,#846));
#104=EDGE_LOOP('',(#847,#848,#849,#850));
#105=EDGE_LOOP('',(#851,#852,#853,#854));
#106=EDGE_LOOP('',(#855,#856,#857,#858));
#107=EDGE_LOOP('',(#859,#860,#861,#862));
#108=EDGE_LOOP('',(#863,#864,#865,#866));
#109=EDGE_LOOP('',(#867,#868,#869,#870));
#110=EDGE_LOOP('',(#871,#872,#873,#874));
#111=EDGE_LOOP('',(#875,#876,#877,#878));
#112=EDGE_LOOP('',(#879,#880,#881,#882));
#113=EDGE_LOOP('',(#883,#884,#885,#886,#887,#888,#889,#890,#891,#892,#893,
#894,#895,#896,#897,#898,#899,#900,#901,#902,#903,#904,#905,#906,#907,#908,
#909,#910,#911,#912,#913,#914));
#114=EDGE_LOOP('',(#915,#916,#917,#918));
#115=EDGE_LOOP('',(#919,#920,#921,#922));
#116=EDGE_LOOP('',(#923,#924,#925,#926));
#117=EDGE_LOOP('',(#927,#928,#929,#930));
#118=EDGE_LOOP('',(#931,#932,#933,#934));
#119=EDGE_LOOP('',(#935,#936,#937,#938));
#120=EDGE_LOOP('',(#939,#940,#941,#942));
#121=EDGE_LOOP('',(#943,#944,#945,#946));
#122=EDGE_LOOP('',(#947,#948,#949,#950));
#123=EDGE_LOOP('',(#951,#952,#953,#954));
#124=EDGE_LOOP('',(#955,#956,#957,#958));
#125=EDGE_LOOP('',(#959,#960,#961,#962));
#126=EDGE_LOOP('',(#963,#964,#965,#966));
#127=EDGE_LOOP('',(#967,#968,#969,#970));
#128=EDGE_LOOP('',(#971,#972,#973,#974));
#129=EDGE_LOOP('',(#975,#976,#977,#978));
#130=EDGE_LOOP('',(#979,#980,#981,#982));
#131=EDGE_LOOP('',(#983,#984,#985,#986));
#132=EDGE_LOOP('',(#987,#988,#989,#990));
#133=EDGE_LOOP('',(#991,#992,#993,#994));
#134=EDGE_LOOP('',(#995,#996,#997,#998));
#135=EDGE_LOOP('',(#999,#1000,#1001,#1002));
#136=EDGE_LOOP('',(#1003,#1004,#1005,#1006));
#137=EDGE_LOOP('',(#1007,#1008,#1009,#1010));
#138=EDGE_LOOP('',(#1011,#1012,#1013,#1014));
#139=EDGE_LOOP('',(#1015,#1016,#1017,#1018));
#140=EDGE_LOOP('',(#1019,#1020,#1021,#1022));
#141=EDGE_LOOP('',(#1023,#1024,#1025,#1026));
#142=EDGE_LOOP('',(#1027,#1028,#1029,#1030));
#143=EDGE_LOOP('',(#1031,#1032,#1033,#1034));
#144=EDGE_LOOP('',(#1035,#1036,#1037,#1038));
#145=EDGE_LOOP('',(#1039,#1040,#1041,#1042));
#146=EDGE_LOOP('',(#1043,#1044,#1045,#1046));
#147=EDGE_LOOP('',(#1047,#1048,#1049,#1050));
#148=EDGE_LOOP('',(#1051,#1052,#1053,#1054));
#149=EDGE_LOOP('',(#1055,#1056,#1057,#1058));
#150=EDGE_LOOP('',(#1059,#1060,#1061,#1062));
#151=EDGE_LOOP('',(#1063,#1064,#1065,#1066));
#152=EDGE_LOOP('',(#1067,#1068,#1069,#1070));
#153=EDGE_LOOP('',(#1071,#1072,#1073,#1074,#1075,#1076,#1077,#1078,#1079,
#1080,#1081,#1082,#1083,#1084,#1085,#1086,#1087,#1088,#1089,#1090,#1091,
#1092,#1093,#1094,#1095,#1096,#1097,#1098,#1099,#1100,#1101,#1102));
#154=EDGE_LOOP('',(#1103,#1104,#1105,#1106));
#155=LINE('',#1578,#323);
#156=LINE('',#1580,#324);
#157=LINE('',#1582,#325);
#158=LINE('',#1583,#326);
#159=LINE('',#1586,#327);
#160=LINE('',#1588,#328);
#161=LINE('',#1589,#329);
#162=LINE('',#1592,#330);
#163=LINE('',#1594,#331);
#164=LINE('',#1595,#332);
#165=LINE('',#1597,#333);
#166=LINE('',#1598,#334);
#167=LINE('',#1602,#335);
#168=LINE('',#1604,#336);
#169=LINE('',#1606,#337);
#170=LINE('',#1607,#338);
#171=LINE('',#1610,#339);
#172=LINE('',#1612,#340);
#173=LINE('',#1613,#341);
#174=LINE('',#1616,#342);
#175=LINE('',#1618,#343);
#176=LINE('',#1619,#344);
#177=LINE('',#1621,#345);
#178=LINE('',#1622,#346);
#179=LINE('',#1626,#347);
#180=LINE('',#1628,#348);
#181=LINE('',#1630,#349);
#182=LINE('',#1631,#350);
#183=LINE('',#1634,#351);
#184=LINE('',#1636,#352);
#185=LINE('',#1637,#353);
#186=LINE('',#1640,#354);
#187=LINE('',#1642,#355);
#188=LINE('',#1643,#356);
#189=LINE('',#1645,#357);
#190=LINE('',#1646,#358);
#191=LINE('',#1650,#359);
#192=LINE('',#1652,#360);
#193=LINE('',#1654,#361);
#194=LINE('',#1655,#362);
#195=LINE('',#1658,#363);
#196=LINE('',#1660,#364);
#197=LINE('',#1661,#365);
#198=LINE('',#1664,#366);
#199=LINE('',#1666,#367);
#200=LINE('',#1667,#368);
#201=LINE('',#1669,#369);
#202=LINE('',#1670,#370);
#203=LINE('',#1674,#371);
#204=LINE('',#1676,#372);
#205=LINE('',#1678,#373);
#206=LINE('',#1679,#374);
#207=LINE('',#1682,#375);
#208=LINE('',#1684,#376);
#209=LINE('',#1685,#377);
#210=LINE('',#1688,#378);
#211=LINE('',#1690,#379);
#212=LINE('',#1691,#380);
#213=LINE('',#1693,#381);
#214=LINE('',#1694,#382);
#215=LINE('',#1698,#383);
#216=LINE('',#1700,#384);
#217=LINE('',#1702,#385);
#218=LINE('',#1703,#386);
#219=LINE('',#1706,#387);
#220=LINE('',#1708,#388);
#221=LINE('',#1709,#389);
#222=LINE('',#1712,#390);
#223=LINE('',#1713,#391);
#224=LINE('',#1717,#392);
#225=LINE('',#1719,#393);
#226=LINE('',#1721,#394);
#227=LINE('',#1723,#395);
#228=LINE('',#1725,#396);
#229=LINE('',#1727,#397);
#230=LINE('',#1729,#398);
#231=LINE('',#1731,#399);
#232=LINE('',#1733,#400);
#233=LINE('',#1735,#401);
#234=LINE('',#1737,#402);
#235=LINE('',#1739,#403);
#236=LINE('',#1741,#404);
#237=LINE('',#1743,#405);
#238=LINE('',#1745,#406);
#239=LINE('',#1747,#407);
#240=LINE('',#1749,#408);
#241=LINE('',#1751,#409);
#242=LINE('',#1753,#410);
#243=LINE('',#1755,#411);
#244=LINE('',#1757,#412);
#245=LINE('',#1759,#413);
#246=LINE('',#1761,#414);
#247=LINE('',#1763,#415);
#248=LINE('',#1765,#416);
#249=LINE('',#1767,#417);
#250=LINE('',#1769,#418);
#251=LINE('',#1771,#419);
#252=LINE('',#1773,#420);
#253=LINE('',#1775,#421);
#254=LINE('',#1777,#422);
#255=LINE('',#1778,#423);
#256=LINE('',#1781,#424);
#257=LINE('',#1782,#425);
#258=LINE('',#1784,#426);
#259=LINE('',#1787,#427);
#260=LINE('',#1789,#428);
#261=LINE('',#1790,#429);
#262=LINE('',#1793,#430);
#263=LINE('',#1794,#431);
#264=LINE('',#1797,#432);
#265=LINE('',#1798,#433);
#266=LINE('',#1801,#434);
#267=LINE('',#1802,#435);
#268=LINE('',#1805,#436);
#269=LINE('',#1806,#437);
#270=LINE('',#1809,#438);
#271=LINE('',#1810,#439);
#272=LINE('',#1813,#440);
#273=LINE('',#1814,#441);
#274=LINE('',#1817,#442);
#275=LINE('',#1818,#443);
#276=LINE('',#1821,#444);
#277=LINE('',#1822,#445);
#278=LINE('',#1825,#446);
#279=LINE('',#1826,#447);
#280=LINE('',#1829,#448);
#281=LINE('',#1830,#449);
#282=LINE('',#1833,#450);
#283=LINE('',#1834,#451);
#284=LINE('',#1837,#452);
#285=LINE('',#1838,#453);
#286=LINE('',#1841,#454);
#287=LINE('',#1842,#455);
#288=LINE('',#1845,#456);
#289=LINE('',#1846,#457);
#290=LINE('',#1849,#458);
#291=LINE('',#1850,#459);
#292=LINE('',#1853,#460);
#293=LINE('',#1854,#461);
#294=LINE('',#1857,#462);
#295=LINE('',#1858,#463);
#296=LINE('',#1861,#464);
#297=LINE('',#1862,#465);
#298=LINE('',#1865,#466);
#299=LINE('',#1866,#467);
#300=LINE('',#1869,#468);
#301=LINE('',#1870,#469);
#302=LINE('',#1873,#470);
#303=LINE('',#1874,#471);
#304=LINE('',#1877,#472);
#305=LINE('',#1878,#473);
#306=LINE('',#1881,#474);
#307=LINE('',#1882,#475);
#308=LINE('',#1885,#476);
#309=LINE('',#1886,#477);
#310=LINE('',#1889,#478);
#311=LINE('',#1890,#479);
#312=LINE('',#1893,#480);
#313=LINE('',#1894,#481);
#314=LINE('',#1897,#482);
#315=LINE('',#1898,#483);
#316=LINE('',#1901,#484);
#317=LINE('',#1902,#485);
#318=LINE('',#1905,#486);
#319=LINE('',#1906,#487);
#320=LINE('',#1909,#488);
#321=LINE('',#1910,#489);
#322=LINE('',#1912,#490);
#323=VECTOR('',#1290,10.);
#324=VECTOR('',#1291,10.);
#325=VECTOR('',#1292,10.);
#326=VECTOR('',#1293,10.);
#327=VECTOR('',#1296,10.);
#328=VECTOR('',#1297,10.);
#329=VECTOR('',#1298,10.);
#330=VECTOR('',#1301,10.);
#331=VECTOR('',#1302,10.);
#332=VECTOR('',#1303,10.);
#333=VECTOR('',#1306,10.);
#334=VECTOR('',#1307,10.);
#335=VECTOR('',#1310,10.);
#336=VECTOR('',#1311,10.);
#337=VECTOR('',#1312,10.);
#338=VECTOR('',#1313,10.);
#339=VECTOR('',#1316,10.);
#340=VECTOR('',#1317,10.);
#341=VECTOR('',#1318,10.);
#342=VECTOR('',#1321,10.);
#343=VECTOR('',#1322,10.);
#344=VECTOR('',#1323,10.);
#345=VECTOR('',#1326,10.);
#346=VECTOR('',#1327,10.);
#347=VECTOR('',#1330,10.);
#348=VECTOR('',#1331,10.);
#349=VECTOR('',#1332,10.);
#350=VECTOR('',#1333,10.);
#351=VECTOR('',#1336,10.);
#352=VECTOR('',#1337,10.);
#353=VECTOR('',#1338,10.);
#354=VECTOR('',#1341,10.);
#355=VECTOR('',#1342,10.);
#356=VECTOR('',#1343,10.);
#357=VECTOR('',#1346,10.);
#358=VECTOR('',#1347,10.);
#359=VECTOR('',#1350,10.);
#360=VECTOR('',#1351,10.);
#361=VECTOR('',#1352,10.);
#362=VECTOR('',#1353,10.);
#363=VECTOR('',#1356,10.);
#364=VECTOR('',#1357,10.);
#365=VECTOR('',#1358,10.);
#366=VECTOR('',#1361,10.);
#367=VECTOR('',#1362,10.);
#368=VECTOR('',#1363,10.);
#369=VECTOR('',#1366,10.);
#370=VECTOR('',#1367,10.);
#371=VECTOR('',#1370,10.);
#372=VECTOR('',#1371,10.);
#373=VECTOR('',#1372,10.);
#374=VECTOR('',#1373,10.);
#375=VECTOR('',#1376,10.);
#376=VECTOR('',#1377,10.);
#377=VECTOR('',#1378,10.);
#378=VECTOR('',#1381,10.);
#379=VECTOR('',#1382,10.);
#380=VECTOR('',#1383,10.);
#381=VECTOR('',#1386,10.);
#382=VECTOR('',#1387,10.);
#383=VECTOR('',#1390,10.);
#384=VECTOR('',#1391,10.);
#385=VECTOR('',#1392,10.);
#386=VECTOR('',#1393,10.);
#387=VECTOR('',#1396,10.);
#388=VECTOR('',#1397,10.);
#389=VECTOR('',#1398,10.);
#390=VECTOR('',#1401,10.);
#391=VECTOR('',#1402,10.);
#392=VECTOR('',#1405,10.);
#393=VECTOR('',#1406,10.);
#394=VECTOR('',#1407,10.);
#395=VECTOR('',#1408,10.);
#396=VECTOR('',#1409,10.);
#397=VECTOR('',#1410,10.);
#398=VECTOR('',#1411,10.);
#399=VECTOR('',#1412,10.);
#400=VECTOR('',#1413,10.);
#401=VECTOR('',#1414,10.);
#402=VECTOR('',#1415,10.);
#403=VECTOR('',#1416,10.);
#404=VECTOR('',#1417,10.);
#405=VECTOR('',#1418,10.);
#406=VECTOR('',#1419,10.);
#407=VECTOR('',#1420,10.);
#408=VECTOR('',#1421,10.);
#409=VECTOR('',#1422,10.);
#410=VECTOR('',#1423,10.);
#411=VECTOR('',#1424,10.);
#412=VECTOR('',#1425,10.);
#413=VECTOR('',#1426,10.);
#414=VECTOR('',#1427,10.);
#415=VECTOR('',#1428,10.);
#416=VECTOR('',#1429,10.);
#417=VECTOR('',#1430,10.);
#418=VECTOR('',#1431,10.);
#419=VECTOR('',#1432,10.);
#420=VECTOR('',#1433,10.);
#421=VECTOR('',#1434,10.);
#422=VECTOR('',#1435,10.);
#423=VECTOR('',#1436,10.);
#424=VECTOR('',#1439,10.);
#425=VECTOR('',#1440,10.);
#426=VECTOR('',#1443,10.);
#427=VECTOR('',#1446,10.);
#428=VECTOR('',#1447,10.);
#429=VECTOR('',#1448,10.);
#430=VECTOR('',#1451,10.);
#431=VECTOR('',#1452,10.);
#432=VECTOR('',#1455,10.);
#433=VECTOR('',#1456,10.);
#434=VECTOR('',#1459,10.);
#435=VECTOR('',#1460,10.);
#436=VECTOR('',#1463,10.);
#437=VECTOR('',#1464,10.);
#438=VECTOR('',#1467,10.);
#439=VECTOR('',#1468,10.);
#440=VECTOR('',#1471,10.);
#441=VECTOR('',#1472,10.);
#442=VECTOR('',#1475,10.);
#443=VECTOR('',#1476,10.);
#444=VECTOR('',#1479,10.);
#445=VECTOR('',#1480,10.);
#446=VECTOR('',#1483,10.);
#447=VECTOR('',#1484,10.);
#448=VECTOR('',#1487,10.);
#449=VECTOR('',#1488,10.);
#450=VECTOR('',#1491,10.);
#451=VECTOR('',#1492,10.);
#452=VECTOR('',#1495,10.);
#453=VECTOR('',#1496,10.);
#454=VECTOR('',#1499,10.);
#455=VECTOR('',#1500,10.);
#456=VECTOR('',#1503,10.);
#457=VECTOR('',#1504,10.);
#458=VECTOR('',#1507,10.);
#459=VECTOR('',#1508,10.);
#460=VECTOR('',#1511,10.);
#461=VECTOR('',#1512,10.);
#462=VECTOR('',#1515,10.);
#463=VECTOR('',#1516,10.);
#464=VECTOR('',#1519,10.);
#465=VECTOR('',#1520,10.);
#466=VECTOR('',#1523,10.);
#467=VECTOR('',#1524,10.);
#468=VECTOR('',#1527,10.);
#469=VECTOR('',#1528,10.);
#470=VECTOR('',#1531,10.);
#471=VECTOR('',#1532,10.);
#472=VECTOR('',#1535,10.);
#473=VECTOR('',#1536,10.);
#474=VECTOR('',#1539,10.);
#475=VECTOR('',#1540,10.);
#476=VECTOR('',#1543,10.);
#477=VECTOR('',#1544,10.);
#478=VECTOR('',#1547,10.);
#479=VECTOR('',#1548,10.);
#480=VECTOR('',#1551,10.);
#481=VECTOR('',#1552,10.);
#482=VECTOR('',#1555,10.);
#483=VECTOR('',#1556,10.);
#484=VECTOR('',#1559,10.);
#485=VECTOR('',#1560,10.);
#486=VECTOR('',#1563,10.);
#487=VECTOR('',#1564,10.);
#488=VECTOR('',#1567,10.);
#489=VECTOR('',#1568,10.);
#490=VECTOR('',#1571,10.);
#491=VERTEX_POINT('',#1576);
#492=VERTEX_POINT('',#1577);
#493=VERTEX_POINT('',#1579);
#494=VERTEX_POINT('',#1581);
#495=VERTEX_POINT('',#1585);
#496=VERTEX_POINT('',#1587);
#497=VERTEX_POINT('',#1591);
#498=VERTEX_POINT('',#1593);
#499=VERTEX_POINT('',#1600);
#500=VERTEX_POINT('',#1601);
#501=VERTEX_POINT('',#1603);
#502=VERTEX_POINT('',#1605);
#503=VERTEX_POINT('',#1609);
#504=VERTEX_POINT('',#1611);
#505=VERTEX_POINT('',#1615);
#506=VERTEX_POINT('',#1617);
#507=VERTEX_POINT('',#1624);
#508=VERTEX_POINT('',#1625);
#509=VERTEX_POINT('',#1627);
#510=VERTEX_POINT('',#1629);
#511=VERTEX_POINT('',#1633);
#512=VERTEX_POINT('',#1635);
#513=VERTEX_POINT('',#1639);
#514=VERTEX_POINT('',#1641);
#515=VERTEX_POINT('',#1648);
#516=VERTEX_POINT('',#1649);
#517=VERTEX_POINT('',#1651);
#518=VERTEX_POINT('',#1653);
#519=VERTEX_POINT('',#1657);
#520=VERTEX_POINT('',#1659);
#521=VERTEX_POINT('',#1663);
#522=VERTEX_POINT('',#1665);
#523=VERTEX_POINT('',#1672);
#524=VERTEX_POINT('',#1673);
#525=VERTEX_POINT('',#1675);
#526=VERTEX_POINT('',#1677);
#527=VERTEX_POINT('',#1681);
#528=VERTEX_POINT('',#1683);
#529=VERTEX_POINT('',#1687);
#530=VERTEX_POINT('',#1689);
#531=VERTEX_POINT('',#1696);
#532=VERTEX_POINT('',#1697);
#533=VERTEX_POINT('',#1699);
#534=VERTEX_POINT('',#1701);
#535=VERTEX_POINT('',#1705);
#536=VERTEX_POINT('',#1707);
#537=VERTEX_POINT('',#1711);
#538=VERTEX_POINT('',#1715);
#539=VERTEX_POINT('',#1716);
#540=VERTEX_POINT('',#1718);
#541=VERTEX_POINT('',#1720);
#542=VERTEX_POINT('',#1722);
#543=VERTEX_POINT('',#1724);
#544=VERTEX_POINT('',#1726);
#545=VERTEX_POINT('',#1728);
#546=VERTEX_POINT('',#1730);
#547=VERTEX_POINT('',#1732);
#548=VERTEX_POINT('',#1734);
#549=VERTEX_POINT('',#1736);
#550=VERTEX_POINT('',#1738);
#551=VERTEX_POINT('',#1740);
#552=VERTEX_POINT('',#1742);
#553=VERTEX_POINT('',#1744);
#554=VERTEX_POINT('',#1746);
#555=VERTEX_POINT('',#1748);
#556=VERTEX_POINT('',#1750);
#557=VERTEX_POINT('',#1752);
#558=VERTEX_POINT('',#1754);
#559=VERTEX_POINT('',#1756);
#560=VERTEX_POINT('',#1758);
#561=VERTEX_POINT('',#1760);
#562=VERTEX_POINT('',#1762);
#563=VERTEX_POINT('',#1764);
#564=VERTEX_POINT('',#1766);
#565=VERTEX_POINT('',#1768);
#566=VERTEX_POINT('',#1770);
#567=VERTEX_POINT('',#1772);
#568=VERTEX_POINT('',#1774);
#569=VERTEX_POINT('',#1776);
#570=VERTEX_POINT('',#1780);
#571=VERTEX_POINT('',#1786);
#572=VERTEX_POINT('',#1788);
#573=VERTEX_POINT('',#1792);
#574=VERTEX_POINT('',#1796);
#575=VERTEX_POINT('',#1800);
#576=VERTEX_POINT('',#1804);
#577=VERTEX_POINT('',#1808);
#578=VERTEX_POINT('',#1812);
#579=VERTEX_POINT('',#1816);
#580=VERTEX_POINT('',#1820);
#581=VERTEX_POINT('',#1824);
#582=VERTEX_POINT('',#1828);
#583=VERTEX_POINT('',#1832);
#584=VERTEX_POINT('',#1836);
#585=VERTEX_POINT('',#1840);
#586=VERTEX_POINT('',#1844);
#587=VERTEX_POINT('',#1848);
#588=VERTEX_POINT('',#1852);
#589=VERTEX_POINT('',#1856);
#590=VERTEX_POINT('',#1860);
#591=VERTEX_POINT('',#1864);
#592=VERTEX_POINT('',#1868);
#593=VERTEX_POINT('',#1872);
#594=VERTEX_POINT('',#1876);
#595=VERTEX_POINT('',#1880);
#596=VERTEX_POINT('',#1884);
#597=VERTEX_POINT('',#1888);
#598=VERTEX_POINT('',#1892);
#599=VERTEX_POINT('',#1896);
#600=VERTEX_POINT('',#1900);
#601=VERTEX_POINT('',#1904);
#602=VERTEX_POINT('',#1908);
#603=EDGE_CURVE('',#491,#492,#155,.T.);
#604=EDGE_CURVE('',#493,#491,#156,.T.);
#605=EDGE_CURVE('',#494,#493,#157,.T.);
#606=EDGE_CURVE('',#494,#492,#158,.T.);
#607=EDGE_CURVE('',#492,#495,#159,.T.);
#608=EDGE_CURVE('',#496,#494,#160,.T.);
#609=EDGE_CURVE('',#496,#495,#161,.T.);
#610=EDGE_CURVE('',#495,#497,#162,.T.);
#611=EDGE_CURVE('',#498,#496,#163,.T.);
#612=EDGE_CURVE('',#498,#497,#164,.T.);
#613=EDGE_CURVE('',#497,#491,#165,.T.);
#614=EDGE_CURVE('',#493,#498,#166,.T.);
#615=EDGE_CURVE('',#499,#500,#167,.T.);
#616=EDGE_CURVE('',#501,#499,#168,.T.);
#617=EDGE_CURVE('',#502,#501,#169,.T.);
#618=EDGE_CURVE('',#502,#500,#170,.T.);
#619=EDGE_CURVE('',#500,#503,#171,.T.);
#620=EDGE_CURVE('',#504,#502,#172,.T.);
#621=EDGE_CURVE('',#504,#503,#173,.T.);
#622=EDGE_CURVE('',#503,#505,#174,.T.);
#623=EDGE_CURVE('',#506,#504,#175,.T.);
#624=EDGE_CURVE('',#506,#505,#176,.T.);
#625=EDGE_CURVE('',#505,#499,#177,.T.);
#626=EDGE_CURVE('',#501,#506,#178,.T.);
#627=EDGE_CURVE('',#507,#508,#179,.T.);
#628=EDGE_CURVE('',#509,#507,#180,.T.);
#629=EDGE_CURVE('',#510,#509,#181,.T.);
#630=EDGE_CURVE('',#510,#508,#182,.T.);
#631=EDGE_CURVE('',#508,#511,#183,.T.);
#632=EDGE_CURVE('',#512,#510,#184,.T.);
#633=EDGE_CURVE('',#512,#511,#185,.T.);
#634=EDGE_CURVE('',#511,#513,#186,.T.);
#635=EDGE_CURVE('',#514,#512,#187,.T.);
#636=EDGE_CURVE('',#514,#513,#188,.T.);
#637=EDGE_CURVE('',#513,#507,#189,.T.);
#638=EDGE_CURVE('',#509,#514,#190,.T.);
#639=EDGE_CURVE('',#515,#516,#191,.T.);
#640=EDGE_CURVE('',#517,#515,#192,.T.);
#641=EDGE_CURVE('',#518,#517,#193,.T.);
#642=EDGE_CURVE('',#518,#516,#194,.T.);
#643=EDGE_CURVE('',#516,#519,#195,.T.);
#644=EDGE_CURVE('',#520,#518,#196,.T.);
#645=EDGE_CURVE('',#520,#519,#197,.T.);
#646=EDGE_CURVE('',#519,#521,#198,.T.);
#647=EDGE_CURVE('',#522,#520,#199,.T.);
#648=EDGE_CURVE('',#522,#521,#200,.T.);
#649=EDGE_CURVE('',#521,#515,#201,.T.);
#650=EDGE_CURVE('',#517,#522,#202,.T.);
#651=EDGE_CURVE('',#523,#524,#203,.T.);
#652=EDGE_CURVE('',#525,#523,#204,.T.);
#653=EDGE_CURVE('',#526,#525,#205,.T.);
#654=EDGE_CURVE('',#526,#524,#206,.T.);
#655=EDGE_CURVE('',#524,#527,#207,.T.);
#656=EDGE_CURVE('',#528,#526,#208,.T.);
#657=EDGE_CURVE('',#528,#527,#209,.T.);
#658=EDGE_CURVE('',#527,#529,#210,.T.);
#659=EDGE_CURVE('',#530,#528,#211,.T.);
#660=EDGE_CURVE('',#530,#529,#212,.T.);
#661=EDGE_CURVE('',#529,#523,#213,.T.);
#662=EDGE_CURVE('',#525,#530,#214,.T.);
#663=EDGE_CURVE('',#531,#532,#215,.T.);
#664=EDGE_CURVE('',#533,#531,#216,.T.);
#665=EDGE_CURVE('',#534,#533,#217,.T.);
#666=EDGE_CURVE('',#532,#534,#218,.T.);
#667=EDGE_CURVE('',#535,#531,#219,.T.);
#668=EDGE_CURVE('',#536,#535,#220,.T.);
#669=EDGE_CURVE('',#536,#533,#221,.T.);
#670=EDGE_CURVE('',#537,#532,#222,.T.);
#671=EDGE_CURVE('',#535,#537,#223,.T.);
#672=EDGE_CURVE('',#538,#539,#224,.T.);
#673=EDGE_CURVE('',#539,#540,#225,.T.);
#674=EDGE_CURVE('',#540,#541,#226,.T.);
#675=EDGE_CURVE('',#541,#542,#227,.T.);
#676=EDGE_CURVE('',#542,#543,#228,.T.);
#677=EDGE_CURVE('',#543,#544,#229,.T.);
#678=EDGE_CURVE('',#544,#545,#230,.T.);
#679=EDGE_CURVE('',#545,#546,#231,.T.);
#680=EDGE_CURVE('',#546,#547,#232,.T.);
#681=EDGE_CURVE('',#547,#548,#233,.T.);
#682=EDGE_CURVE('',#548,#549,#234,.T.);
#683=EDGE_CURVE('',#549,#550,#235,.T.);
#684=EDGE_CURVE('',#550,#551,#236,.T.);
#685=EDGE_CURVE('',#551,#552,#237,.T.);
#686=EDGE_CURVE('',#552,#553,#238,.T.);
#687=EDGE_CURVE('',#553,#554,#239,.T.);
#688=EDGE_CURVE('',#554,#555,#240,.T.);
#689=EDGE_CURVE('',#555,#556,#241,.T.);
#690=EDGE_CURVE('',#556,#557,#242,.T.);
#691=EDGE_CURVE('',#557,#558,#243,.T.);
#692=EDGE_CURVE('',#558,#559,#244,.T.);
#693=EDGE_CURVE('',#559,#560,#245,.T.);
#694=EDGE_CURVE('',#560,#561,#246,.T.);
#695=EDGE_CURVE('',#561,#562,#247,.T.);
#696=EDGE_CURVE('',#562,#563,#248,.T.);
#697=EDGE_CURVE('',#563,#564,#249,.T.);
#698=EDGE_CURVE('',#564,#565,#250,.T.);
#699=EDGE_CURVE('',#565,#566,#251,.T.);
#700=EDGE_CURVE('',#566,#567,#252,.T.);
#701=EDGE_CURVE('',#567,#568,#253,.T.);
#702=EDGE_CURVE('',#568,#569,#254,.T.);
#703=EDGE_CURVE('',#569,#538,#255,.T.);
#704=EDGE_CURVE('',#570,#536,#256,.T.);
#705=EDGE_CURVE('',#534,#570,#257,.T.);
#706=EDGE_CURVE('',#537,#570,#258,.T.);
#707=EDGE_CURVE('',#571,#539,#259,.T.);
#708=EDGE_CURVE('',#572,#571,#260,.T.);
#709=EDGE_CURVE('',#572,#540,#261,.T.);
#710=EDGE_CURVE('',#573,#572,#262,.T.);
#711=EDGE_CURVE('',#573,#541,#263,.T.);
#712=EDGE_CURVE('',#574,#573,#264,.T.);
#713=EDGE_CURVE('',#574,#542,#265,.T.);
#714=EDGE_CURVE('',#575,#574,#266,.T.);
#715=EDGE_CURVE('',#575,#543,#267,.T.);
#716=EDGE_CURVE('',#576,#575,#268,.T.);
#717=EDGE_CURVE('',#576,#544,#269,.T.);
#718=EDGE_CURVE('',#577,#576,#270,.T.);
#719=EDGE_CURVE('',#577,#545,#271,.T.);
#720=EDGE_CURVE('',#578,#577,#272,.T.);
#721=EDGE_CURVE('',#578,#546,#273,.T.);
#722=EDGE_CURVE('',#579,#578,#274,.T.);
#723=EDGE_CURVE('',#579,#547,#275,.T.);
#724=EDGE_CURVE('',#580,#579,#276,.T.);
#725=EDGE_CURVE('',#580,#548,#277,.T.);
#726=EDGE_CURVE('',#581,#580,#278,.T.);
#727=EDGE_CURVE('',#581,#549,#279,.T.);
#728=EDGE_CURVE('',#582,#581,#280,.T.);
#729=EDGE_CURVE('',#582,#550,#281,.T.);
#730=EDGE_CURVE('',#583,#582,#282,.T.);
#731=EDGE_CURVE('',#583,#551,#283,.T.);
#732=EDGE_CURVE('',#584,#583,#284,.T.);
#733=EDGE_CURVE('',#584,#552,#285,.T.);
#734=EDGE_CURVE('',#585,#584,#286,.T.);
#735=EDGE_CURVE('',#585,#553,#287,.T.);
#736=EDGE_CURVE('',#586,#585,#288,.T.);
#737=EDGE_CURVE('',#586,#554,#289,.T.);
#738=EDGE_CURVE('',#587,#586,#290,.T.);
#739=EDGE_CURVE('',#587,#555,#291,.T.);
#740=EDGE_CURVE('',#588,#587,#292,.T.);
#741=EDGE_CURVE('',#588,#556,#293,.T.);
#742=EDGE_CURVE('',#589,#588,#294,.T.);
#743=EDGE_CURVE('',#589,#557,#295,.T.);
#744=EDGE_CURVE('',#590,#589,#296,.T.);
#745=EDGE_CURVE('',#590,#558,#297,.T.);
#746=EDGE_CURVE('',#591,#590,#298,.T.);
#747=EDGE_CURVE('',#591,#559,#299,.T.);
#748=EDGE_CURVE('',#592,#591,#300,.T.);
#749=EDGE_CURVE('',#592,#560,#301,.T.);
#750=EDGE_CURVE('',#593,#592,#302,.T.);
#751=EDGE_CURVE('',#593,#561,#303,.T.);
#752=EDGE_CURVE('',#594,#593,#304,.T.);
#753=EDGE_CURVE('',#594,#562,#305,.T.);
#754=EDGE_CURVE('',#595,#594,#306,.T.);
#755=EDGE_CURVE('',#595,#563,#307,.T.);
#756=EDGE_CURVE('',#596,#595,#308,.T.);
#757=EDGE_CURVE('',#596,#564,#309,.T.);
#758=EDGE_CURVE('',#597,#596,#310,.T.);
#759=EDGE_CURVE('',#597,#565,#311,.T.);
#760=EDGE_CURVE('',#598,#597,#312,.T.);
#761=EDGE_CURVE('',#598,#566,#313,.T.);
#762=EDGE_CURVE('',#599,#598,#314,.T.);
#763=EDGE_CURVE('',#599,#567,#315,.T.);
#764=EDGE_CURVE('',#600,#599,#316,.T.);
#765=EDGE_CURVE('',#600,#568,#317,.T.);
#766=EDGE_CURVE('',#601,#600,#318,.T.);
#767=EDGE_CURVE('',#601,#569,#319,.T.);
#768=EDGE_CURVE('',#602,#601,#320,.T.);
#769=EDGE_CURVE('',#538,#602,#321,.T.);
#770=EDGE_CURVE('',#571,#602,#322,.T.);
#771=ORIENTED_EDGE('',*,*,#603,.F.);
#772=ORIENTED_EDGE('',*,*,#604,.F.);
#773=ORIENTED_EDGE('',*,*,#605,.F.);
#774=ORIENTED_EDGE('',*,*,#606,.T.);
#775=ORIENTED_EDGE('',*,*,#607,.F.);
#776=ORIENTED_EDGE('',*,*,#606,.F.);
#777=ORIENTED_EDGE('',*,*,#608,.F.);
#778=ORIENTED_EDGE('',*,*,#609,.T.);
#779=ORIENTED_EDGE('',*,*,#610,.F.);
#780=ORIENTED_EDGE('',*,*,#609,.F.);
#781=ORIENTED_EDGE('',*,*,#611,.F.);
#782=ORIENTED_EDGE('',*,*,#612,.T.);
#783=ORIENTED_EDGE('',*,*,#613,.F.);
#784=ORIENTED_EDGE('',*,*,#612,.F.);
#785=ORIENTED_EDGE('',*,*,#614,.F.);
#786=ORIENTED_EDGE('',*,*,#604,.T.);
#787=ORIENTED_EDGE('',*,*,#615,.F.);
#788=ORIENTED_EDGE('',*,*,#616,.F.);
#789=ORIENTED_EDGE('',*,*,#617,.F.);
#790=ORIENTED_EDGE('',*,*,#618,.T.);
#791=ORIENTED_EDGE('',*,*,#619,.F.);
#792=ORIENTED_EDGE('',*,*,#618,.F.);
#793=ORIENTED_EDGE('',*,*,#620,.F.);
#794=ORIENTED_EDGE('',*,*,#621,.T.);
#795=ORIENTED_EDGE('',*,*,#622,.F.);
#796=ORIENTED_EDGE('',*,*,#621,.F.);
#797=ORIENTED_EDGE('',*,*,#623,.F.);
#798=ORIENTED_EDGE('',*,*,#624,.T.);
#799=ORIENTED_EDGE('',*,*,#625,.F.);
#800=ORIENTED_EDGE('',*,*,#624,.F.);
#801=ORIENTED_EDGE('',*,*,#626,.F.);
#802=ORIENTED_EDGE('',*,*,#616,.T.);
#803=ORIENTED_EDGE('',*,*,#627,.F.);
#804=ORIENTED_EDGE('',*,*,#628,.F.);
#805=ORIENTED_EDGE('',*,*,#629,.F.);
#806=ORIENTED_EDGE('',*,*,#630,.T.);
#807=ORIENTED_EDGE('',*,*,#631,.F.);
#808=ORIENTED_EDGE('',*,*,#630,.F.);
#809=ORIENTED_EDGE('',*,*,#632,.F.);
#810=ORIENTED_EDGE('',*,*,#633,.T.);
#811=ORIENTED_EDGE('',*,*,#634,.F.);
#812=ORIENTED_EDGE('',*,*,#633,.F.);
#813=ORIENTED_EDGE('',*,*,#635,.F.);
#814=ORIENTED_EDGE('',*,*,#636,.T.);
#815=ORIENTED_EDGE('',*,*,#637,.F.);
#816=ORIENTED_EDGE('',*,*,#636,.F.);
#817=ORIENTED_EDGE('',*,*,#638,.F.);
#818=ORIENTED_EDGE('',*,*,#628,.T.);
#819=ORIENTED_EDGE('',*,*,#639,.F.);
#820=ORIENTED_EDGE('',*,*,#640,.F.);
#821=ORIENTED_EDGE('',*,*,#641,.F.);
#822=ORIENTED_EDGE('',*,*,#642,.T.);
#823=ORIENTED_EDGE('',*,*,#643,.F.);
#824=ORIENTED_EDGE('',*,*,#642,.F.);
#825=ORIENTED_EDGE('',*,*,#644,.F.);
#826=ORIENTED_EDGE('',*,*,#645,.T.);
#827=ORIENTED_EDGE('',*,*,#646,.F.);
#828=ORIENTED_EDGE('',*,*,#645,.F.);
#829=ORIENTED_EDGE('',*,*,#647,.F.);
#830=ORIENTED_EDGE('',*,*,#648,.T.);
#831=ORIENTED_EDGE('',*,*,#649,.F.);
#832=ORIENTED_EDGE('',*,*,#648,.F.);
#833=ORIENTED_EDGE('',*,*,#650,.F.);
#834=ORIENTED_EDGE('',*,*,#640,.T.);
#835=ORIENTED_EDGE('',*,*,#651,.F.);
#836=ORIENTED_EDGE('',*,*,#652,.F.);
#837=ORIENTED_EDGE('',*,*,#653,.F.);
#838=ORIENTED_EDGE('',*,*,#654,.T.);
#839=ORIENTED_EDGE('',*,*,#655,.F.);
#840=ORIENTED_EDGE('',*,*,#654,.F.);
#841=ORIENTED_EDGE('',*,*,#656,.F.);
#842=ORIENTED_EDGE('',*,*,#657,.T.);
#843=ORIENTED_EDGE('',*,*,#658,.F.);
#844=ORIENTED_EDGE('',*,*,#657,.F.);
#845=ORIENTED_EDGE('',*,*,#659,.F.);
#846=ORIENTED_EDGE('',*,*,#660,.T.);
#847=ORIENTED_EDGE('',*,*,#661,.F.);
#848=ORIENTED_EDGE('',*,*,#660,.F.);
#849=ORIENTED_EDGE('',*,*,#662,.F.);
#850=ORIENTED_EDGE('',*,*,#652,.T.);
#851=ORIENTED_EDGE('',*,*,#663,.F.);
#852=ORIENTED_EDGE('',*,*,#664,.F.);
#853=ORIENTED_EDGE('',*,*,#665,.F.);
#854=ORIENTED_EDGE('',*,*,#666,.F.);
#855=ORIENTED_EDGE('',*,*,#658,.T.);
#856=ORIENTED_EDGE('',*,*,#661,.T.);
#857=ORIENTED_EDGE('',*,*,#651,.T.);
#858=ORIENTED_EDGE('',*,*,#655,.T.);
#859=ORIENTED_EDGE('',*,*,#646,.T.);
#860=ORIENTED_EDGE('',*,*,#649,.T.);
#861=ORIENTED_EDGE('',*,*,#639,.T.);
#862=ORIENTED_EDGE('',*,*,#643,.T.);
#863=ORIENTED_EDGE('',*,*,#634,.T.);
#864=ORIENTED_EDGE('',*,*,#637,.T.);
#865=ORIENTED_EDGE('',*,*,#627,.T.);
#866=ORIENTED_EDGE('',*,*,#631,.T.);
#867=ORIENTED_EDGE('',*,*,#622,.T.);
#868=ORIENTED_EDGE('',*,*,#625,.T.);
#869=ORIENTED_EDGE('',*,*,#615,.T.);
#870=ORIENTED_EDGE('',*,*,#619,.T.);
#871=ORIENTED_EDGE('',*,*,#610,.T.);
#872=ORIENTED_EDGE('',*,*,#613,.T.);
#873=ORIENTED_EDGE('',*,*,#603,.T.);
#874=ORIENTED_EDGE('',*,*,#607,.T.);
#875=ORIENTED_EDGE('',*,*,#664,.T.);
#876=ORIENTED_EDGE('',*,*,#667,.F.);
#877=ORIENTED_EDGE('',*,*,#668,.F.);
#878=ORIENTED_EDGE('',*,*,#669,.T.);
#879=ORIENTED_EDGE('',*,*,#663,.T.);
#880=ORIENTED_EDGE('',*,*,#670,.F.);
#881=ORIENTED_EDGE('',*,*,#671,.F.);
#882=ORIENTED_EDGE('',*,*,#667,.T.);
#883=ORIENTED_EDGE('',*,*,#672,.T.);
#884=ORIENTED_EDGE('',*,*,#673,.T.);
#885=ORIENTED_EDGE('',*,*,#674,.T.);
#886=ORIENTED_EDGE('',*,*,#675,.T.);
#887=ORIENTED_EDGE('',*,*,#676,.T.);
#888=ORIENTED_EDGE('',*,*,#677,.T.);
#889=ORIENTED_EDGE('',*,*,#678,.T.);
#890=ORIENTED_EDGE('',*,*,#679,.T.);
#891=ORIENTED_EDGE('',*,*,#680,.T.);
#892=ORIENTED_EDGE('',*,*,#681,.T.);
#893=ORIENTED_EDGE('',*,*,#682,.T.);
#894=ORIENTED_EDGE('',*,*,#683,.T.);
#895=ORIENTED_EDGE('',*,*,#684,.T.);
#896=ORIENTED_EDGE('',*,*,#685,.T.);
#897=ORIENTED_EDGE('',*,*,#686,.T.);
#898=ORIENTED_EDGE('',*,*,#687,.T.);
#899=ORIENTED_EDGE('',*,*,#688,.T.);
#900=ORIENTED_EDGE('',*,*,#689,.T.);
#901=ORIENTED_EDGE('',*,*,#690,.T.);
#902=ORIENTED_EDGE('',*,*,#691,.T.);
#903=ORIENTED_EDGE('',*,*,#692,.T.);
#904=ORIENTED_EDGE('',*,*,#693,.T.);
#905=ORIENTED_EDGE('',*,*,#694,.T.);
#906=ORIENTED_EDGE('',*,*,#695,.T.);
#907=ORIENTED_EDGE('',*,*,#696,.T.);
#908=ORIENTED_EDGE('',*,*,#697,.T.);
#909=ORIENTED_EDGE('',*,*,#698,.T.);
#910=ORIENTED_EDGE('',*,*,#699,.T.);
#911=ORIENTED_EDGE('',*,*,#700,.T.);
#912=ORIENTED_EDGE('',*,*,#701,.T.);
#913=ORIENTED_EDGE('',*,*,#702,.T.);
#914=ORIENTED_EDGE('',*,*,#703,.T.);
#915=ORIENTED_EDGE('',*,*,#659,.T.);
#916=ORIENTED_EDGE('',*,*,#656,.T.);
#917=ORIENTED_EDGE('',*,*,#653,.T.);
#918=ORIENTED_EDGE('',*,*,#662,.T.);
#919=ORIENTED_EDGE('',*,*,#647,.T.);
#920=ORIENTED_EDGE('',*,*,#644,.T.);
#921=ORIENTED_EDGE('',*,*,#641,.T.);
#922=ORIENTED_EDGE('',*,*,#650,.T.);
#923=ORIENTED_EDGE('',*,*,#635,.T.);
#924=ORIENTED_EDGE('',*,*,#632,.T.);
#925=ORIENTED_EDGE('',*,*,#629,.T.);
#926=ORIENTED_EDGE('',*,*,#638,.T.);
#927=ORIENTED_EDGE('',*,*,#623,.T.);
#928=ORIENTED_EDGE('',*,*,#620,.T.);
#929=ORIENTED_EDGE('',*,*,#617,.T.);
#930=ORIENTED_EDGE('',*,*,#626,.T.);
#931=ORIENTED_EDGE('',*,*,#611,.T.);
#932=ORIENTED_EDGE('',*,*,#608,.T.);
#933=ORIENTED_EDGE('',*,*,#605,.T.);
#934=ORIENTED_EDGE('',*,*,#614,.T.);
#935=ORIENTED_EDGE('',*,*,#665,.T.);
#936=ORIENTED_EDGE('',*,*,#669,.F.);
#937=ORIENTED_EDGE('',*,*,#704,.F.);
#938=ORIENTED_EDGE('',*,*,#705,.F.);
#939=ORIENTED_EDGE('',*,*,#666,.T.);
#940=ORIENTED_EDGE('',*,*,#705,.T.);
#941=ORIENTED_EDGE('',*,*,#706,.F.);
#942=ORIENTED_EDGE('',*,*,#670,.T.);
#943=ORIENTED_EDGE('',*,*,#707,.F.);
#944=ORIENTED_EDGE('',*,*,#708,.F.);
#945=ORIENTED_EDGE('',*,*,#709,.T.);
#946=ORIENTED_EDGE('',*,*,#673,.F.);
#947=ORIENTED_EDGE('',*,*,#709,.F.);
#948=ORIENTED_EDGE('',*,*,#710,.F.);
#949=ORIENTED_EDGE('',*,*,#711,.T.);
#950=ORIENTED_EDGE('',*,*,#674,.F.);
#951=ORIENTED_EDGE('',*,*,#711,.F.);
#952=ORIENTED_EDGE('',*,*,#712,.F.);
#953=ORIENTED_EDGE('',*,*,#713,.T.);
#954=ORIENTED_EDGE('',*,*,#675,.F.);
#955=ORIENTED_EDGE('',*,*,#713,.F.);
#956=ORIENTED_EDGE('',*,*,#714,.F.);
#957=ORIENTED_EDGE('',*,*,#715,.T.);
#958=ORIENTED_EDGE('',*,*,#676,.F.);
#959=ORIENTED_EDGE('',*,*,#715,.F.);
#960=ORIENTED_EDGE('',*,*,#716,.F.);
#961=ORIENTED_EDGE('',*,*,#717,.T.);
#962=ORIENTED_EDGE('',*,*,#677,.F.);
#963=ORIENTED_EDGE('',*,*,#717,.F.);
#964=ORIENTED_EDGE('',*,*,#718,.F.);
#965=ORIENTED_EDGE('',*,*,#719,.T.);
#966=ORIENTED_EDGE('',*,*,#678,.F.);
#967=ORIENTED_EDGE('',*,*,#719,.F.);
#968=ORIENTED_EDGE('',*,*,#720,.F.);
#969=ORIENTED_EDGE('',*,*,#721,.T.);
#970=ORIENTED_EDGE('',*,*,#679,.F.);
#971=ORIENTED_EDGE('',*,*,#721,.F.);
#972=ORIENTED_EDGE('',*,*,#722,.F.);
#973=ORIENTED_EDGE('',*,*,#723,.T.);
#974=ORIENTED_EDGE('',*,*,#680,.F.);
#975=ORIENTED_EDGE('',*,*,#723,.F.);
#976=ORIENTED_EDGE('',*,*,#724,.F.);
#977=ORIENTED_EDGE('',*,*,#725,.T.);
#978=ORIENTED_EDGE('',*,*,#681,.F.);
#979=ORIENTED_EDGE('',*,*,#725,.F.);
#980=ORIENTED_EDGE('',*,*,#726,.F.);
#981=ORIENTED_EDGE('',*,*,#727,.T.);
#982=ORIENTED_EDGE('',*,*,#682,.F.);
#983=ORIENTED_EDGE('',*,*,#727,.F.);
#984=ORIENTED_EDGE('',*,*,#728,.F.);
#985=ORIENTED_EDGE('',*,*,#729,.T.);
#986=ORIENTED_EDGE('',*,*,#683,.F.);
#987=ORIENTED_EDGE('',*,*,#729,.F.);
#988=ORIENTED_EDGE('',*,*,#730,.F.);
#989=ORIENTED_EDGE('',*,*,#731,.T.);
#990=ORIENTED_EDGE('',*,*,#684,.F.);
#991=ORIENTED_EDGE('',*,*,#731,.F.);
#992=ORIENTED_EDGE('',*,*,#732,.F.);
#993=ORIENTED_EDGE('',*,*,#733,.T.);
#994=ORIENTED_EDGE('',*,*,#685,.F.);
#995=ORIENTED_EDGE('',*,*,#733,.F.);
#996=ORIENTED_EDGE('',*,*,#734,.F.);
#997=ORIENTED_EDGE('',*,*,#735,.T.);
#998=ORIENTED_EDGE('',*,*,#686,.F.);
#999=ORIENTED_EDGE('',*,*,#735,.F.);
#1000=ORIENTED_EDGE('',*,*,#736,.F.);
#1001=ORIENTED_EDGE('',*,*,#737,.T.);
#1002=ORIENTED_EDGE('',*,*,#687,.F.);
#1003=ORIENTED_EDGE('',*,*,#737,.F.);
#1004=ORIENTED_EDGE('',*,*,#738,.F.);
#1005=ORIENTED_EDGE('',*,*,#739,.T.);
#1006=ORIENTED_EDGE('',*,*,#688,.F.);
#1007=ORIENTED_EDGE('',*,*,#739,.F.);
#1008=ORIENTED_EDGE('',*,*,#740,.F.);
#1009=ORIENTED_EDGE('',*,*,#741,.T.);
#1010=ORIENTED_EDGE('',*,*,#689,.F.);
#1011=ORIENTED_EDGE('',*,*,#741,.F.);
#1012=ORIENTED_EDGE('',*,*,#742,.F.);
#1013=ORIENTED_EDGE('',*,*,#743,.T.);
#1014=ORIENTED_EDGE('',*,*,#690,.F.);
#1015=ORIENTED_EDGE('',*,*,#743,.F.);
#1016=ORIENTED_EDGE('',*,*,#744,.F.);
#1017=ORIENTED_EDGE('',*,*,#745,.T.);
#1018=ORIENTED_EDGE('',*,*,#691,.F.);
#1019=ORIENTED_EDGE('',*,*,#745,.F.);
#1020=ORIENTED_EDGE('',*,*,#746,.F.);
#1021=ORIENTED_EDGE('',*,*,#747,.T.);
#1022=ORIENTED_EDGE('',*,*,#692,.F.);
#1023=ORIENTED_EDGE('',*,*,#747,.F.);
#1024=ORIENTED_EDGE('',*,*,#748,.F.);
#1025=ORIENTED_EDGE('',*,*,#749,.T.);
#1026=ORIENTED_EDGE('',*,*,#693,.F.);
#1027=ORIENTED_EDGE('',*,*,#749,.F.);
#1028=ORIENTED_EDGE('',*,*,#750,.F.);
#1029=ORIENTED_EDGE('',*,*,#751,.T.);
#1030=ORIENTED_EDGE('',*,*,#694,.F.);
#1031=ORIENTED_EDGE('',*,*,#751,.F.);
#1032=ORIENTED_EDGE('',*,*,#752,.F.);
#1033=ORIENTED_EDGE('',*,*,#753,.T.);
#1034=ORIENTED_EDGE('',*,*,#695,.F.);
#1035=ORIENTED_EDGE('',*,*,#753,.F.);
#1036=ORIENTED_EDGE('',*,*,#754,.F.);
#1037=ORIENTED_EDGE('',*,*,#755,.T.);
#1038=ORIENTED_EDGE('',*,*,#696,.F.);
#1039=ORIENTED_EDGE('',*,*,#755,.F.);
#1040=ORIENTED_EDGE('',*,*,#756,.F.);
#1041=ORIENTED_EDGE('',*,*,#757,.T.);
#1042=ORIENTED_EDGE('',*,*,#697,.F.);
#1043=ORIENTED_EDGE('',*,*,#757,.F.);
#1044=ORIENTED_EDGE('',*,*,#758,.F.);
#1045=ORIENTED_EDGE('',*,*,#759,.T.);
#1046=ORIENTED_EDGE('',*,*,#698,.F.);
#1047=ORIENTED_EDGE('',*,*,#759,.F.);
#1048=ORIENTED_EDGE('',*,*,#760,.F.);
#1049=ORIENTED_EDGE('',*,*,#761,.T.);
#1050=ORIENTED_EDGE('',*,*,#699,.F.);
#1051=ORIENTED_EDGE('',*,*,#761,.F.);
#1052=ORIENTED_EDGE('',*,*,#762,.F.);
#1053=ORIENTED_EDGE('',*,*,#763,.T.);
#1054=ORIENTED_EDGE('',*,*,#700,.F.);
#1055=ORIENTED_EDGE('',*,*,#763,.F.);
#1056=ORIENTED_EDGE('',*,*,#764,.F.);
#1057=ORIENTED_EDGE('',*,*,#765,.T.);
#1058=ORIENTED_EDGE('',*,*,#701,.F.);
#1059=ORIENTED_EDGE('',*,*,#765,.F.);
#1060=ORIENTED_EDGE('',*,*,#766,.F.);
#1061=ORIENTED_EDGE('',*,*,#767,.T.);
#1062=ORIENTED_EDGE('',*,*,#702,.F.);
#1063=ORIENTED_EDGE('',*,*,#767,.F.);
#1064=ORIENTED_EDGE('',*,*,#768,.F.);
#1065=ORIENTED_EDGE('',*,*,#769,.F.);
#1066=ORIENTED_EDGE('',*,*,#703,.F.);
#1067=ORIENTED_EDGE('',*,*,#769,.T.);
#1068=ORIENTED_EDGE('',*,*,#770,.F.);
#1069=ORIENTED_EDGE('',*,*,#707,.T.);
#1070=ORIENTED_EDGE('',*,*,#672,.F.);
#1071=ORIENTED_EDGE('',*,*,#770,.T.);
#1072=ORIENTED_EDGE('',*,*,#768,.T.);
#1073=ORIENTED_EDGE('',*,*,#766,.T.);
#1074=ORIENTED_EDGE('',*,*,#764,.T.);
#1075=ORIENTED_EDGE('',*,*,#762,.T.);
#1076=ORIENTED_EDGE('',*,*,#760,.T.);
#1077=ORIENTED_EDGE('',*,*,#758,.T.);
#1078=ORIENTED_EDGE('',*,*,#756,.T.);
#1079=ORIENTED_EDGE('',*,*,#754,.T.);
#1080=ORIENTED_EDGE('',*,*,#752,.T.);
#1081=ORIENTED_EDGE('',*,*,#750,.T.);
#1082=ORIENTED_EDGE('',*,*,#748,.T.);
#1083=ORIENTED_EDGE('',*,*,#746,.T.);
#1084=ORIENTED_EDGE('',*,*,#744,.T.);
#1085=ORIENTED_EDGE('',*,*,#742,.T.);
#1086=ORIENTED_EDGE('',*,*,#740,.T.);
#1087=ORIENTED_EDGE('',*,*,#738,.T.);
#1088=ORIENTED_EDGE('',*,*,#736,.T.);
#1089=ORIENTED_EDGE('',*,*,#734,.T.);
#1090=ORIENTED_EDGE('',*,*,#732,.T.);
#1091=ORIENTED_EDGE('',*,*,#730,.T.);
#1092=ORIENTED_EDGE('',*,*,#728,.T.);
#1093=ORIENTED_EDGE('',*,*,#726,.T.);
#1094=ORIENTED_EDGE('',*,*,#724,.T.);
#1095=ORIENTED_EDGE('',*,*,#722,.T.);
#1096=ORIENTED_EDGE('',*,*,#720,.T.);
#1097=ORIENTED_EDGE('',*,*,#718,.T.);
#1098=ORIENTED_EDGE('',*,*,#716,.T.);
#1099=ORIENTED_EDGE('',*,*,#714,.T.);
#1100=ORIENTED_EDGE('',*,*,#712,.T.);
#1101=ORIENTED_EDGE('',*,*,#710,.T.);
#1102=ORIENTED_EDGE('',*,*,#708,.T.);
#1103=ORIENTED_EDGE('',*,*,#706,.T.);
#1104=ORIENTED_EDGE('',*,*,#704,.T.);
#1105=ORIENTED_EDGE('',*,*,#668,.T.);
#1106=ORIENTED_EDGE('',*,*,#671,.T.);
#1107=PLANE('',#1227);
#1108=PLANE('',#1228);
#1109=PLANE('',#1229);
#1110=PLANE('',#1230);
#1111=PLANE('',#1231);
#1112=PLANE('',#1232);
#1113=PLANE('',#1233);
#1114=PLANE('',#1234);
#1115=PLANE('',#1235);
#1116=PLANE('',#1236);
#1117=PLANE('',#1237);
#1118=PLANE('',#1238);
#1119=PLANE('',#1239);
#1120=PLANE('',#1240);
#1121=PLANE('',#1241);
#1122=PLANE('',#1242);
#1123=PLANE('',#1243);
#1124=PLANE('',#1244);
#1125=PLANE('',#1245);
#1126=PLANE('',#1246);
#1127=PLANE('',#1247);
#1128=PLANE('',#1248);
#1129=PLANE('',#1249);
#1130=PLANE('',#1250);
#1131=PLANE('',#1251);
#1132=PLANE('',#1252);
#1133=PLANE('',#1253);
#1134=PLANE('',#1254);
#1135=PLANE('',#1255);
#1136=PLANE('',#1256);
#1137=PLANE('',#1257);
#1138=PLANE('',#1258);
#1139=PLANE('',#1259);
#1140=PLANE('',#1260);
#1141=PLANE('',#1261);
#1142=PLANE('',#1262);
#1143=PLANE('',#1263);
#1144=PLANE('',#1264);
#1145=PLANE('',#1265);
#1146=PLANE('',#1266);
#1147=PLANE('',#1267);
#1148=PLANE('',#1268);
#1149=PLANE('',#1269);
#1150=PLANE('',#1270);
#1151=PLANE('',#1271);
#1152=PLANE('',#1272);
#1153=PLANE('',#1273);
#1154=PLANE('',#1274);
#1155=PLANE('',#1275);
#1156=PLANE('',#1276);
#1157=PLANE('',#1277);
#1158=PLANE('',#1278);
#1159=PLANE('',#1279);
#1160=PLANE('',#1280);
#1161=PLANE('',#1281);
#1162=PLANE('',#1282);
#1163=PLANE('',#1283);
#1164=PLANE('',#1284);
#1165=PLANE('',#1285);
#1166=ADVANCED_FACE('',(#26),#1107,.F.);
#1167=ADVANCED_FACE('',(#27),#1108,.F.);
#1168=ADVANCED_FACE('',(#28),#1109,.F.);
#1169=ADVANCED_FACE('',(#29),#1110,.F.);
#1170=ADVANCED_FACE('',(#30),#1111,.F.);
#1171=ADVANCED_FACE('',(#31),#1112,.F.);
#1172=ADVANCED_FACE('',(#32),#1113,.F.);
#1173=ADVANCED_FACE('',(#33),#1114,.F.);
#1174=ADVANCED_FACE('',(#34),#1115,.F.);
#1175=ADVANCED_FACE('',(#35),#1116,.F.);
#1176=ADVANCED_FACE('',(#36),#1117,.F.);
#1177=ADVANCED_FACE('',(#37),#1118,.F.);
#1178=ADVANCED_FACE('',(#38),#1119,.F.);
#1179=ADVANCED_FACE('',(#39),#1120,.F.);
#1180=ADVANCED_FACE('',(#40),#1121,.F.);
#1181=ADVANCED_FACE('',(#41),#1122,.F.);
#1182=ADVANCED_FACE('',(#42),#1123,.F.);
#1183=ADVANCED_FACE('',(#43),#1124,.F.);
#1184=ADVANCED_FACE('',(#44),#1125,.F.);
#1185=ADVANCED_FACE('',(#45),#1126,.F.);
#1186=ADVANCED_FACE('',(#46,#15,#16,#17,#18,#19),#1127,.T.);
#1187=ADVANCED_FACE('',(#47),#1128,.T.);
#1188=ADVANCED_FACE('',(#48),#1129,.T.);
#1189=ADVANCED_FACE('',(#49,#20,#21,#22,#23,#24),#1130,.T.);
#1190=ADVANCED_FACE('',(#50),#1131,.T.);
#1191=ADVANCED_FACE('',(#51),#1132,.T.);
#1192=ADVANCED_FACE('',(#52),#1133,.T.);
#1193=ADVANCED_FACE('',(#53),#1134,.T.);
#1194=ADVANCED_FACE('',(#54),#1135,.T.);
#1195=ADVANCED_FACE('',(#55),#1136,.T.);
#1196=ADVANCED_FACE('',(#56),#1137,.T.);
#1197=ADVANCED_FACE('',(#57),#1138,.T.);
#1198=ADVANCED_FACE('',(#58),#1139,.T.);
#1199=ADVANCED_FACE('',(#59),#1140,.T.);
#1200=ADVANCED_FACE('',(#60),#1141,.T.);
#1201=ADVANCED_FACE('',(#61),#1142,.T.);
#1202=ADVANCED_FACE('',(#62),#1143,.T.);
#1203=ADVANCED_FACE('',(#63),#1144,.T.);
#1204=ADVANCED_FACE('',(#64),#1145,.T.);
#1205=ADVANCED_FACE('',(#65),#1146,.T.);
#1206=ADVANCED_FACE('',(#66),#1147,.T.);
#1207=ADVANCED_FACE('',(#67),#1148,.T.);
#1208=ADVANCED_FACE('',(#68),#1149,.T.);
#1209=ADVANCED_FACE('',(#69),#1150,.T.);
#1210=ADVANCED_FACE('',(#70),#1151,.T.);
#1211=ADVANCED_FACE('',(#71),#1152,.T.);
#1212=ADVANCED_FACE('',(#72),#1153,.T.);
#1213=ADVANCED_FACE('',(#73),#1154,.T.);
#1214=ADVANCED_FACE('',(#74),#1155,.T.);
#1215=ADVANCED_FACE('',(#75),#1156,.T.);
#1216=ADVANCED_FACE('',(#76),#1157,.T.);
#1217=ADVANCED_FACE('',(#77),#1158,.T.);
#1218=ADVANCED_FACE('',(#78),#1159,.T.);
#1219=ADVANCED_FACE('',(#79),#1160,.T.);
#1220=ADVANCED_FACE('',(#80),#1161,.T.);
#1221=ADVANCED_FACE('',(#81),#1162,.T.);
#1222=ADVANCED_FACE('',(#82),#1163,.T.);
#1223=ADVANCED_FACE('',(#83),#1164,.T.);
#1224=ADVANCED_FACE('',(#84,#25),#1165,.T.);
#1225=CLOSED_SHELL('',(#1166,#1167,#1168,#1169,#1170,#1171,#1172,#1173,
#1174,#1175,#1176,#1177,#1178,#1179,#1180,#1181,#1182,#1183,#1184,#1185,
#1186,#1187,#1188,#1189,#1190,#1191,#1192,#1193,#1194,#1195,#1196,#1197,
#1198,#1199,#1200,#1201,#1202,#1203,#1204,#1205,#1206,#1207,#1208,#1209,
#1210,#1211,#1212,#1213,#1214,#1215,#1216,#1217,#1218,#1219,#1220,#1221,
#1222,#1223,#1224));
#1226=AXIS2_PLACEMENT_3D('',#1574,#1286,#1287);
#1227=AXIS2_PLACEMENT_3D('',#1575,#1288,#1289);
#1228=AXIS2_PLACEMENT_3D('',#1584,#1294,#1295);
#1229=AXIS2_PLACEMENT_3D('',#1590,#1299,#1300);
#1230=AXIS2_PLACEMENT_3D('',#1596,#1304,#1305);
#1231=AXIS2_PLACEMENT_3D('',#1599,#1308,#1309);
#1232=AXIS2_PLACEMENT_3D('',#1608,#1314,#1315);
#1233=AXIS2_PLACEMENT_3D('',#1614,#1319,#1320);
#1234=AXIS2_PLACEMENT_3D('',#1620,#1324,#1325);
#1235=AXIS2_PLACEMENT_3D('',#1623,#1328,#1329);
#1236=AXIS2_PLACEMENT_3D('',#1632,#1334,#1335);
#1237=AXIS2_PLACEMENT_3D('',#1638,#1339,#1340);
#1238=AXIS2_PLACEMENT_3D('',#1644,#1344,#1345);
#1239=AXIS2_PLACEMENT_3D('',#1647,#1348,#1349);
#1240=AXIS2_PLACEMENT_3D('',#1656,#1354,#1355);
#1241=AXIS2_PLACEMENT_3D('',#1662,#1359,#1360);
#1242=AXIS2_PLACEMENT_3D('',#1668,#1364,#1365);
#1243=AXIS2_PLACEMENT_3D('',#1671,#1368,#1369);
#1244=AXIS2_PLACEMENT_3D('',#1680,#1374,#1375);
#1245=AXIS2_PLACEMENT_3D('',#1686,#1379,#1380);
#1246=AXIS2_PLACEMENT_3D('',#1692,#1384,#1385);
#1247=AXIS2_PLACEMENT_3D('',#1695,#1388,#1389);
#1248=AXIS2_PLACEMENT_3D('',#1704,#1394,#1395);
#1249=AXIS2_PLACEMENT_3D('',#1710,#1399,#1400);
#1250=AXIS2_PLACEMENT_3D('',#1714,#1403,#1404);
#1251=AXIS2_PLACEMENT_3D('',#1779,#1437,#1438);
#1252=AXIS2_PLACEMENT_3D('',#1783,#1441,#1442);
#1253=AXIS2_PLACEMENT_3D('',#1785,#1444,#1445);
#1254=AXIS2_PLACEMENT_3D('',#1791,#1449,#1450);
#1255=AXIS2_PLACEMENT_3D('',#1795,#1453,#1454);
#1256=AXIS2_PLACEMENT_3D('',#1799,#1457,#1458);
#1257=AXIS2_PLACEMENT_3D('',#1803,#1461,#1462);
#1258=AXIS2_PLACEMENT_3D('',#1807,#1465,#1466);
#1259=AXIS2_PLACEMENT_3D('',#1811,#1469,#1470);
#1260=AXIS2_PLACEMENT_3D('',#1815,#1473,#1474);
#1261=AXIS2_PLACEMENT_3D('',#1819,#1477,#1478);
#1262=AXIS2_PLACEMENT_3D('',#1823,#1481,#1482);
#1263=AXIS2_PLACEMENT_3D('',#1827,#1485,#1486);
#1264=AXIS2_PLACEMENT_3D('',#1831,#1489,#1490);
#1265=AXIS2_PLACEMENT_3D('',#1835,#1493,#1494);
#1266=AXIS2_PLACEMENT_3D('',#1839,#1497,#1498);
#1267=AXIS2_PLACEMENT_3D('',#1843,#1501,#1502);
#1268=AXIS2_PLACEMENT_3D('',#1847,#1505,#1506);
#1269=AXIS2_PLACEMENT_3D('',#1851,#1509,#1510);
#1270=AXIS2_PLACEMENT_3D('',#1855,#1513,#1514);
#1271=AXIS2_PLACEMENT_3D('',#1859,#1517,#1518);
#1272=AXIS2_PLACEMENT_3D('',#1863,#1521,#1522);
#1273=AXIS2_PLACEMENT_3D('',#1867,#1525,#1526);
#1274=AXIS2_PLACEMENT_3D('',#1871,#1529,#1530);
#1275=AXIS2_PLACEMENT_3D('',#1875,#1533,#1534);
#1276=AXIS2_PLACEMENT_3D('',#1879,#1537,#1538);
#1277=AXIS2_PLACEMENT_3D('',#1883,#1541,#1542);
#1278=AXIS2_PLACEMENT_3D('',#1887,#1545,#1546);
#1279=AXIS2_PLACEMENT_3D('',#1891,#1549,#1550);
#1280=AXIS2_PLACEMENT_3D('',#1895,#1553,#1554);
#1281=AXIS2_PLACEMENT_3D('',#1899,#1557,#1558);
#1282=AXIS2_PLACEMENT_3D('',#1903,#1561,#1562);
#1283=AXIS2_PLACEMENT_3D('',#1907,#1565,#1566);
#1284=AXIS2_PLACEMENT_3D('',#1911,#1569,#1570);
#1285=AXIS2_PLACEMENT_3D('',#1913,#1572,#1573);
#1286=DIRECTION('axis',(0.,0.,1.));
#1287=DIRECTION('refdir',(1.,0.,0.));
#1288=DIRECTION('center_axis',(-1.,0.,0.));
#1289=DIRECTION('ref_axis',(0.,1.,0.));
#1290=DIRECTION('',(0.,-1.,0.));
#1291=DIRECTION('',(0.,0.,-1.));
#1292=DIRECTION('',(0.,1.,0.));
#1293=DIRECTION('',(0.,0.,-1.));
#1294=DIRECTION('center_axis',(0.,-1.,0.));
#1295=DIRECTION('ref_axis',(-1.,0.,0.));
#1296=DIRECTION('',(1.,0.,0.));
#1297=DIRECTION('',(-1.,0.,0.));
#1298=DIRECTION('',(0.,0.,-1.));
#1299=DIRECTION('center_axis',(1.,0.,0.));
#1300=DIRECTION('ref_axis',(0.,-1.,0.));
#1301=DIRECTION('',(0.,1.,0.));
#1302=DIRECTION('',(0.,-1.,0.));
#1303=DIRECTION('',(0.,0.,-1.));
#1304=DIRECTION('center_axis',(0.,1.,0.));
#1305=DIRECTION('ref_axis',(1.,0.,0.));
#1306=DIRECTION('',(-1.,0.,0.));
#1307=DIRECTION('',(1.,0.,0.));
#1308=DIRECTION('center_axis',(-1.,0.,0.));
#1309=DIRECTION('ref_axis',(0.,1.,0.));
#1310=DIRECTION('',(0.,-1.,0.));
#1311=DIRECTION('',(0.,0.,-1.));
#1312=DIRECTION('',(0.,1.,0.));
#1313=DIRECTION('',(0.,0.,-1.));
#1314=DIRECTION('center_axis',(0.,-1.,0.));
#1315=DIRECTION('ref_axis',(-1.,0.,0.));
#1316=DIRECTION('',(1.,0.,0.));
#1317=DIRECTION('',(-1.,0.,0.));
#1318=DIRECTION('',(0.,0.,-1.));
#1319=DIRECTION('center_axis',(1.,0.,0.));
#1320=DIRECTION('ref_axis',(0.,-1.,0.));
#1321=DIRECTION('',(0.,1.,0.));
#1322=DIRECTION('',(0.,-1.,0.));
#1323=DIRECTION('',(0.,0.,-1.));
#1324=DIRECTION('center_axis',(0.,1.,0.));
#1325=DIRECTION('ref_axis',(1.,0.,0.));
#1326=DIRECTION('',(-1.,0.,0.));
#1327=DIRECTION('',(1.,0.,0.));
#1328=DIRECTION('center_axis',(-1.,0.,0.));
#1329=DIRECTION('ref_axis',(0.,1.,0.));
#1330=DIRECTION('',(0.,-1.,0.));
#1331=DIRECTION('',(0.,0.,-1.));
#1332=DIRECTION('',(0.,1.,0.));
#1333=DIRECTION('',(0.,0.,-1.));
#1334=DIRECTION('center_axis',(0.,-1.,0.));
#1335=DIRECTION('ref_axis',(-1.,0.,0.));
#1336=DIRECTION('',(1.,0.,0.));
#1337=DIRECTION('',(-1.,0.,0.));
#1338=DIRECTION('',(0.,0.,-1.));
#1339=DIRECTION('center_axis',(1.,0.,0.));
#1340=DIRECTION('ref_axis',(0.,-1.,0.));
#1341=DIRECTION('',(0.,1.,0.));
#1342=DIRECTION('',(0.,-1.,0.));
#1343=DIRECTION('',(0.,0.,-1.));
#1344=DIRECTION('center_axis',(0.,1.,0.));
#1345=DIRECTION('ref_axis',(1.,0.,0.));
#1346=DIRECTION('',(-1.,0.,0.));
#1347=DIRECTION('',(1.,0.,0.));
#1348=DIRECTION('center_axis',(-1.,0.,0.));
#1349=DIRECTION('ref_axis',(0.,1.,0.));
#1350=DIRECTION('',(0.,-1.,0.));
#1351=DIRECTION('',(0.,0.,-1.));
#1352=DIRECTION('',(0.,1.,0.));
#1353=DIRECTION('',(0.,0.,-1.));
#1354=DIRECTION('center_axis',(0.,-1.,0.));
#1355=DIRECTION('ref_axis',(-1.,0.,0.));
#1356=DIRECTION('',(1.,0.,0.));
#1357=DIRECTION('',(-1.,0.,0.));
#1358=DIRECTION('',(0.,0.,-1.));
#1359=DIRECTION('center_axis',(1.,0.,0.));
#1360=DIRECTION('ref_axis',(0.,-1.,0.));
#1361=DIRECTION('',(0.,1.,0.));
#1362=DIRECTION('',(0.,-1.,0.));
#1363=DIRECTION('',(0.,0.,-1.));
#1364=DIRECTION('center_axis',(0.,1.,0.));
#1365=DIRECTION('ref_axis',(1.,0.,0.));
#1366=DIRECTION('',(-1.,0.,0.));
#1367=DIRECTION('',(1.,0.,0.));
#1368=DIRECTION('center_axis',(-1.,0.,0.));
#1369=DIRECTION('ref_axis',(0.,1.,0.));
#1370=DIRECTION('',(0.,-1.,0.));
#1371=DIRECTION('',(0.,0.,-1.));
#1372=DIRECTION('',(0.,1.,0.));
#1373=DIRECTION('',(0.,0.,-1.));
#1374=DIRECTION('center_axis',(0.,-1.,0.));
#1375=DIRECTION('ref_axis',(-1.,0.,0.));
#1376=DIRECTION('',(1.,0.,0.));
#1377=DIRECTION('',(-1.,0.,0.));
#1378=DIRECTION('',(0.,0.,-1.));
#1379=DIRECTION('center_axis',(1.,0.,0.));
#1380=DIRECTION('ref_axis',(0.,-1.,0.));
#1381=DIRECTION('',(0.,1.,0.));
#1382=DIRECTION('',(0.,-1.,0.));
#1383=DIRECTION('',(0.,0.,-1.));
#1384=DIRECTION('center_axis',(0.,1.,0.));
#1385=DIRECTION('ref_axis',(1.,0.,0.));
#1386=DIRECTION('',(-1.,0.,0.));
#1387=DIRECTION('',(1.,0.,0.));
#1388=DIRECTION('center_axis',(0.,0.,-1.));
#1389=DIRECTION('ref_axis',(0.,1.,0.));
#1390=DIRECTION('',(0.,-1.,0.));
#1391=DIRECTION('',(-1.,0.,0.));
#1392=DIRECTION('',(0.,1.,0.));
#1393=DIRECTION('',(1.,0.,0.));
#1394=DIRECTION('center_axis',(0.,-1.,0.));
#1395=DIRECTION('ref_axis',(-1.,0.,0.));
#1396=DIRECTION('',(0.,0.,1.));
#1397=DIRECTION('',(-1.,0.,0.));
#1398=DIRECTION('',(0.,0.,1.));
#1399=DIRECTION('center_axis',(1.,0.,0.));
#1400=DIRECTION('ref_axis',(0.,-1.,0.));
#1401=DIRECTION('',(0.,0.,1.));
#1402=DIRECTION('',(0.,-1.,0.));
#1403=DIRECTION('center_axis',(0.,0.,1.));
#1404=DIRECTION('ref_axis',(1.,0.,0.));
#1405=DIRECTION('',(1.,0.,0.));
#1406=DIRECTION('',(0.,-1.,0.));
#1407=DIRECTION('',(1.,0.,0.));
#1408=DIRECTION('',(0.,1.,0.));
#1409=DIRECTION('',(1.,0.,0.));
#1410=DIRECTION('',(0.,1.,0.));
#1411=DIRECTION('',(1.,0.,0.));
#1412=DIRECTION('',(0.,1.,0.));
#1413=DIRECTION('',(-1.,0.,0.));
#1414=DIRECTION('',(0.,1.,0.));
#1415=DIRECTION('',(-1.,0.,0.));
#1416=DIRECTION('',(0.,1.,0.));
#1417=DIRECTION('',(-1.,0.,0.));
#1418=DIRECTION('',(0.,1.,0.));
#1419=DIRECTION('',(-1.,0.,0.));
#1420=DIRECTION('',(0.,1.,0.));
#1421=DIRECTION('',(-1.,0.,0.));
#1422=DIRECTION('',(0.,-1.,0.));
#1423=DIRECTION('',(-1.,0.,0.));
#1424=DIRECTION('',(0.,-1.,0.));
#1425=DIRECTION('',(-1.,0.,0.));
#1426=DIRECTION('',(0.,-1.,0.));
#1427=DIRECTION('',(-1.,0.,0.));
#1428=DIRECTION('',(0.,-1.,0.));
#1429=DIRECTION('',(-1.,0.,0.));
#1430=DIRECTION('',(0.,-1.,0.));
#1431=DIRECTION('',(1.,0.,0.));
#1432=DIRECTION('',(0.,-1.,0.));
#1433=DIRECTION('',(1.,0.,0.));
#1434=DIRECTION('',(0.,-1.,0.));
#1435=DIRECTION('',(1.,0.,0.));
#1436=DIRECTION('',(0.,1.,0.));
#1437=DIRECTION('center_axis',(-1.,0.,0.));
#1438=DIRECTION('ref_axis',(0.,1.,0.));
#1439=DIRECTION('',(0.,1.,0.));
#1440=DIRECTION('',(0.,0.,-1.));
#1441=DIRECTION('center_axis',(0.,1.,0.));
#1442=DIRECTION('ref_axis',(1.,0.,0.));
#1443=DIRECTION('',(1.,0.,0.));
#1444=DIRECTION('center_axis',(-1.,0.,0.));
#1445=DIRECTION('ref_axis',(0.,1.,0.));
#1446=DIRECTION('',(0.,0.,1.));
#1447=DIRECTION('',(0.,1.,0.));
#1448=DIRECTION('',(0.,0.,1.));
#1449=DIRECTION('center_axis',(0.,-1.,0.));
#1450=DIRECTION('ref_axis',(-1.,0.,0.));
#1451=DIRECTION('',(-1.,0.,0.));
#1452=DIRECTION('',(0.,0.,1.));
#1453=DIRECTION('center_axis',(1.,0.,0.));
#1454=DIRECTION('ref_axis',(0.,-1.,0.));
#1455=DIRECTION('',(0.,-1.,0.));
#1456=DIRECTION('',(0.,0.,1.));
#1457=DIRECTION('center_axis',(0.,-1.,0.));
#1458=DIRECTION('ref_axis',(-1.,0.,0.));
#1459=DIRECTION('',(-1.,0.,0.));
#1460=DIRECTION('',(0.,0.,1.));
#1461=DIRECTION('center_axis',(1.,0.,0.));
#1462=DIRECTION('ref_axis',(0.,-1.,0.));
#1463=DIRECTION('',(0.,-1.,0.));
#1464=DIRECTION('',(0.,0.,1.));
#1465=DIRECTION('center_axis',(0.,-1.,0.));
#1466=DIRECTION('ref_axis',(-1.,0.,0.));
#1467=DIRECTION('',(-1.,0.,0.));
#1468=DIRECTION('',(0.,0.,1.));
#1469=DIRECTION('center_axis',(1.,0.,0.));
#1470=DIRECTION('ref_axis',(0.,-1.,0.));
#1471=DIRECTION('',(0.,-1.,0.));
#1472=DIRECTION('',(0.,0.,1.));
#1473=DIRECTION('center_axis',(0.,1.,0.));
#1474=DIRECTION('ref_axis',(1.,0.,0.));
#1475=DIRECTION('',(1.,0.,0.));
#1476=DIRECTION('',(0.,0.,1.));
#1477=DIRECTION('center_axis',(1.,0.,0.));
#1478=DIRECTION('ref_axis',(0.,-1.,0.));
#1479=DIRECTION('',(0.,-1.,0.));
#1480=DIRECTION('',(0.,0.,1.));
#1481=DIRECTION('center_axis',(0.,1.,0.));
#1482=DIRECTION('ref_axis',(1.,0.,0.));
#1483=DIRECTION('',(1.,0.,0.));
#1484=DIRECTION('',(0.,0.,1.));
#1485=DIRECTION('center_axis',(1.,0.,0.));
#1486=DIRECTION('ref_axis',(0.,-1.,0.));
#1487=DIRECTION('',(0.,-1.,0.));
#1488=DIRECTION('',(0.,0.,1.));
#1489=DIRECTION('center_axis',(0.,1.,0.));
#1490=DIRECTION('ref_axis',(1.,0.,0.));
#1491=DIRECTION('',(1.,0.,0.));
#1492=DIRECTION('',(0.,0.,1.));
#1493=DIRECTION('center_axis',(1.,0.,0.));
#1494=DIRECTION('ref_axis',(0.,-1.,0.));
#1495=DIRECTION('',(0.,-1.,0.));
#1496=DIRECTION('',(0.,0.,1.));
#1497=DIRECTION('center_axis',(0.,1.,0.));
#1498=DIRECTION('ref_axis',(1.,0.,0.));
#1499=DIRECTION('',(1.,0.,0.));
#1500=DIRECTION('',(0.,0.,1.));
#1501=DIRECTION('center_axis',(1.,0.,0.));
#1502=DIRECTION('ref_axis',(0.,-1.,0.));
#1503=DIRECTION('',(0.,-1.,0.));
#1504=DIRECTION('',(0.,0.,1.));
#1505=DIRECTION('center_axis',(0.,1.,0.));
#1506=DIRECTION('ref_axis',(1.,0.,0.));
#1507=DIRECTION('',(1.,0.,0.));
#1508=DIRECTION('',(0.,0.,1.));
#1509=DIRECTION('center_axis',(-1.,0.,0.));
#1510=DIRECTION('ref_axis',(0.,1.,0.));
#1511=DIRECTION('',(0.,1.,0.));
#1512=DIRECTION('',(0.,0.,1.));
#1513=DIRECTION('center_axis',(0.,1.,0.));
#1514=DIRECTION('ref_axis',(1.,0.,0.));
#1515=DIRECTION('',(1.,0.,0.));
#1516=DIRECTION('',(0.,0.,1.));
#1517=DIRECTION('center_axis',(-1.,0.,0.));
#1518=DIRECTION('ref_axis',(0.,1.,0.));
#1519=DIRECTION('',(0.,1.,0.));
#1520=DIRECTION('',(0.,0.,1.));
#1521=DIRECTION('center_axis',(0.,1.,0.));
#1522=DIRECTION('ref_axis',(1.,0.,0.));
#1523=DIRECTION('',(1.,0.,0.));
#1524=DIRECTION('',(0.,0.,1.));
#1525=DIRECTION('center_axis',(-1.,0.,0.));
#1526=DIRECTION('ref_axis',(0.,1.,0.));
#1527=DIRECTION('',(0.,1.,0.));
#1528=DIRECTION('',(0.,0.,1.));
#1529=DIRECTION('center_axis',(0.,1.,0.));
#1530=DIRECTION('ref_axis',(1.,0.,0.));
#1531=DIRECTION('',(1.,0.,0.));
#1532=DIRECTION('',(0.,0.,1.));
#1533=DIRECTION('center_axis',(-1.,0.,0.));
#1534=DIRECTION('ref_axis',(0.,1.,0.));
#1535=DIRECTION('',(0.,1.,0.));
#1536=DIRECTION('',(0.,0.,1.));
#1537=DIRECTION('center_axis',(0.,1.,0.));
#1538=DIRECTION('ref_axis',(1.,0.,0.));
#1539=DIRECTION('',(1.,0.,0.));
#1540=DIRECTION('',(0.,0.,1.));
#1541=DIRECTION('center_axis',(-1.,0.,0.));
#1542=DIRECTION('ref_axis',(0.,1.,0.));
#1543=DIRECTION('',(0.,1.,0.));
#1544=DIRECTION('',(0.,0.,1.));
#1545=DIRECTION('center_axis',(0.,-1.,0.));
#1546=DIRECTION('ref_axis',(-1.,0.,0.));
#1547=DIRECTION('',(-1.,0.,0.));
#1548=DIRECTION('',(0.,0.,1.));
#1549=DIRECTION('center_axis',(-1.,0.,0.));
#1550=DIRECTION('ref_axis',(0.,1.,0.));
#1551=DIRECTION('',(0.,1.,0.));
#1552=DIRECTION('',(0.,0.,1.));
#1553=DIRECTION('center_axis',(0.,-1.,0.));
#1554=DIRECTION('ref_axis',(-1.,0.,0.));
#1555=DIRECTION('',(-1.,0.,0.));
#1556=DIRECTION('',(0.,0.,1.));
#1557=DIRECTION('center_axis',(-1.,0.,0.));
#1558=DIRECTION('ref_axis',(0.,1.,0.));
#1559=DIRECTION('',(0.,1.,0.));
#1560=DIRECTION('',(0.,0.,1.));
#1561=DIRECTION('center_axis',(0.,-1.,0.));
#1562=DIRECTION('ref_axis',(-1.,0.,0.));
#1563=DIRECTION('',(-1.,0.,0.));
#1564=DIRECTION('',(0.,0.,1.));
#1565=DIRECTION('center_axis',(1.,0.,0.));
#1566=DIRECTION('ref_axis',(0.,-1.,0.));
#1567=DIRECTION('',(0.,-1.,0.));
#1568=DIRECTION('',(0.,0.,-1.));
#1569=DIRECTION('center_axis',(0.,-1.,0.));
#1570=DIRECTION('ref_axis',(-1.,0.,0.));
#1571=DIRECTION('',(-1.,0.,0.));
#1572=DIRECTION('center_axis',(0.,0.,-1.));
#1573=DIRECTION('ref_axis',(-1.,0.,0.));
#1574=CARTESIAN_POINT('',(0.,0.,0.));
#1575=CARTESIAN_POINT('Origin',(98.6574710589163,-124.731539691803,13.51));
#1576=CARTESIAN_POINT('',(98.6574710589163,-112.578928082917,11.51));
#1577=CARTESIAN_POINT('',(98.6574710589163,-124.731539691803,11.51));
#1578=CARTESIAN_POINT('',(98.6574710589163,-131.490769845902,11.51));
#1579=CARTESIAN_POINT('',(98.6574710589163,-112.578928082917,13.51));
#1580=CARTESIAN_POINT('',(98.6574710589163,-112.578928082917,13.51));
#1581=CARTESIAN_POINT('',(98.6574710589163,-124.731539691803,13.51));
#1582=CARTESIAN_POINT('',(98.6574710589163,-117.095713040379,13.51));
#1583=CARTESIAN_POINT('',(98.6574710589163,-124.731539691803,13.51));
#1584=CARTESIAN_POINT('Origin',(112.223177040929,-124.731539691803,13.51));
#1585=CARTESIAN_POINT('',(112.223177040929,-124.731539691803,11.51));
#1586=CARTESIAN_POINT('',(98.6115885204646,-124.731539691803,11.51));
#1587=CARTESIAN_POINT('',(112.223177040929,-124.731539691803,13.51));
#1588=CARTESIAN_POINT('',(133.611588520465,-124.731539691803,13.51));
#1589=CARTESIAN_POINT('',(112.223177040929,-124.731539691803,13.51));
#1590=CARTESIAN_POINT('Origin',(112.223177040929,-112.578928082917,13.51));
#1591=CARTESIAN_POINT('',(112.223177040929,-112.578928082917,11.51));
#1592=CARTESIAN_POINT('',(112.223177040929,-125.414464041458,11.51));
#1593=CARTESIAN_POINT('',(112.223177040929,-112.578928082917,13.51));
#1594=CARTESIAN_POINT('',(112.223177040929,-111.019407235936,13.51));
#1595=CARTESIAN_POINT('',(112.223177040929,-112.578928082917,13.51));
#1596=CARTESIAN_POINT('Origin',(98.6574710589163,-112.578928082917,13.51));
#1597=CARTESIAN_POINT('',(91.8287355294581,-112.578928082917,11.51));
#1598=CARTESIAN_POINT('',(126.828735529458,-112.578928082917,13.51));
#1599=CARTESIAN_POINT('Origin',(197.236116905121,-124.731539691803,13.51));
#1600=CARTESIAN_POINT('',(197.236116905121,-112.578928082917,11.51));
#1601=CARTESIAN_POINT('',(197.236116905121,-124.731539691803,11.51));
#1602=CARTESIAN_POINT('',(197.236116905121,-131.490769845902,11.51));
#1603=CARTESIAN_POINT('',(197.236116905121,-112.578928082917,13.51));
#1604=CARTESIAN_POINT('',(197.236116905121,-112.578928082917,13.51));
#1605=CARTESIAN_POINT('',(197.236116905121,-124.731539691803,13.51));
#1606=CARTESIAN_POINT('',(197.236116905121,-117.095713040379,13.51));
#1607=CARTESIAN_POINT('',(197.236116905121,-124.731539691803,13.51));
#1608=CARTESIAN_POINT('Origin',(211.182202788552,-124.731539691803,13.51));
#1609=CARTESIAN_POINT('',(211.182202788552,-124.731539691803,11.51));
#1610=CARTESIAN_POINT('',(148.091101394276,-124.731539691803,11.51));
#1611=CARTESIAN_POINT('',(211.182202788552,-124.731539691803,13.51));
#1612=CARTESIAN_POINT('',(183.091101394276,-124.731539691803,13.51));
#1613=CARTESIAN_POINT('',(211.182202788552,-124.731539691803,13.51));
#1614=CARTESIAN_POINT('Origin',(211.182202788552,-112.578928082917,13.51));
#1615=CARTESIAN_POINT('',(211.182202788552,-112.578928082917,11.51));
#1616=CARTESIAN_POINT('',(211.182202788552,-125.414464041458,11.51));
#1617=CARTESIAN_POINT('',(211.182202788552,-112.578928082917,13.51));
#1618=CARTESIAN_POINT('',(211.182202788552,-111.019407235936,13.51));
#1619=CARTESIAN_POINT('',(211.182202788552,-112.578928082917,13.51));
#1620=CARTESIAN_POINT('Origin',(197.236116905121,-112.578928082917,13.51));
#1621=CARTESIAN_POINT('',(141.118058452561,-112.578928082917,11.51));
#1622=CARTESIAN_POINT('',(176.118058452561,-112.578928082917,13.51));
#1623=CARTESIAN_POINT('Origin',(98.2806458927492,-106.078693966535,13.51));
#1624=CARTESIAN_POINT('',(98.2806458927492,-93.3608446083983,11.51));
#1625=CARTESIAN_POINT('',(98.2806458927492,-106.078693966535,11.51));
#1626=CARTESIAN_POINT('',(98.2806458927492,-122.164346983268,11.51));
#1627=CARTESIAN_POINT('',(98.2806458927492,-93.3608446083983,13.51));
#1628=CARTESIAN_POINT('',(98.2806458927492,-93.3608446083983,13.51));
#1629=CARTESIAN_POINT('',(98.2806458927492,-106.078693966535,13.51));
#1630=CARTESIAN_POINT('',(98.2806458927492,-107.769290177745,13.51));
#1631=CARTESIAN_POINT('',(98.2806458927492,-106.078693966535,13.51));
#1632=CARTESIAN_POINT('Origin',(112.223177040929,-106.078693966535,13.51));
#1633=CARTESIAN_POINT('',(112.223177040929,-106.078693966535,11.51));
#1634=CARTESIAN_POINT('',(98.6115885204646,-106.078693966535,11.51));
#1635=CARTESIAN_POINT('',(112.223177040929,-106.078693966535,13.51));
#1636=CARTESIAN_POINT('',(133.611588520465,-106.078693966535,13.51));
#1637=CARTESIAN_POINT('',(112.223177040929,-106.078693966535,13.51));
#1638=CARTESIAN_POINT('Origin',(112.223177040929,-93.3608446083983,13.51));
#1639=CARTESIAN_POINT('',(112.223177040929,-93.3608446083983,11.51));
#1640=CARTESIAN_POINT('',(112.223177040929,-115.805422304199,11.51));
#1641=CARTESIAN_POINT('',(112.223177040929,-93.3608446083983,13.51));
#1642=CARTESIAN_POINT('',(112.223177040929,-101.410365498677,13.51));
#1643=CARTESIAN_POINT('',(112.223177040929,-93.3608446083983,13.51));
#1644=CARTESIAN_POINT('Origin',(98.2806458927492,-93.3608446083983,13.51));
#1645=CARTESIAN_POINT('',(91.6403229463746,-93.3608446083983,11.51));
#1646=CARTESIAN_POINT('',(126.640322946375,-93.3608446083983,13.51));
#1647=CARTESIAN_POINT('Origin',(197.347142343409,-106.000001579523,13.51));
#1648=CARTESIAN_POINT('',(197.347142343409,-93.3201478803632,11.51));
#1649=CARTESIAN_POINT('',(197.347142343409,-106.000001579523,11.51));
#1650=CARTESIAN_POINT('',(197.347142343409,-122.125000789762,11.51));
#1651=CARTESIAN_POINT('',(197.347142343409,-93.3201478803632,13.51));
#1652=CARTESIAN_POINT('',(197.347142343409,-93.3201478803632,13.51));
#1653=CARTESIAN_POINT('',(197.347142343409,-106.000001579523,13.51));
#1654=CARTESIAN_POINT('',(197.347142343409,-107.729943984239,13.51));
#1655=CARTESIAN_POINT('',(197.347142343409,-106.000001579523,13.51));
#1656=CARTESIAN_POINT('Origin',(211.000003144145,-106.000001579523,13.51));
#1657=CARTESIAN_POINT('',(211.000003144145,-106.000001579523,11.51));
#1658=CARTESIAN_POINT('',(148.000001572073,-106.000001579523,11.51));
#1659=CARTESIAN_POINT('',(211.000003144145,-106.000001579523,13.51));
#1660=CARTESIAN_POINT('',(183.000001572073,-106.000001579523,13.51));
#1661=CARTESIAN_POINT('',(211.000003144145,-106.000001579523,13.51));
#1662=CARTESIAN_POINT('Origin',(211.000003144145,-93.3201478803632,13.51));
#1663=CARTESIAN_POINT('',(211.000003144145,-93.3201478803632,11.51));
#1664=CARTESIAN_POINT('',(211.000003144145,-115.785073940182,11.51));
#1665=CARTESIAN_POINT('',(211.000003144145,-93.3201478803632,13.51));
#1666=CARTESIAN_POINT('',(211.000003144145,-101.390017134659,13.51));
#1667=CARTESIAN_POINT('',(211.000003144145,-93.3201478803632,13.51));
#1668=CARTESIAN_POINT('Origin',(197.347142343409,-93.3201478803632,13.51));
#1669=CARTESIAN_POINT('',(141.173571171704,-93.3201478803632,11.51));
#1670=CARTESIAN_POINT('',(176.173571171704,-93.3201478803632,13.51));
#1671=CARTESIAN_POINT('Origin',(116.000001728535,-120.000001788139,13.51));
#1672=CARTESIAN_POINT('',(116.000001728535,-95.0000014156103,11.51));
#1673=CARTESIAN_POINT('',(116.000001728535,-120.000001788139,11.51));
#1674=CARTESIAN_POINT('',(116.000001728535,-129.12500089407,11.51));
#1675=CARTESIAN_POINT('',(116.000001728535,-95.0000014156103,13.51));
#1676=CARTESIAN_POINT('',(116.000001728535,-95.0000014156103,13.51));
#1677=CARTESIAN_POINT('',(116.000001728535,-120.000001788139,13.51));
#1678=CARTESIAN_POINT('',(116.000001728535,-114.729944088547,13.51));
#1679=CARTESIAN_POINT('',(116.000001728535,-120.000001788139,13.51));
#1680=CARTESIAN_POINT('Origin',(192.000002861023,-120.000001788139,13.51));
#1681=CARTESIAN_POINT('',(192.000002861023,-120.000001788139,11.51));
#1682=CARTESIAN_POINT('',(138.500001430511,-120.000001788139,11.51));
#1683=CARTESIAN_POINT('',(192.000002861023,-120.000001788139,13.51));
#1684=CARTESIAN_POINT('',(173.500001430511,-120.000001788139,13.51));
#1685=CARTESIAN_POINT('',(192.000002861023,-120.000001788139,13.51));
#1686=CARTESIAN_POINT('Origin',(192.000002861023,-95.0000014156103,13.51));
#1687=CARTESIAN_POINT('',(192.000002861023,-95.0000014156103,11.51));
#1688=CARTESIAN_POINT('',(192.000002861023,-116.625000707805,11.51));
#1689=CARTESIAN_POINT('',(192.000002861023,-95.0000014156103,13.51));
#1690=CARTESIAN_POINT('',(192.000002861023,-102.229943902283,13.51));
#1691=CARTESIAN_POINT('',(192.000002861023,-95.0000014156103,13.51));
#1692=CARTESIAN_POINT('Origin',(116.000001728535,-95.0000014156103,13.51));
#1693=CARTESIAN_POINT('',(100.500000864267,-95.0000014156103,11.51));
#1694=CARTESIAN_POINT('',(135.500000864267,-95.0000014156103,13.51));
#1695=CARTESIAN_POINT('Origin',(85.,-138.25,11.51));
#1696=CARTESIAN_POINT('',(85.,-83.75,11.51));
#1697=CARTESIAN_POINT('',(85.,-138.25,11.51));
#1698=CARTESIAN_POINT('',(85.,-111.,11.51));
#1699=CARTESIAN_POINT('',(225.25,-83.75,11.51));
#1700=CARTESIAN_POINT('',(155.125,-83.75,11.51));
#1701=CARTESIAN_POINT('',(225.25,-138.25,11.51));
#1702=CARTESIAN_POINT('',(225.25,-138.25,11.51));
#1703=CARTESIAN_POINT('',(85.,-138.25,11.51));
#1704=CARTESIAN_POINT('Origin',(225.25,-83.75,1.51));
#1705=CARTESIAN_POINT('',(85.,-83.75,-11.49));
#1706=CARTESIAN_POINT('',(85.,-83.75,1.51));
#1707=CARTESIAN_POINT('',(225.25,-83.75,-11.49));
#1708=CARTESIAN_POINT('',(85.,-83.75,-11.49));
#1709=CARTESIAN_POINT('',(225.25,-83.75,1.51));
#1710=CARTESIAN_POINT('Origin',(85.,-83.75,1.51));
#1711=CARTESIAN_POINT('',(85.,-138.25,-11.49));
#1712=CARTESIAN_POINT('',(85.,-138.25,1.51));
#1713=CARTESIAN_POINT('',(85.,-138.25,-11.49));
#1714=CARTESIAN_POINT('Origin',(155.,-109.459886388955,13.51));
#1715=CARTESIAN_POINT('',(105.,-145.,13.51));
#1716=CARTESIAN_POINT('',(204.960523125342,-145.,13.51));
#1717=CARTESIAN_POINT('',(105.,-145.,13.51));
#1718=CARTESIAN_POINT('',(204.960523125342,-148.919772777911,13.51));
#1719=CARTESIAN_POINT('',(204.960523125342,-145.,13.51));
#1720=CARTESIAN_POINT('',(226.480494345699,-148.919772777911,13.51));
#1721=CARTESIAN_POINT('',(226.480494345699,-148.919772777911,13.51));
#1722=CARTESIAN_POINT('',(226.480494345699,-144.571110434615,13.51));
#1723=CARTESIAN_POINT('',(226.480494345699,-144.571110434615,13.51));
#1724=CARTESIAN_POINT('',(230.25,-144.571110434615,13.51));
#1725=CARTESIAN_POINT('',(230.25,-144.571110434615,13.51));
#1726=CARTESIAN_POINT('',(230.25,-140.,13.51));
#1727=CARTESIAN_POINT('',(230.25,-140.,13.51));
#1728=CARTESIAN_POINT('',(235.,-140.,13.51));
#1729=CARTESIAN_POINT('',(235.,-140.,13.51));
#1730=CARTESIAN_POINT('',(235.,-95.0773325308111,13.51));
#1731=CARTESIAN_POINT('',(235.,-95.0773325308111,13.51));
#1732=CARTESIAN_POINT('',(230.25,-95.0773325308111,13.51));
#1733=CARTESIAN_POINT('',(230.25,-95.0773325308111,13.51));
#1734=CARTESIAN_POINT('',(230.25,-89.840500878225,13.51));
#1735=CARTESIAN_POINT('',(230.25,-89.840500878225,13.51));
#1736=CARTESIAN_POINT('',(227.75,-89.840500878225,13.51));
#1737=CARTESIAN_POINT('',(227.75,-89.840500878225,13.51));
#1738=CARTESIAN_POINT('',(227.75,-81.25,13.51));
#1739=CARTESIAN_POINT('',(227.75,-81.25,13.51));
#1740=CARTESIAN_POINT('',(219.992526489471,-81.25,13.51));
#1741=CARTESIAN_POINT('',(219.992526489471,-81.25,13.51));
#1742=CARTESIAN_POINT('',(219.992526489471,-74.6025471822427,13.51));
#1743=CARTESIAN_POINT('',(219.992526489471,-74.6025471822427,13.51));
#1744=CARTESIAN_POINT('',(199.800397601406,-74.6025471822427,13.51));
#1745=CARTESIAN_POINT('',(210.197158860032,-74.6025471822427,13.51));
#1746=CARTESIAN_POINT('',(199.800397601406,-70.,13.51));
#1747=CARTESIAN_POINT('',(199.800397601406,-70.,13.51));
#1748=CARTESIAN_POINT('',(110.,-70.,13.51));
#1749=CARTESIAN_POINT('',(110.,-70.,13.51));
#1750=CARTESIAN_POINT('',(110.,-74.6025471822427,13.51));
#1751=CARTESIAN_POINT('',(110.,-74.6025471822427,13.51));
#1752=CARTESIAN_POINT('',(90.2958698311676,-74.6025471822427,13.51));
#1753=CARTESIAN_POINT('',(100.,-74.6025471822427,13.51));
#1754=CARTESIAN_POINT('',(90.2958698311676,-81.25,13.51));
#1755=CARTESIAN_POINT('',(90.2958698311676,-81.25,13.51));
#1756=CARTESIAN_POINT('',(82.5,-81.25,13.51));
#1757=CARTESIAN_POINT('',(82.5,-81.25,13.51));
#1758=CARTESIAN_POINT('',(82.5,-89.7766245759779,13.51));
#1759=CARTESIAN_POINT('',(82.5,-89.7766245759779,13.51));
#1760=CARTESIAN_POINT('',(80.,-89.7766245759779,13.51));
#1761=CARTESIAN_POINT('',(82.5,-89.7766245759779,13.51));
#1762=CARTESIAN_POINT('',(80.,-95.,13.51));
#1763=CARTESIAN_POINT('',(80.,-89.7766245759779,13.51));
#1764=CARTESIAN_POINT('',(75.,-95.,13.51));
#1765=CARTESIAN_POINT('',(75.,-95.,13.51));
#1766=CARTESIAN_POINT('',(75.,-140.,13.51));
#1767=CARTESIAN_POINT('',(75.,-140.,13.51));
#1768=CARTESIAN_POINT('',(80.,-140.,13.51));
#1769=CARTESIAN_POINT('',(80.,-140.,13.51));
#1770=CARTESIAN_POINT('',(80.,-144.571110434615,13.51));
#1771=CARTESIAN_POINT('',(80.,-144.571110434615,13.51));
#1772=CARTESIAN_POINT('',(83.1299463863417,-144.571110434615,13.51));
#1773=CARTESIAN_POINT('',(83.1299463863417,-144.571110434615,13.51));
#1774=CARTESIAN_POINT('',(83.1299463863417,-148.919772777911,13.51));
#1775=CARTESIAN_POINT('',(83.1299463863417,-148.919772777911,13.51));
#1776=CARTESIAN_POINT('',(105.,-148.919772777911,13.51));
#1777=CARTESIAN_POINT('',(105.,-148.919772777911,13.51));
#1778=CARTESIAN_POINT('',(105.,-148.919772777911,13.51));
#1779=CARTESIAN_POINT('Origin',(225.25,-138.25,1.51));
#1780=CARTESIAN_POINT('',(225.25,-138.25,-11.49));
#1781=CARTESIAN_POINT('',(225.25,-83.75,-11.49));
#1782=CARTESIAN_POINT('',(225.25,-138.25,1.51));
#1783=CARTESIAN_POINT('Origin',(85.,-138.25,1.51));
#1784=CARTESIAN_POINT('',(225.25,-138.25,-11.49));
#1785=CARTESIAN_POINT('Origin',(204.960523125342,-148.919772777911,1.51));
#1786=CARTESIAN_POINT('',(204.960523125342,-145.,-11.49));
#1787=CARTESIAN_POINT('',(204.960523125342,-145.,1.51));
#1788=CARTESIAN_POINT('',(204.960523125342,-148.919772777911,-11.49));
#1789=CARTESIAN_POINT('',(204.960523125342,-145.,-11.49));
#1790=CARTESIAN_POINT('',(204.960523125342,-148.919772777911,1.51));
#1791=CARTESIAN_POINT('Origin',(226.480494345699,-148.919772777911,1.51));
#1792=CARTESIAN_POINT('',(226.480494345699,-148.919772777911,-11.49));
#1793=CARTESIAN_POINT('',(226.480494345699,-148.919772777911,-11.49));
#1794=CARTESIAN_POINT('',(226.480494345699,-148.919772777911,1.51));
#1795=CARTESIAN_POINT('Origin',(226.480494345699,-144.571110434615,1.51));
#1796=CARTESIAN_POINT('',(226.480494345699,-144.571110434615,-11.49));
#1797=CARTESIAN_POINT('',(226.480494345699,-144.571110434615,-11.49));
#1798=CARTESIAN_POINT('',(226.480494345699,-144.571110434615,1.51));
#1799=CARTESIAN_POINT('Origin',(230.25,-144.571110434615,1.51));
#1800=CARTESIAN_POINT('',(230.25,-144.571110434615,-11.49));
#1801=CARTESIAN_POINT('',(230.25,-144.571110434615,-11.49));
#1802=CARTESIAN_POINT('',(230.25,-144.571110434615,1.51));
#1803=CARTESIAN_POINT('Origin',(230.25,-140.,1.51));
#1804=CARTESIAN_POINT('',(230.25,-140.,-11.49));
#1805=CARTESIAN_POINT('',(230.25,-140.,-11.49));
#1806=CARTESIAN_POINT('',(230.25,-140.,1.51));
#1807=CARTESIAN_POINT('Origin',(235.,-140.,1.51));
#1808=CARTESIAN_POINT('',(235.,-140.,-11.49));
#1809=CARTESIAN_POINT('',(235.,-140.,-11.49));
#1810=CARTESIAN_POINT('',(235.,-140.,1.51));
#1811=CARTESIAN_POINT('Origin',(235.,-95.0773325308111,1.51));
#1812=CARTESIAN_POINT('',(235.,-95.0773325308111,-11.49));
#1813=CARTESIAN_POINT('',(235.,-95.0773325308111,-11.49));
#1814=CARTESIAN_POINT('',(235.,-95.0773325308111,1.51));
#1815=CARTESIAN_POINT('Origin',(230.25,-95.0773325308111,1.51));
#1816=CARTESIAN_POINT('',(230.25,-95.0773325308111,-11.49));
#1817=CARTESIAN_POINT('',(230.25,-95.0773325308111,-11.49));
#1818=CARTESIAN_POINT('',(230.25,-95.0773325308111,1.51));
#1819=CARTESIAN_POINT('Origin',(230.25,-89.840500878225,1.51));
#1820=CARTESIAN_POINT('',(230.25,-89.840500878225,-11.49));
#1821=CARTESIAN_POINT('',(230.25,-89.840500878225,-11.49));
#1822=CARTESIAN_POINT('',(230.25,-89.840500878225,1.51));
#1823=CARTESIAN_POINT('Origin',(227.75,-89.840500878225,1.51));
#1824=CARTESIAN_POINT('',(227.75,-89.840500878225,-11.49));
#1825=CARTESIAN_POINT('',(227.75,-89.840500878225,-11.49));
#1826=CARTESIAN_POINT('',(227.75,-89.840500878225,1.51));
#1827=CARTESIAN_POINT('Origin',(227.75,-81.25,1.51));
#1828=CARTESIAN_POINT('',(227.75,-81.25,-11.49));
#1829=CARTESIAN_POINT('',(227.75,-81.25,-11.49));
#1830=CARTESIAN_POINT('',(227.75,-81.25,1.51));
#1831=CARTESIAN_POINT('Origin',(219.992526489471,-81.25,1.51));
#1832=CARTESIAN_POINT('',(219.992526489471,-81.25,-11.49));
#1833=CARTESIAN_POINT('',(219.992526489471,-81.25,-11.49));
#1834=CARTESIAN_POINT('',(219.992526489471,-81.25,1.51));
#1835=CARTESIAN_POINT('Origin',(219.992526489471,-74.6025471822427,1.51));
#1836=CARTESIAN_POINT('',(219.992526489471,-74.6025471822427,-11.49));
#1837=CARTESIAN_POINT('',(219.992526489471,-74.6025471822427,-11.49));
#1838=CARTESIAN_POINT('',(219.992526489471,-74.6025471822427,1.51));
#1839=CARTESIAN_POINT('Origin',(199.800397601406,-74.6025471822427,1.51));
#1840=CARTESIAN_POINT('',(199.800397601406,-74.6025471822427,-11.49));
#1841=CARTESIAN_POINT('',(210.197158860032,-74.6025471822427,-11.49));
#1842=CARTESIAN_POINT('',(199.800397601406,-74.6025471822427,1.51));
#1843=CARTESIAN_POINT('Origin',(199.800397601406,-70.,1.51));
#1844=CARTESIAN_POINT('',(199.800397601406,-70.,-11.49));
#1845=CARTESIAN_POINT('',(199.800397601406,-70.,-11.49));
#1846=CARTESIAN_POINT('',(199.800397601406,-70.,1.51));
#1847=CARTESIAN_POINT('Origin',(110.,-70.,1.51));
#1848=CARTESIAN_POINT('',(110.,-70.,-11.49));
#1849=CARTESIAN_POINT('',(110.,-70.,-11.49));
#1850=CARTESIAN_POINT('',(110.,-70.,1.51));
#1851=CARTESIAN_POINT('Origin',(110.,-74.6025471822427,1.51));
#1852=CARTESIAN_POINT('',(110.,-74.6025471822427,-11.49));
#1853=CARTESIAN_POINT('',(110.,-74.6025471822427,-11.49));
#1854=CARTESIAN_POINT('',(110.,-74.6025471822427,1.51));
#1855=CARTESIAN_POINT('Origin',(90.2958698311676,-74.6025471822427,1.51));
#1856=CARTESIAN_POINT('',(90.2958698311676,-74.6025471822427,-11.49));
#1857=CARTESIAN_POINT('',(100.,-74.6025471822427,-11.49));
#1858=CARTESIAN_POINT('',(90.2958698311676,-74.6025471822427,1.51));
#1859=CARTESIAN_POINT('Origin',(90.2958698311676,-81.25,1.51));
#1860=CARTESIAN_POINT('',(90.2958698311676,-81.25,-11.49));
#1861=CARTESIAN_POINT('',(90.2958698311676,-81.25,-11.49));
#1862=CARTESIAN_POINT('',(90.2958698311676,-81.25,1.51));
#1863=CARTESIAN_POINT('Origin',(82.5,-81.25,1.51));
#1864=CARTESIAN_POINT('',(82.5,-81.25,-11.49));
#1865=CARTESIAN_POINT('',(82.5,-81.25,-11.49));
#1866=CARTESIAN_POINT('',(82.5,-81.25,1.51));
#1867=CARTESIAN_POINT('Origin',(82.5,-89.7766245759779,1.51));
#1868=CARTESIAN_POINT('',(82.5,-89.7766245759779,-11.49));
#1869=CARTESIAN_POINT('',(82.5,-89.7766245759779,-11.49));
#1870=CARTESIAN_POINT('',(82.5,-89.7766245759779,1.51));
#1871=CARTESIAN_POINT('Origin',(80.,-89.7766245759779,1.51));
#1872=CARTESIAN_POINT('',(80.,-89.7766245759779,-11.49));
#1873=CARTESIAN_POINT('',(82.5,-89.7766245759779,-11.49));
#1874=CARTESIAN_POINT('',(80.,-89.7766245759779,1.51));
#1875=CARTESIAN_POINT('Origin',(80.,-95.,1.51));
#1876=CARTESIAN_POINT('',(80.,-95.,-11.49));
#1877=CARTESIAN_POINT('',(80.,-89.7766245759779,-11.49));
#1878=CARTESIAN_POINT('',(80.,-95.,1.51));
#1879=CARTESIAN_POINT('Origin',(75.,-95.,1.51));
#1880=CARTESIAN_POINT('',(75.,-95.,-11.49));
#1881=CARTESIAN_POINT('',(75.,-95.,-11.49));
#1882=CARTESIAN_POINT('',(75.,-95.,1.51));
#1883=CARTESIAN_POINT('Origin',(75.,-140.,1.51));
#1884=CARTESIAN_POINT('',(75.,-140.,-11.49));
#1885=CARTESIAN_POINT('',(75.,-140.,-11.49));
#1886=CARTESIAN_POINT('',(75.,-140.,1.51));
#1887=CARTESIAN_POINT('Origin',(80.,-140.,1.51));
#1888=CARTESIAN_POINT('',(80.,-140.,-11.49));
#1889=CARTESIAN_POINT('',(80.,-140.,-11.49));
#1890=CARTESIAN_POINT('',(80.,-140.,1.51));
#1891=CARTESIAN_POINT('Origin',(80.,-144.571110434615,1.51));
#1892=CARTESIAN_POINT('',(80.,-144.571110434615,-11.49));
#1893=CARTESIAN_POINT('',(80.,-144.571110434615,-11.49));
#1894=CARTESIAN_POINT('',(80.,-144.571110434615,1.51));
#1895=CARTESIAN_POINT('Origin',(83.1299463863417,-144.571110434615,1.51));
#1896=CARTESIAN_POINT('',(83.1299463863417,-144.571110434615,-11.49));
#1897=CARTESIAN_POINT('',(83.1299463863417,-144.571110434615,-11.49));
#1898=CARTESIAN_POINT('',(83.1299463863417,-144.571110434615,1.51));
#1899=CARTESIAN_POINT('Origin',(83.1299463863417,-148.919772777911,1.51));
#1900=CARTESIAN_POINT('',(83.1299463863417,-148.919772777911,-11.49));
#1901=CARTESIAN_POINT('',(83.1299463863417,-148.919772777911,-11.49));
#1902=CARTESIAN_POINT('',(83.1299463863417,-148.919772777911,1.51));
#1903=CARTESIAN_POINT('Origin',(105.,-148.919772777911,1.51));
#1904=CARTESIAN_POINT('',(105.,-148.919772777911,-11.49));
#1905=CARTESIAN_POINT('',(105.,-148.919772777911,-11.49));
#1906=CARTESIAN_POINT('',(105.,-148.919772777911,1.51));
#1907=CARTESIAN_POINT('Origin',(105.,-145.,1.51));
#1908=CARTESIAN_POINT('',(105.,-145.,-11.49));
#1909=CARTESIAN_POINT('',(105.,-148.919772777911,-11.49));
#1910=CARTESIAN_POINT('',(105.,-145.,1.51));
#1911=CARTESIAN_POINT('Origin',(204.960523125342,-145.,1.51));
#1912=CARTESIAN_POINT('',(105.,-145.,-11.49));
#1913=CARTESIAN_POINT('Origin',(155.,-109.459886388955,-11.49));
#1914=UNCERTAINTY_MEASURE_WITH_UNIT(LENGTH_MEASURE(0.01),#1918,
'DISTANCE_ACCURACY_VALUE',
'Maximum model space distance between geometric entities at asserted c
onnectivities');
#1915=UNCERTAINTY_MEASURE_WITH_UNIT(LENGTH_MEASURE(0.01),#1918,
'DISTANCE_ACCURACY_VALUE',
'Maximum model space distance between geometric entities at asserted c
onnectivities');
#1916=(
GEOMETRIC_REPRESENTATION_CONTEXT(3)
GLOBAL_UNCERTAINTY_ASSIGNED_CONTEXT((#1914))
GLOBAL_UNIT_ASSIGNED_CONTEXT((#1918,#1919,#1920))
REPRESENTATION_CONTEXT('','3D')
);
#1917=(
GEOMETRIC_REPRESENTATION_CONTEXT(3)
GLOBAL_UNCERTAINTY_ASSIGNED_CONTEXT((#1915))
GLOBAL_UNIT_ASSIGNED_CONTEXT((#1918,#1919,#1920))
REPRESENTATION_CONTEXT('','3D')
);
#1918=(
LENGTH_UNIT()
NAMED_UNIT(*)
SI_UNIT(.MILLI.,.METRE.)
);
#1919=(
NAMED_UNIT(*)
PLANE_ANGLE_UNIT()
SI_UNIT($,.RADIAN.)
);
#1920=(
NAMED_UNIT(*)
SI_UNIT($,.STERADIAN.)
SOLID_ANGLE_UNIT()
);
#1921=SHAPE_DEFINITION_REPRESENTATION(#1922,#1923);
#1922=PRODUCT_DEFINITION_SHAPE('',$,#1925);
#1923=SHAPE_REPRESENTATION('',(#1226),#1916);
#1924=PRODUCT_DEFINITION_CONTEXT('part definition',#1929,'design');
#1925=PRODUCT_DEFINITION('F1 Blare PCB 1','F1 Blare PCB_Handel',#1926,#1924);
#1926=PRODUCT_DEFINITION_FORMATION('',$,#1931);
#1927=PRODUCT_RELATED_PRODUCT_CATEGORY('F1 Blare PCB_Handel',
'F1 Blare PCB_Handel',(#1931));
#1928=APPLICATION_PROTOCOL_DEFINITION('international standard',
'automotive_design',2009,#1929);
#1929=APPLICATION_CONTEXT(
'Core Data for Automotive Mechanical Design Process');
#1930=PRODUCT_CONTEXT('part definition',#1929,'mechanical');
#1931=PRODUCT('F1 Blare PCB 1','F1 Blare PCB_Handel',
'KiCad electronic assembly',(#1930));
#1932=PRESENTATION_STYLE_ASSIGNMENT((#1933));
#1933=SURFACE_STYLE_USAGE(.BOTH.,#1934);
#1934=SURFACE_SIDE_STYLE('',(#1935));
#1935=SURFACE_STYLE_FILL_AREA(#1936);
#1936=FILL_AREA_STYLE('Steel - Satin',(#1937));
#1937=FILL_AREA_STYLE_COLOUR('Steel - Satin',#1938);
#1938=COLOUR_RGB('Steel - Satin',0.627450980392157,0.627450980392157,0.627450980392157);
ENDSEC;
END-ISO-10303-21;
