ISO-10303-21;
HEADER;
/* Generated by software containing ST-Developer
 * from STEP Tools, Inc. (www.steptools.com) 
 */

FILE_DESCRIPTION(
/* description */ ('KiCad electronic assembly'),
/* implementation_level */ '2;1');

FILE_NAME(
/* name */ 'F1 Blare PCB_Supporter_Wall.step',
/* time_stamp */ '2026-09-10T09:36:24+05:30',
/* author */ (''),
/* organization */ (''),
/* preprocessor_version */ 'ST-DEVELOPER v20.2',
/* originating_system */ 'Autodesk Translation Framework v15.15.0.0',
/* authorisation */ '');

FILE_SCHEMA (('AUTOMOTIVE_DESIGN { 1 0 10303 214 3 1 1 }'));
ENDSEC;

DATA;
#10=MECHANICAL_DESIGN_GEOMETRIC_PRESENTATION_REPRESENTATION('',(#13),#164);
#11=SHAPE_REPRESENTATION_RELATIONSHIP('SRR','None',#170,#12);
#12=ADVANCED_BREP_SHAPE_REPRESENTATION('',(#14),#163);
#13=STYLED_ITEM('',(#179),#14);
#14=MANIFOLD_SOLID_BREP('Body5',#92);
#15=FACE_BOUND('',#32,.T.);
#16=FACE_BOUND('',#35,.T.);
#17=PLANE('',#97);
#18=PLANE('',#101);
#19=PLANE('',#105);
#20=PLANE('',#106);
#21=FACE_OUTER_BOUND('',#28,.T.);
#22=FACE_OUTER_BOUND('',#29,.T.);
#23=FACE_OUTER_BOUND('',#30,.T.);
#24=FACE_OUTER_BOUND('',#31,.T.);
#25=FACE_OUTER_BOUND('',#33,.T.);
#26=FACE_OUTER_BOUND('',#34,.T.);
#27=FACE_OUTER_BOUND('',#36,.T.);
#28=EDGE_LOOP('',(#64,#65,#66,#67));
#29=EDGE_LOOP('',(#68));
#30=EDGE_LOOP('',(#69,#70,#71,#72));
#31=EDGE_LOOP('',(#73));
#32=EDGE_LOOP('',(#74));
#33=EDGE_LOOP('',(#75,#76,#77,#78));
#34=EDGE_LOOP('',(#79));
#35=EDGE_LOOP('',(#80));
#36=EDGE_LOOP('',(#81));
#37=LINE('',#143,#40);
#38=LINE('',#150,#41);
#39=LINE('',#157,#42);
#40=VECTOR('',#113,2.85422084646585);
#41=VECTOR('',#122,7.27642107721472);
#42=VECTOR('',#131,10.9933100107321);
#43=CIRCLE('',#95,2.85422084646585);
#44=CIRCLE('',#96,2.85422084646585);
#45=CIRCLE('',#99,7.27642107721472);
#46=CIRCLE('',#100,7.27642107721472);
#47=CIRCLE('',#103,10.9933100107321);
#48=CIRCLE('',#104,10.9933100107321);
#49=VERTEX_POINT('',#140);
#50=VERTEX_POINT('',#142);
#51=VERTEX_POINT('',#147);
#52=VERTEX_POINT('',#149);
#53=VERTEX_POINT('',#154);
#54=VERTEX_POINT('',#156);
#55=EDGE_CURVE('',#49,#49,#43,.T.);
#56=EDGE_CURVE('',#49,#50,#37,.T.);
#57=EDGE_CURVE('',#50,#50,#44,.T.);
#58=EDGE_CURVE('',#51,#51,#45,.T.);
#59=EDGE_CURVE('',#51,#52,#38,.T.);
#60=EDGE_CURVE('',#52,#52,#46,.T.);
#61=EDGE_CURVE('',#53,#53,#47,.T.);
#62=EDGE_CURVE('',#53,#54,#39,.T.);
#63=EDGE_CURVE('',#54,#54,#48,.T.);
#64=ORIENTED_EDGE('',*,*,#55,.F.);
#65=ORIENTED_EDGE('',*,*,#56,.T.);
#66=ORIENTED_EDGE('',*,*,#57,.T.);
#67=ORIENTED_EDGE('',*,*,#56,.F.);
#68=ORIENTED_EDGE('',*,*,#57,.F.);
#69=ORIENTED_EDGE('',*,*,#58,.F.);
#70=ORIENTED_EDGE('',*,*,#59,.T.);
#71=ORIENTED_EDGE('',*,*,#60,.F.);
#72=ORIENTED_EDGE('',*,*,#59,.F.);
#73=ORIENTED_EDGE('',*,*,#58,.T.);
#74=ORIENTED_EDGE('',*,*,#55,.T.);
#75=ORIENTED_EDGE('',*,*,#61,.F.);
#76=ORIENTED_EDGE('',*,*,#62,.T.);
#77=ORIENTED_EDGE('',*,*,#63,.T.);
#78=ORIENTED_EDGE('',*,*,#62,.F.);
#79=ORIENTED_EDGE('',*,*,#61,.T.);
#80=ORIENTED_EDGE('',*,*,#60,.T.);
#81=ORIENTED_EDGE('',*,*,#63,.F.);
#82=CYLINDRICAL_SURFACE('',#94,2.85422084646585);
#83=CYLINDRICAL_SURFACE('',#98,7.27642107721472);
#84=CYLINDRICAL_SURFACE('',#102,10.9933100107321);
#85=ADVANCED_FACE('',(#21),#82,.F.);
#86=ADVANCED_FACE('',(#22),#17,.T.);
#87=ADVANCED_FACE('',(#23),#83,.T.);
#88=ADVANCED_FACE('',(#24,#15),#18,.T.);
#89=ADVANCED_FACE('',(#25),#84,.T.);
#90=ADVANCED_FACE('',(#26,#16),#19,.T.);
#91=ADVANCED_FACE('',(#27),#20,.F.);
#92=CLOSED_SHELL('',(#85,#86,#87,#88,#89,#90,#91));
#93=AXIS2_PLACEMENT_3D('',#138,#107,#108);
#94=AXIS2_PLACEMENT_3D('',#139,#109,#110);
#95=AXIS2_PLACEMENT_3D('',#141,#111,#112);
#96=AXIS2_PLACEMENT_3D('',#144,#114,#115);
#97=AXIS2_PLACEMENT_3D('',#145,#116,#117);
#98=AXIS2_PLACEMENT_3D('',#146,#118,#119);
#99=AXIS2_PLACEMENT_3D('',#148,#120,#121);
#100=AXIS2_PLACEMENT_3D('',#151,#123,#124);
#101=AXIS2_PLACEMENT_3D('',#152,#125,#126);
#102=AXIS2_PLACEMENT_3D('',#153,#127,#128);
#103=AXIS2_PLACEMENT_3D('',#155,#129,#130);
#104=AXIS2_PLACEMENT_3D('',#158,#132,#133);
#105=AXIS2_PLACEMENT_3D('',#159,#134,#135);
#106=AXIS2_PLACEMENT_3D('',#160,#136,#137);
#107=DIRECTION('axis',(0.,0.,1.));
#108=DIRECTION('refdir',(1.,0.,0.));
#109=DIRECTION('center_axis',(0.,0.,1.));
#110=DIRECTION('ref_axis',(1.,0.,0.));
#111=DIRECTION('center_axis',(0.,0.,1.));
#112=DIRECTION('ref_axis',(1.,0.,0.));
#113=DIRECTION('',(0.,0.,1.));
#114=DIRECTION('center_axis',(0.,0.,1.));
#115=DIRECTION('ref_axis',(1.,0.,0.));
#116=DIRECTION('center_axis',(0.,0.,-1.));
#117=DIRECTION('ref_axis',(1.,0.,0.));
#118=DIRECTION('center_axis',(0.,0.,-1.));
#119=DIRECTION('ref_axis',(1.,0.,0.));
#120=DIRECTION('center_axis',(0.,0.,-1.));
#121=DIRECTION('ref_axis',(1.,0.,0.));
#122=DIRECTION('',(0.,0.,1.));
#123=DIRECTION('center_axis',(0.,0.,1.));
#124=DIRECTION('ref_axis',(1.,0.,0.));
#125=DIRECTION('center_axis',(0.,0.,-1.));
#126=DIRECTION('ref_axis',(1.,0.,0.));
#127=DIRECTION('center_axis',(0.,0.,-1.));
#128=DIRECTION('ref_axis',(1.,0.,0.));
#129=DIRECTION('center_axis',(0.,0.,-1.));
#130=DIRECTION('ref_axis',(1.,0.,0.));
#131=DIRECTION('',(0.,0.,1.));
#132=DIRECTION('center_axis',(0.,0.,-1.));
#133=DIRECTION('ref_axis',(1.,0.,0.));
#134=DIRECTION('center_axis',(0.,0.,-1.));
#135=DIRECTION('ref_axis',(1.,0.,0.));
#136=DIRECTION('center_axis',(0.,0.,-1.));
#137=DIRECTION('ref_axis',(1.,0.,0.));
#138=CARTESIAN_POINT('',(0.,0.,0.));
#139=CARTESIAN_POINT('Origin',(155.,-110.,-20.49));
#140=CARTESIAN_POINT('',(152.145779153534,-110.,-20.49));
#141=CARTESIAN_POINT('Origin',(155.,-110.,-20.49));
#142=CARTESIAN_POINT('',(152.145779153534,-110.,-15.49));
#143=CARTESIAN_POINT('',(152.145779153534,-110.,-20.49));
#144=CARTESIAN_POINT('Origin',(155.,-110.,-15.49));
#145=CARTESIAN_POINT('Origin',(155.,-110.,-15.49));
#146=CARTESIAN_POINT('Origin',(155.,-110.,-18.49));
#147=CARTESIAN_POINT('',(147.723578922785,-110.,-20.49));
#148=CARTESIAN_POINT('Origin',(155.,-110.,-20.49));
#149=CARTESIAN_POINT('',(147.723578922785,-110.,-18.49));
#150=CARTESIAN_POINT('',(147.723578922785,-110.,-18.49));
#151=CARTESIAN_POINT('Origin',(155.,-110.,-18.49));
#152=CARTESIAN_POINT('Origin',(155.,-110.,-20.49));
#153=CARTESIAN_POINT('Origin',(155.,-110.,-13.49));
#154=CARTESIAN_POINT('',(144.006689989268,-110.,-18.49));
#155=CARTESIAN_POINT('Origin',(155.,-110.,-18.49));
#156=CARTESIAN_POINT('',(144.006689989268,-110.,-13.49));
#157=CARTESIAN_POINT('',(144.006689989268,-110.,-13.49));
#158=CARTESIAN_POINT('Origin',(155.,-110.,-13.49));
#159=CARTESIAN_POINT('Origin',(155.,-110.,-18.49));
#160=CARTESIAN_POINT('Origin',(155.,-110.,-13.49));
#161=UNCERTAINTY_MEASURE_WITH_UNIT(LENGTH_MEASURE(0.01),#165,
'DISTANCE_ACCURACY_VALUE',
'Maximum model space distance between geometric entities at asserted c
onnectivities');
#162=UNCERTAINTY_MEASURE_WITH_UNIT(LENGTH_MEASURE(0.01),#165,
'DISTANCE_ACCURACY_VALUE',
'Maximum model space distance between geometric entities at asserted c
onnectivities');
#163=(
GEOMETRIC_REPRESENTATION_CONTEXT(3)
GLOBAL_UNCERTAINTY_ASSIGNED_CONTEXT((#161))
GLOBAL_UNIT_ASSIGNED_CONTEXT((#165,#166,#167))
REPRESENTATION_CONTEXT('','3D')
);
#164=(
GEOMETRIC_REPRESENTATION_CONTEXT(3)
GLOBAL_UNCERTAINTY_ASSIGNED_CONTEXT((#162))
GLOBAL_UNIT_ASSIGNED_CONTEXT((#165,#166,#167))
REPRESENTATION_CONTEXT('','3D')
);
#165=(
LENGTH_UNIT()
NAMED_UNIT(*)
SI_UNIT(.MILLI.,.METRE.)
);
#166=(
NAMED_UNIT(*)
PLANE_ANGLE_UNIT()
SI_UNIT($,.RADIAN.)
);
#167=(
NAMED_UNIT(*)
SI_UNIT($,.STERADIAN.)
SOLID_ANGLE_UNIT()
);
#168=SHAPE_DEFINITION_REPRESENTATION(#169,#170);
#169=PRODUCT_DEFINITION_SHAPE('',$,#172);
#170=SHAPE_REPRESENTATION('',(#93),#163);
#171=PRODUCT_DEFINITION_CONTEXT('part definition',#176,'design');
#172=PRODUCT_DEFINITION('F1 Blare PCB 1','F1 Blare PCB_Handel',#173,#171);
#173=PRODUCT_DEFINITION_FORMATION('',$,#178);
#174=PRODUCT_RELATED_PRODUCT_CATEGORY('F1 Blare PCB_Handel',
'F1 Blare PCB_Handel',(#178));
#175=APPLICATION_PROTOCOL_DEFINITION('international standard',
'automotive_design',2009,#176);
#176=APPLICATION_CONTEXT(
'Core Data for Automotive Mechanical Design Process');
#177=PRODUCT_CONTEXT('part definition',#176,'mechanical');
#178=PRODUCT('F1 Blare PCB 1','F1 Blare PCB_Handel',
'KiCad electronic assembly',(#177));
#179=PRESENTATION_STYLE_ASSIGNMENT((#180));
#180=SURFACE_STYLE_USAGE(.BOTH.,#181);
#181=SURFACE_SIDE_STYLE('',(#182));
#182=SURFACE_STYLE_FILL_AREA(#183);
#183=FILL_AREA_STYLE('Steel - Satin',(#184));
#184=FILL_AREA_STYLE_COLOUR('Steel - Satin',#185);
#185=COLOUR_RGB('Steel - Satin',0.627450980392157,0.627450980392157,0.627450980392157);
ENDSEC;
END-ISO-10303-21;
