%TF.GenerationSoftware,KiCad,Pcbnew,10.0.5*%
%TF.CreationDate,2026-09-01T17:09:03+05:30*%
%TF.ProjectId,F1 Blare PCB,46312042-6c61-4726-9520-5043422e6b69,rev?*%
%TF.SameCoordinates,Original*%
%TF.FileFunction,Legend,Top*%
%TF.FilePolarity,Positive*%
%FSLAX46Y46*%
G04 Gerber Fmt 4.6, Leading zero omitted, Abs format (unit mm)*
G04 Created by KiCad (PCBNEW 10.0.5) date 2026-09-01 17:09:03*
%MOMM*%
%LPD*%
G01*
G04 APERTURE LIST*
%ADD10C,0.150000*%
%ADD11C,0.106680*%
%ADD12C,0.120000*%
%ADD13C,0.100000*%
%ADD14C,0.127000*%
%ADD15C,0.504000*%
G04 APERTURE END LIST*
D10*
X90488095Y-85804819D02*
X90488095Y-84804819D01*
X90488095Y-85281009D02*
X91059523Y-85281009D01*
X91059523Y-85804819D02*
X91059523Y-84804819D01*
X91440476Y-84804819D02*
X92059523Y-84804819D01*
X92059523Y-84804819D02*
X91726190Y-85185771D01*
X91726190Y-85185771D02*
X91869047Y-85185771D01*
X91869047Y-85185771D02*
X91964285Y-85233390D01*
X91964285Y-85233390D02*
X92011904Y-85281009D01*
X92011904Y-85281009D02*
X92059523Y-85376247D01*
X92059523Y-85376247D02*
X92059523Y-85614342D01*
X92059523Y-85614342D02*
X92011904Y-85709580D01*
X92011904Y-85709580D02*
X91964285Y-85757200D01*
X91964285Y-85757200D02*
X91869047Y-85804819D01*
X91869047Y-85804819D02*
X91583333Y-85804819D01*
X91583333Y-85804819D02*
X91488095Y-85757200D01*
X91488095Y-85757200D02*
X91440476Y-85709580D01*
X202746667Y-92283200D02*
X202889524Y-92330819D01*
X202889524Y-92330819D02*
X203127619Y-92330819D01*
X203127619Y-92330819D02*
X203222857Y-92283200D01*
X203222857Y-92283200D02*
X203270476Y-92235580D01*
X203270476Y-92235580D02*
X203318095Y-92140342D01*
X203318095Y-92140342D02*
X203318095Y-92045104D01*
X203318095Y-92045104D02*
X203270476Y-91949866D01*
X203270476Y-91949866D02*
X203222857Y-91902247D01*
X203222857Y-91902247D02*
X203127619Y-91854628D01*
X203127619Y-91854628D02*
X202937143Y-91807009D01*
X202937143Y-91807009D02*
X202841905Y-91759390D01*
X202841905Y-91759390D02*
X202794286Y-91711771D01*
X202794286Y-91711771D02*
X202746667Y-91616533D01*
X202746667Y-91616533D02*
X202746667Y-91521295D01*
X202746667Y-91521295D02*
X202794286Y-91426057D01*
X202794286Y-91426057D02*
X202841905Y-91378438D01*
X202841905Y-91378438D02*
X202937143Y-91330819D01*
X202937143Y-91330819D02*
X203175238Y-91330819D01*
X203175238Y-91330819D02*
X203318095Y-91378438D01*
X203651429Y-91330819D02*
X203889524Y-92330819D01*
X203889524Y-92330819D02*
X204080000Y-91616533D01*
X204080000Y-91616533D02*
X204270476Y-92330819D01*
X204270476Y-92330819D02*
X204508572Y-91330819D01*
X204794286Y-91330819D02*
X205413333Y-91330819D01*
X205413333Y-91330819D02*
X205080000Y-91711771D01*
X205080000Y-91711771D02*
X205222857Y-91711771D01*
X205222857Y-91711771D02*
X205318095Y-91759390D01*
X205318095Y-91759390D02*
X205365714Y-91807009D01*
X205365714Y-91807009D02*
X205413333Y-91902247D01*
X205413333Y-91902247D02*
X205413333Y-92140342D01*
X205413333Y-92140342D02*
X205365714Y-92235580D01*
X205365714Y-92235580D02*
X205318095Y-92283200D01*
X205318095Y-92283200D02*
X205222857Y-92330819D01*
X205222857Y-92330819D02*
X204937143Y-92330819D01*
X204937143Y-92330819D02*
X204841905Y-92283200D01*
X204841905Y-92283200D02*
X204794286Y-92235580D01*
X218238095Y-128554819D02*
X218238095Y-127554819D01*
X218238095Y-128031009D02*
X218809523Y-128031009D01*
X218809523Y-128554819D02*
X218809523Y-127554819D01*
X219238095Y-127650057D02*
X219285714Y-127602438D01*
X219285714Y-127602438D02*
X219380952Y-127554819D01*
X219380952Y-127554819D02*
X219619047Y-127554819D01*
X219619047Y-127554819D02*
X219714285Y-127602438D01*
X219714285Y-127602438D02*
X219761904Y-127650057D01*
X219761904Y-127650057D02*
X219809523Y-127745295D01*
X219809523Y-127745295D02*
X219809523Y-127840533D01*
X219809523Y-127840533D02*
X219761904Y-127983390D01*
X219761904Y-127983390D02*
X219190476Y-128554819D01*
X219190476Y-128554819D02*
X219809523Y-128554819D01*
X90488095Y-128304819D02*
X90488095Y-127304819D01*
X90488095Y-127781009D02*
X91059523Y-127781009D01*
X91059523Y-128304819D02*
X91059523Y-127304819D01*
X91964285Y-127638152D02*
X91964285Y-128304819D01*
X91726190Y-127257200D02*
X91488095Y-127971485D01*
X91488095Y-127971485D02*
X92107142Y-127971485D01*
X189496666Y-95654819D02*
X189496666Y-96369104D01*
X189496666Y-96369104D02*
X189449047Y-96511961D01*
X189449047Y-96511961D02*
X189353809Y-96607200D01*
X189353809Y-96607200D02*
X189210952Y-96654819D01*
X189210952Y-96654819D02*
X189115714Y-96654819D01*
X190496666Y-96654819D02*
X189925238Y-96654819D01*
X190210952Y-96654819D02*
X190210952Y-95654819D01*
X190210952Y-95654819D02*
X190115714Y-95797676D01*
X190115714Y-95797676D02*
X190020476Y-95892914D01*
X190020476Y-95892914D02*
X189925238Y-95940533D01*
X103876667Y-92113200D02*
X104019524Y-92160819D01*
X104019524Y-92160819D02*
X104257619Y-92160819D01*
X104257619Y-92160819D02*
X104352857Y-92113200D01*
X104352857Y-92113200D02*
X104400476Y-92065580D01*
X104400476Y-92065580D02*
X104448095Y-91970342D01*
X104448095Y-91970342D02*
X104448095Y-91875104D01*
X104448095Y-91875104D02*
X104400476Y-91779866D01*
X104400476Y-91779866D02*
X104352857Y-91732247D01*
X104352857Y-91732247D02*
X104257619Y-91684628D01*
X104257619Y-91684628D02*
X104067143Y-91637009D01*
X104067143Y-91637009D02*
X103971905Y-91589390D01*
X103971905Y-91589390D02*
X103924286Y-91541771D01*
X103924286Y-91541771D02*
X103876667Y-91446533D01*
X103876667Y-91446533D02*
X103876667Y-91351295D01*
X103876667Y-91351295D02*
X103924286Y-91256057D01*
X103924286Y-91256057D02*
X103971905Y-91208438D01*
X103971905Y-91208438D02*
X104067143Y-91160819D01*
X104067143Y-91160819D02*
X104305238Y-91160819D01*
X104305238Y-91160819D02*
X104448095Y-91208438D01*
X104781429Y-91160819D02*
X105019524Y-92160819D01*
X105019524Y-92160819D02*
X105210000Y-91446533D01*
X105210000Y-91446533D02*
X105400476Y-92160819D01*
X105400476Y-92160819D02*
X105638572Y-91160819D01*
X106543333Y-92160819D02*
X105971905Y-92160819D01*
X106257619Y-92160819D02*
X106257619Y-91160819D01*
X106257619Y-91160819D02*
X106162381Y-91303676D01*
X106162381Y-91303676D02*
X106067143Y-91398914D01*
X106067143Y-91398914D02*
X105971905Y-91446533D01*
X103876667Y-111113200D02*
X104019524Y-111160819D01*
X104019524Y-111160819D02*
X104257619Y-111160819D01*
X104257619Y-111160819D02*
X104352857Y-111113200D01*
X104352857Y-111113200D02*
X104400476Y-111065580D01*
X104400476Y-111065580D02*
X104448095Y-110970342D01*
X104448095Y-110970342D02*
X104448095Y-110875104D01*
X104448095Y-110875104D02*
X104400476Y-110779866D01*
X104400476Y-110779866D02*
X104352857Y-110732247D01*
X104352857Y-110732247D02*
X104257619Y-110684628D01*
X104257619Y-110684628D02*
X104067143Y-110637009D01*
X104067143Y-110637009D02*
X103971905Y-110589390D01*
X103971905Y-110589390D02*
X103924286Y-110541771D01*
X103924286Y-110541771D02*
X103876667Y-110446533D01*
X103876667Y-110446533D02*
X103876667Y-110351295D01*
X103876667Y-110351295D02*
X103924286Y-110256057D01*
X103924286Y-110256057D02*
X103971905Y-110208438D01*
X103971905Y-110208438D02*
X104067143Y-110160819D01*
X104067143Y-110160819D02*
X104305238Y-110160819D01*
X104305238Y-110160819D02*
X104448095Y-110208438D01*
X104781429Y-110160819D02*
X105019524Y-111160819D01*
X105019524Y-111160819D02*
X105210000Y-110446533D01*
X105210000Y-110446533D02*
X105400476Y-111160819D01*
X105400476Y-111160819D02*
X105638572Y-110160819D01*
X105971905Y-110256057D02*
X106019524Y-110208438D01*
X106019524Y-110208438D02*
X106114762Y-110160819D01*
X106114762Y-110160819D02*
X106352857Y-110160819D01*
X106352857Y-110160819D02*
X106448095Y-110208438D01*
X106448095Y-110208438D02*
X106495714Y-110256057D01*
X106495714Y-110256057D02*
X106543333Y-110351295D01*
X106543333Y-110351295D02*
X106543333Y-110446533D01*
X106543333Y-110446533D02*
X106495714Y-110589390D01*
X106495714Y-110589390D02*
X105924286Y-111160819D01*
X105924286Y-111160819D02*
X106543333Y-111160819D01*
X218238095Y-86304819D02*
X218238095Y-85304819D01*
X218238095Y-85781009D02*
X218809523Y-85781009D01*
X218809523Y-86304819D02*
X218809523Y-85304819D01*
X219809523Y-86304819D02*
X219238095Y-86304819D01*
X219523809Y-86304819D02*
X219523809Y-85304819D01*
X219523809Y-85304819D02*
X219428571Y-85447676D01*
X219428571Y-85447676D02*
X219333333Y-85542914D01*
X219333333Y-85542914D02*
X219238095Y-85590533D01*
X202746667Y-111283200D02*
X202889524Y-111330819D01*
X202889524Y-111330819D02*
X203127619Y-111330819D01*
X203127619Y-111330819D02*
X203222857Y-111283200D01*
X203222857Y-111283200D02*
X203270476Y-111235580D01*
X203270476Y-111235580D02*
X203318095Y-111140342D01*
X203318095Y-111140342D02*
X203318095Y-111045104D01*
X203318095Y-111045104D02*
X203270476Y-110949866D01*
X203270476Y-110949866D02*
X203222857Y-110902247D01*
X203222857Y-110902247D02*
X203127619Y-110854628D01*
X203127619Y-110854628D02*
X202937143Y-110807009D01*
X202937143Y-110807009D02*
X202841905Y-110759390D01*
X202841905Y-110759390D02*
X202794286Y-110711771D01*
X202794286Y-110711771D02*
X202746667Y-110616533D01*
X202746667Y-110616533D02*
X202746667Y-110521295D01*
X202746667Y-110521295D02*
X202794286Y-110426057D01*
X202794286Y-110426057D02*
X202841905Y-110378438D01*
X202841905Y-110378438D02*
X202937143Y-110330819D01*
X202937143Y-110330819D02*
X203175238Y-110330819D01*
X203175238Y-110330819D02*
X203318095Y-110378438D01*
X203651429Y-110330819D02*
X203889524Y-111330819D01*
X203889524Y-111330819D02*
X204080000Y-110616533D01*
X204080000Y-110616533D02*
X204270476Y-111330819D01*
X204270476Y-111330819D02*
X204508572Y-110330819D01*
X205318095Y-110664152D02*
X205318095Y-111330819D01*
X205080000Y-110283200D02*
X204841905Y-110997485D01*
X204841905Y-110997485D02*
X205460952Y-110997485D01*
D11*
X167037950Y-86460641D02*
X167037950Y-87093948D01*
X167037950Y-87093948D02*
X167075204Y-87168454D01*
X167075204Y-87168454D02*
X167112457Y-87205708D01*
X167112457Y-87205708D02*
X167186964Y-87242961D01*
X167186964Y-87242961D02*
X167335977Y-87242961D01*
X167335977Y-87242961D02*
X167410484Y-87205708D01*
X167410484Y-87205708D02*
X167447737Y-87168454D01*
X167447737Y-87168454D02*
X167484990Y-87093948D01*
X167484990Y-87093948D02*
X167484990Y-86460641D01*
X168267310Y-87242961D02*
X167820270Y-87242961D01*
X168043790Y-87242961D02*
X168043790Y-86460641D01*
X168043790Y-86460641D02*
X167969283Y-86572401D01*
X167969283Y-86572401D02*
X167894777Y-86646908D01*
X167894777Y-86646908D02*
X167820270Y-86684161D01*
%TO.C,SW3*%
D12*
X211065000Y-106735000D02*
X197095000Y-106735000D01*
X211065000Y-92765000D02*
X211065000Y-106735000D01*
X197095000Y-106735000D02*
X197095000Y-92765000D01*
X197095000Y-92765000D02*
X211065000Y-92765000D01*
%TO.C,J1*%
X188500000Y-118080000D02*
X191160000Y-118080000D01*
X188500000Y-100240000D02*
X188500000Y-118080000D01*
X188500000Y-100240000D02*
X191160000Y-100240000D01*
X191160000Y-100240000D02*
X191160000Y-118080000D01*
X189830000Y-97640000D02*
X191160000Y-97640000D01*
X191160000Y-97640000D02*
X191160000Y-98970000D01*
%TO.C,SW1*%
X98225000Y-92595000D02*
X112195000Y-92595000D01*
X98225000Y-106565000D02*
X98225000Y-92595000D01*
X112195000Y-92595000D02*
X112195000Y-106565000D01*
X112195000Y-106565000D02*
X98225000Y-106565000D01*
%TO.C,SW2*%
X98225000Y-111595000D02*
X112195000Y-111595000D01*
X98225000Y-125565000D02*
X98225000Y-111595000D01*
X112195000Y-111595000D02*
X112195000Y-125565000D01*
X112195000Y-125565000D02*
X98225000Y-125565000D01*
%TO.C,SW4*%
X197095000Y-111765000D02*
X211065000Y-111765000D01*
X197095000Y-125735000D02*
X197095000Y-111765000D01*
X211065000Y-111765000D02*
X211065000Y-125735000D01*
X211065000Y-125735000D02*
X197095000Y-125735000D01*
%TO.C,U1*%
D13*
X159669500Y-106693250D02*
X159669500Y-89548250D01*
X161574500Y-108598250D02*
X175544500Y-108598250D01*
D14*
X164064500Y-87643250D02*
X164068228Y-86632978D01*
X164568228Y-86133250D02*
X172563500Y-86133250D01*
X173063500Y-86633250D02*
X173063500Y-87643250D01*
D13*
X175544500Y-87643250D02*
X161574500Y-87643250D01*
X177449500Y-106693250D02*
X177449500Y-89548250D01*
X159669500Y-89544250D02*
G75*
G02*
X161574500Y-87639250I1905001J-1D01*
G01*
X161574500Y-108598250D02*
G75*
G02*
X159669500Y-106693250I0J1905000D01*
G01*
D14*
X164068228Y-86632978D02*
G75*
G02*
X164568228Y-86133248I500022J-292D01*
G01*
X172563500Y-86133250D02*
G75*
G02*
X173063500Y-86633250I0J-500000D01*
G01*
D13*
X175544500Y-87643250D02*
G75*
G02*
X177449500Y-89548250I0J-1905000D01*
G01*
X177449500Y-106693250D02*
G75*
G02*
X175544500Y-108598250I-1905000J0D01*
G01*
D15*
X159711500Y-88059250D02*
G75*
G02*
X159207500Y-88059250I-252000J0D01*
G01*
X159207500Y-88059250D02*
G75*
G02*
X159711500Y-88059250I252000J0D01*
G01*
X160854500Y-88939250D02*
G75*
G02*
X160350500Y-88939250I-252000J0D01*
G01*
X160350500Y-88939250D02*
G75*
G02*
X160854500Y-88939250I252000J0D01*
G01*
%TD*%
M02*
