%TF.GenerationSoftware,KiCad,Pcbnew,10.0.5*%
%TF.CreationDate,2026-08-31T19:22:05+05:30*%
%TF.ProjectId,F1 Blare PCB,46312042-6c61-4726-9520-5043422e6b69,rev?*%
%TF.SameCoordinates,Original*%
%TF.FileFunction,Legend,Top*%
%TF.FilePolarity,Positive*%
%FSLAX46Y46*%
G04 Gerber Fmt 4.6, Leading zero omitted, Abs format (unit mm)*
G04 Created by KiCad (PCBNEW 10.0.5) date 2026-08-31 19:22:05*
%MOMM*%
%LPD*%
G01*
G04 APERTURE LIST*
%ADD10C,0.150000*%
%ADD11C,0.106680*%
%ADD12C,0.100000*%
%ADD13C,0.127000*%
%ADD14C,0.504000*%
%ADD15C,0.120000*%
G04 APERTURE END LIST*
D10*
X169738095Y-81304819D02*
X169738095Y-80304819D01*
X169738095Y-80781009D02*
X170309523Y-80781009D01*
X170309523Y-81304819D02*
X170309523Y-80304819D01*
X171309523Y-81304819D02*
X170738095Y-81304819D01*
X171023809Y-81304819D02*
X171023809Y-80304819D01*
X171023809Y-80304819D02*
X170928571Y-80447676D01*
X170928571Y-80447676D02*
X170833333Y-80542914D01*
X170833333Y-80542914D02*
X170738095Y-80590533D01*
X103238095Y-81304819D02*
X103238095Y-80304819D01*
X103238095Y-80781009D02*
X103809523Y-80781009D01*
X103809523Y-81304819D02*
X103809523Y-80304819D01*
X104190476Y-80304819D02*
X104809523Y-80304819D01*
X104809523Y-80304819D02*
X104476190Y-80685771D01*
X104476190Y-80685771D02*
X104619047Y-80685771D01*
X104619047Y-80685771D02*
X104714285Y-80733390D01*
X104714285Y-80733390D02*
X104761904Y-80781009D01*
X104761904Y-80781009D02*
X104809523Y-80876247D01*
X104809523Y-80876247D02*
X104809523Y-81114342D01*
X104809523Y-81114342D02*
X104761904Y-81209580D01*
X104761904Y-81209580D02*
X104714285Y-81257200D01*
X104714285Y-81257200D02*
X104619047Y-81304819D01*
X104619047Y-81304819D02*
X104333333Y-81304819D01*
X104333333Y-81304819D02*
X104238095Y-81257200D01*
X104238095Y-81257200D02*
X104190476Y-81209580D01*
D11*
X139037950Y-85960641D02*
X139037950Y-86593948D01*
X139037950Y-86593948D02*
X139075204Y-86668454D01*
X139075204Y-86668454D02*
X139112457Y-86705708D01*
X139112457Y-86705708D02*
X139186964Y-86742961D01*
X139186964Y-86742961D02*
X139335977Y-86742961D01*
X139335977Y-86742961D02*
X139410484Y-86705708D01*
X139410484Y-86705708D02*
X139447737Y-86668454D01*
X139447737Y-86668454D02*
X139484990Y-86593948D01*
X139484990Y-86593948D02*
X139484990Y-85960641D01*
X140267310Y-86742961D02*
X139820270Y-86742961D01*
X140043790Y-86742961D02*
X140043790Y-85960641D01*
X140043790Y-85960641D02*
X139969283Y-86072401D01*
X139969283Y-86072401D02*
X139894777Y-86146908D01*
X139894777Y-86146908D02*
X139820270Y-86184161D01*
D10*
X160666667Y-109533200D02*
X160809524Y-109580819D01*
X160809524Y-109580819D02*
X161047619Y-109580819D01*
X161047619Y-109580819D02*
X161142857Y-109533200D01*
X161142857Y-109533200D02*
X161190476Y-109485580D01*
X161190476Y-109485580D02*
X161238095Y-109390342D01*
X161238095Y-109390342D02*
X161238095Y-109295104D01*
X161238095Y-109295104D02*
X161190476Y-109199866D01*
X161190476Y-109199866D02*
X161142857Y-109152247D01*
X161142857Y-109152247D02*
X161047619Y-109104628D01*
X161047619Y-109104628D02*
X160857143Y-109057009D01*
X160857143Y-109057009D02*
X160761905Y-109009390D01*
X160761905Y-109009390D02*
X160714286Y-108961771D01*
X160714286Y-108961771D02*
X160666667Y-108866533D01*
X160666667Y-108866533D02*
X160666667Y-108771295D01*
X160666667Y-108771295D02*
X160714286Y-108676057D01*
X160714286Y-108676057D02*
X160761905Y-108628438D01*
X160761905Y-108628438D02*
X160857143Y-108580819D01*
X160857143Y-108580819D02*
X161095238Y-108580819D01*
X161095238Y-108580819D02*
X161238095Y-108628438D01*
X161571429Y-108580819D02*
X161809524Y-109580819D01*
X161809524Y-109580819D02*
X162000000Y-108866533D01*
X162000000Y-108866533D02*
X162190476Y-109580819D01*
X162190476Y-109580819D02*
X162428572Y-108580819D01*
X163238095Y-108914152D02*
X163238095Y-109580819D01*
X163000000Y-108533200D02*
X162761905Y-109247485D01*
X162761905Y-109247485D02*
X163380952Y-109247485D01*
X117086667Y-110033200D02*
X117229524Y-110080819D01*
X117229524Y-110080819D02*
X117467619Y-110080819D01*
X117467619Y-110080819D02*
X117562857Y-110033200D01*
X117562857Y-110033200D02*
X117610476Y-109985580D01*
X117610476Y-109985580D02*
X117658095Y-109890342D01*
X117658095Y-109890342D02*
X117658095Y-109795104D01*
X117658095Y-109795104D02*
X117610476Y-109699866D01*
X117610476Y-109699866D02*
X117562857Y-109652247D01*
X117562857Y-109652247D02*
X117467619Y-109604628D01*
X117467619Y-109604628D02*
X117277143Y-109557009D01*
X117277143Y-109557009D02*
X117181905Y-109509390D01*
X117181905Y-109509390D02*
X117134286Y-109461771D01*
X117134286Y-109461771D02*
X117086667Y-109366533D01*
X117086667Y-109366533D02*
X117086667Y-109271295D01*
X117086667Y-109271295D02*
X117134286Y-109176057D01*
X117134286Y-109176057D02*
X117181905Y-109128438D01*
X117181905Y-109128438D02*
X117277143Y-109080819D01*
X117277143Y-109080819D02*
X117515238Y-109080819D01*
X117515238Y-109080819D02*
X117658095Y-109128438D01*
X117991429Y-109080819D02*
X118229524Y-110080819D01*
X118229524Y-110080819D02*
X118420000Y-109366533D01*
X118420000Y-109366533D02*
X118610476Y-110080819D01*
X118610476Y-110080819D02*
X118848572Y-109080819D01*
X119181905Y-109176057D02*
X119229524Y-109128438D01*
X119229524Y-109128438D02*
X119324762Y-109080819D01*
X119324762Y-109080819D02*
X119562857Y-109080819D01*
X119562857Y-109080819D02*
X119658095Y-109128438D01*
X119658095Y-109128438D02*
X119705714Y-109176057D01*
X119705714Y-109176057D02*
X119753333Y-109271295D01*
X119753333Y-109271295D02*
X119753333Y-109366533D01*
X119753333Y-109366533D02*
X119705714Y-109509390D01*
X119705714Y-109509390D02*
X119134286Y-110080819D01*
X119134286Y-110080819D02*
X119753333Y-110080819D01*
X152304819Y-111833333D02*
X153019104Y-111833333D01*
X153019104Y-111833333D02*
X153161961Y-111880952D01*
X153161961Y-111880952D02*
X153257200Y-111976190D01*
X153257200Y-111976190D02*
X153304819Y-112119047D01*
X153304819Y-112119047D02*
X153304819Y-112214285D01*
X153304819Y-110833333D02*
X153304819Y-111404761D01*
X153304819Y-111119047D02*
X152304819Y-111119047D01*
X152304819Y-111119047D02*
X152447676Y-111214285D01*
X152447676Y-111214285D02*
X152542914Y-111309523D01*
X152542914Y-111309523D02*
X152590533Y-111404761D01*
X160666667Y-90533200D02*
X160809524Y-90580819D01*
X160809524Y-90580819D02*
X161047619Y-90580819D01*
X161047619Y-90580819D02*
X161142857Y-90533200D01*
X161142857Y-90533200D02*
X161190476Y-90485580D01*
X161190476Y-90485580D02*
X161238095Y-90390342D01*
X161238095Y-90390342D02*
X161238095Y-90295104D01*
X161238095Y-90295104D02*
X161190476Y-90199866D01*
X161190476Y-90199866D02*
X161142857Y-90152247D01*
X161142857Y-90152247D02*
X161047619Y-90104628D01*
X161047619Y-90104628D02*
X160857143Y-90057009D01*
X160857143Y-90057009D02*
X160761905Y-90009390D01*
X160761905Y-90009390D02*
X160714286Y-89961771D01*
X160714286Y-89961771D02*
X160666667Y-89866533D01*
X160666667Y-89866533D02*
X160666667Y-89771295D01*
X160666667Y-89771295D02*
X160714286Y-89676057D01*
X160714286Y-89676057D02*
X160761905Y-89628438D01*
X160761905Y-89628438D02*
X160857143Y-89580819D01*
X160857143Y-89580819D02*
X161095238Y-89580819D01*
X161095238Y-89580819D02*
X161238095Y-89628438D01*
X161571429Y-89580819D02*
X161809524Y-90580819D01*
X161809524Y-90580819D02*
X162000000Y-89866533D01*
X162000000Y-89866533D02*
X162190476Y-90580819D01*
X162190476Y-90580819D02*
X162428572Y-89580819D01*
X162714286Y-89580819D02*
X163333333Y-89580819D01*
X163333333Y-89580819D02*
X163000000Y-89961771D01*
X163000000Y-89961771D02*
X163142857Y-89961771D01*
X163142857Y-89961771D02*
X163238095Y-90009390D01*
X163238095Y-90009390D02*
X163285714Y-90057009D01*
X163285714Y-90057009D02*
X163333333Y-90152247D01*
X163333333Y-90152247D02*
X163333333Y-90390342D01*
X163333333Y-90390342D02*
X163285714Y-90485580D01*
X163285714Y-90485580D02*
X163238095Y-90533200D01*
X163238095Y-90533200D02*
X163142857Y-90580819D01*
X163142857Y-90580819D02*
X162857143Y-90580819D01*
X162857143Y-90580819D02*
X162761905Y-90533200D01*
X162761905Y-90533200D02*
X162714286Y-90485580D01*
X117086667Y-91033200D02*
X117229524Y-91080819D01*
X117229524Y-91080819D02*
X117467619Y-91080819D01*
X117467619Y-91080819D02*
X117562857Y-91033200D01*
X117562857Y-91033200D02*
X117610476Y-90985580D01*
X117610476Y-90985580D02*
X117658095Y-90890342D01*
X117658095Y-90890342D02*
X117658095Y-90795104D01*
X117658095Y-90795104D02*
X117610476Y-90699866D01*
X117610476Y-90699866D02*
X117562857Y-90652247D01*
X117562857Y-90652247D02*
X117467619Y-90604628D01*
X117467619Y-90604628D02*
X117277143Y-90557009D01*
X117277143Y-90557009D02*
X117181905Y-90509390D01*
X117181905Y-90509390D02*
X117134286Y-90461771D01*
X117134286Y-90461771D02*
X117086667Y-90366533D01*
X117086667Y-90366533D02*
X117086667Y-90271295D01*
X117086667Y-90271295D02*
X117134286Y-90176057D01*
X117134286Y-90176057D02*
X117181905Y-90128438D01*
X117181905Y-90128438D02*
X117277143Y-90080819D01*
X117277143Y-90080819D02*
X117515238Y-90080819D01*
X117515238Y-90080819D02*
X117658095Y-90128438D01*
X117991429Y-90080819D02*
X118229524Y-91080819D01*
X118229524Y-91080819D02*
X118420000Y-90366533D01*
X118420000Y-90366533D02*
X118610476Y-91080819D01*
X118610476Y-91080819D02*
X118848572Y-90080819D01*
X119753333Y-91080819D02*
X119181905Y-91080819D01*
X119467619Y-91080819D02*
X119467619Y-90080819D01*
X119467619Y-90080819D02*
X119372381Y-90223676D01*
X119372381Y-90223676D02*
X119277143Y-90318914D01*
X119277143Y-90318914D02*
X119181905Y-90366533D01*
X169738095Y-126804819D02*
X169738095Y-125804819D01*
X169738095Y-126281009D02*
X170309523Y-126281009D01*
X170309523Y-126804819D02*
X170309523Y-125804819D01*
X170738095Y-125900057D02*
X170785714Y-125852438D01*
X170785714Y-125852438D02*
X170880952Y-125804819D01*
X170880952Y-125804819D02*
X171119047Y-125804819D01*
X171119047Y-125804819D02*
X171214285Y-125852438D01*
X171214285Y-125852438D02*
X171261904Y-125900057D01*
X171261904Y-125900057D02*
X171309523Y-125995295D01*
X171309523Y-125995295D02*
X171309523Y-126090533D01*
X171309523Y-126090533D02*
X171261904Y-126233390D01*
X171261904Y-126233390D02*
X170690476Y-126804819D01*
X170690476Y-126804819D02*
X171309523Y-126804819D01*
X102738095Y-126804819D02*
X102738095Y-125804819D01*
X102738095Y-126281009D02*
X103309523Y-126281009D01*
X103309523Y-126804819D02*
X103309523Y-125804819D01*
X104214285Y-126138152D02*
X104214285Y-126804819D01*
X103976190Y-125757200D02*
X103738095Y-126471485D01*
X103738095Y-126471485D02*
X104357142Y-126471485D01*
%TO.C,U1*%
D12*
X131669500Y-106193250D02*
X131669500Y-89048250D01*
X133574500Y-108098250D02*
X147544500Y-108098250D01*
D13*
X136064500Y-87143250D02*
X136068228Y-86132978D01*
X136568228Y-85633250D02*
X144563500Y-85633250D01*
X145063500Y-86133250D02*
X145063500Y-87143250D01*
D12*
X147544500Y-87143250D02*
X133574500Y-87143250D01*
X149449500Y-106193250D02*
X149449500Y-89048250D01*
X131669500Y-89044250D02*
G75*
G02*
X133574500Y-87139250I1905001J-1D01*
G01*
X133574500Y-108098250D02*
G75*
G02*
X131669500Y-106193250I0J1905000D01*
G01*
D13*
X136068228Y-86132978D02*
G75*
G02*
X136568228Y-85633248I500022J-292D01*
G01*
X144563500Y-85633250D02*
G75*
G02*
X145063500Y-86133250I0J-500000D01*
G01*
D12*
X147544500Y-87143250D02*
G75*
G02*
X149449500Y-89048250I0J-1905000D01*
G01*
X149449500Y-106193250D02*
G75*
G02*
X147544500Y-108098250I-1905000J0D01*
G01*
D14*
X131711500Y-87559250D02*
G75*
G02*
X131207500Y-87559250I-252000J0D01*
G01*
X131207500Y-87559250D02*
G75*
G02*
X131711500Y-87559250I252000J0D01*
G01*
X132854500Y-88439250D02*
G75*
G02*
X132350500Y-88439250I-252000J0D01*
G01*
X132350500Y-88439250D02*
G75*
G02*
X132854500Y-88439250I252000J0D01*
G01*
%TO.C,SW4*%
D15*
X168985000Y-123985000D02*
X155015000Y-123985000D01*
X168985000Y-110015000D02*
X168985000Y-123985000D01*
X155015000Y-123985000D02*
X155015000Y-110015000D01*
X155015000Y-110015000D02*
X168985000Y-110015000D01*
%TO.C,SW2*%
X125405000Y-124485000D02*
X111435000Y-124485000D01*
X125405000Y-110515000D02*
X125405000Y-124485000D01*
X111435000Y-124485000D02*
X111435000Y-110515000D01*
X111435000Y-110515000D02*
X125405000Y-110515000D01*
%TO.C,J1*%
X130970000Y-110170000D02*
X130970000Y-112830000D01*
X148810000Y-110170000D02*
X130970000Y-110170000D01*
X148810000Y-110170000D02*
X148810000Y-112830000D01*
X148810000Y-112830000D02*
X130970000Y-112830000D01*
X151410000Y-111500000D02*
X151410000Y-112830000D01*
X151410000Y-112830000D02*
X150080000Y-112830000D01*
%TO.C,SW3*%
X168985000Y-104985000D02*
X155015000Y-104985000D01*
X168985000Y-91015000D02*
X168985000Y-104985000D01*
X155015000Y-104985000D02*
X155015000Y-91015000D01*
X155015000Y-91015000D02*
X168985000Y-91015000D01*
%TO.C,SW1*%
X125405000Y-105485000D02*
X111435000Y-105485000D01*
X125405000Y-91515000D02*
X125405000Y-105485000D01*
X111435000Y-105485000D02*
X111435000Y-91515000D01*
X111435000Y-91515000D02*
X125405000Y-91515000D01*
%TD*%
M02*
