%TF.GenerationSoftware,KiCad,Pcbnew,10.0.5*%
%TF.CreationDate,2026-08-31T19:22:05+05:30*%
%TF.ProjectId,F1 Blare PCB,46312042-6c61-4726-9520-5043422e6b69,rev?*%
%TF.SameCoordinates,Original*%
%TF.FileFunction,Soldermask,Top*%
%TF.FilePolarity,Negative*%
%FSLAX46Y46*%
G04 Gerber Fmt 4.6, Leading zero omitted, Abs format (unit mm)*
G04 Created by KiCad (PCBNEW 10.0.5) date 2026-08-31 19:22:05*
%MOMM*%
%LPD*%
G01*
G04 APERTURE LIST*
G04 Aperture macros list*
%AMRoundRect*
0 Rectangle with rounded corners*
0 $1 Rounding radius*
0 $2 $3 $4 $5 $6 $7 $8 $9 X,Y pos of 4 corners*
0 Add a 4 corners polygon primitive as box body*
4,1,4,$2,$3,$4,$5,$6,$7,$8,$9,$2,$3,0*
0 Add four circle primitives for the rounded corners*
1,1,$1+$1,$2,$3*
1,1,$1+$1,$4,$5*
1,1,$1+$1,$6,$7*
1,1,$1+$1,$8,$9*
0 Add four rect primitives between the rounded corners*
20,1,$1+$1,$2,$3,$4,$5,0*
20,1,$1+$1,$4,$5,$6,$7,0*
20,1,$1+$1,$6,$7,$8,$9,0*
20,1,$1+$1,$8,$9,$2,$3,0*%
G04 Aperture macros list end*
%ADD10C,3.200000*%
%ADD11RoundRect,0.550800X-0.875000X-0.500000X0.875000X-0.500000X0.875000X0.500000X-0.875000X0.500000X0*%
%ADD12C,1.700000*%
%ADD13RoundRect,0.275000X0.975000X0.275000X-0.975000X0.275000X-0.975000X-0.275000X0.975000X-0.275000X0*%
%ADD14C,2.200000*%
%ADD15C,4.000000*%
%ADD16R,1.700000X1.700000*%
%ADD17C,2.000000*%
%ADD18R,2.000000X2.000000*%
G04 APERTURE END LIST*
D10*
%TO.C,H1*%
X170500000Y-85000000D03*
%TD*%
%TO.C,H3*%
X104000000Y-85000000D03*
%TD*%
D11*
%TO.C,U1*%
X132504500Y-90060250D03*
X132504500Y-92600250D03*
X132504500Y-95140250D03*
X132504500Y-97680250D03*
X132504500Y-100220250D03*
X132504500Y-102760250D03*
X132504500Y-105300250D03*
X148669500Y-105300250D03*
X148669500Y-102760250D03*
X148669500Y-100220250D03*
X148669500Y-97680250D03*
X148669500Y-95140250D03*
X148669500Y-92600250D03*
X148669500Y-90060250D03*
D12*
X139289500Y-89048250D03*
X141829500Y-89048250D03*
X139289500Y-91588250D03*
X141829500Y-91588250D03*
X139289500Y-94128250D03*
X141829500Y-94128250D03*
D13*
X136114500Y-97298250D03*
X136114500Y-95393250D03*
%TD*%
D14*
%TO.C,SW4*%
X158190000Y-114460000D03*
X164540000Y-111920000D03*
D12*
X167080000Y-117000000D03*
D15*
X162000000Y-117000000D03*
D12*
X156920000Y-117000000D03*
%TD*%
D14*
%TO.C,SW2*%
X114610000Y-114960000D03*
X120960000Y-112420000D03*
D12*
X123500000Y-117500000D03*
D15*
X118420000Y-117500000D03*
D12*
X113340000Y-117500000D03*
%TD*%
D16*
%TO.C,J1*%
X150080000Y-111500000D03*
D12*
X147540000Y-111500000D03*
X145000000Y-111500000D03*
X142460000Y-111500000D03*
X139920000Y-111500000D03*
X137380000Y-111500000D03*
X134840000Y-111500000D03*
X132300000Y-111500000D03*
%TD*%
D14*
%TO.C,SW3*%
X158190000Y-95460000D03*
X164540000Y-92920000D03*
D12*
X167080000Y-98000000D03*
D15*
X162000000Y-98000000D03*
D12*
X156920000Y-98000000D03*
%TD*%
D14*
%TO.C,SW1*%
X114610000Y-95960000D03*
X120960000Y-93420000D03*
D12*
X123500000Y-98500000D03*
D15*
X118420000Y-98500000D03*
D12*
X113340000Y-98500000D03*
%TD*%
D17*
%TO.C,BZ1*%
X137200000Y-122000000D03*
D18*
X144800000Y-122000000D03*
%TD*%
D10*
%TO.C,H2*%
X170500000Y-130500000D03*
%TD*%
%TO.C,H4*%
X103500000Y-130500000D03*
%TD*%
M02*
