%TF.GenerationSoftware,KiCad,Pcbnew,10.0.5*%
%TF.CreationDate,2026-09-01T17:09:03+05:30*%
%TF.ProjectId,F1 Blare PCB,46312042-6c61-4726-9520-5043422e6b69,rev?*%
%TF.SameCoordinates,Original*%
%TF.FileFunction,Legend,Bot*%
%TF.FilePolarity,Positive*%
%FSLAX46Y46*%
G04 Gerber Fmt 4.6, Leading zero omitted, Abs format (unit mm)*
G04 Created by KiCad (PCBNEW 10.0.5) date 2026-09-01 17:09:03*
%MOMM*%
%LPD*%
G01*
G04 APERTURE LIST*
%ADD10C,0.150000*%
%ADD11C,0.120000*%
G04 APERTURE END LIST*
D10*
X143832702Y-120095509D02*
X143689845Y-120143128D01*
X143689845Y-120143128D02*
X143642226Y-120190747D01*
X143642226Y-120190747D02*
X143594607Y-120285985D01*
X143594607Y-120285985D02*
X143594607Y-120428842D01*
X143594607Y-120428842D02*
X143642226Y-120524080D01*
X143642226Y-120524080D02*
X143689845Y-120571700D01*
X143689845Y-120571700D02*
X143785083Y-120619319D01*
X143785083Y-120619319D02*
X144166035Y-120619319D01*
X144166035Y-120619319D02*
X144166035Y-119619319D01*
X144166035Y-119619319D02*
X143832702Y-119619319D01*
X143832702Y-119619319D02*
X143737464Y-119666938D01*
X143737464Y-119666938D02*
X143689845Y-119714557D01*
X143689845Y-119714557D02*
X143642226Y-119809795D01*
X143642226Y-119809795D02*
X143642226Y-119905033D01*
X143642226Y-119905033D02*
X143689845Y-120000271D01*
X143689845Y-120000271D02*
X143737464Y-120047890D01*
X143737464Y-120047890D02*
X143832702Y-120095509D01*
X143832702Y-120095509D02*
X144166035Y-120095509D01*
X143261273Y-119619319D02*
X142594607Y-119619319D01*
X142594607Y-119619319D02*
X143261273Y-120619319D01*
X143261273Y-120619319D02*
X142594607Y-120619319D01*
X141689845Y-120619319D02*
X142261273Y-120619319D01*
X141975559Y-120619319D02*
X141975559Y-119619319D01*
X141975559Y-119619319D02*
X142070797Y-119762176D01*
X142070797Y-119762176D02*
X142166035Y-119857414D01*
X142166035Y-119857414D02*
X142261273Y-119905033D01*
X147142701Y-124898366D02*
X146380797Y-124898366D01*
X146761749Y-125279319D02*
X146761749Y-124517414D01*
%TO.C,BZ1*%
D11*
X149051750Y-127364500D02*
G75*
G02*
X136851750Y-127364500I-6100000J0D01*
G01*
X136851750Y-127364500D02*
G75*
G02*
X149051750Y-127364500I6100000J0D01*
G01*
%TD*%
M02*
