%TF.GenerationSoftware,KiCad,Pcbnew,10.0.5*%
%TF.CreationDate,2026-09-01T17:09:03+05:30*%
%TF.ProjectId,F1 Blare PCB,46312042-6c61-4726-9520-5043422e6b69,rev?*%
%TF.SameCoordinates,Original*%
%TF.FileFunction,Copper,L1,Top*%
%TF.FilePolarity,Positive*%
%FSLAX46Y46*%
G04 Gerber Fmt 4.6, Leading zero omitted, Abs format (unit mm)*
G04 Created by KiCad (PCBNEW 10.0.5) date 2026-09-01 17:09:03*
%MOMM*%
%LPD*%
G01*
G04 APERTURE LIST*
G04 Aperture macros list*
%AMRoundRect*
0 Rectangle with rounded corners*
0 $1 Rounding radius*
0 $2 $3 $4 $5 $6 $7 $8 $9 X,Y pos of 4 corners*
0 Add a 4 corners polygon primitive as box body*
4,1,4,$2,$3,$4,$5,$6,$7,$8,$9,$2,$3,0*
0 Add four circle primitives for the rounded corners*
1,1,$1+$1,$2,$3*
1,1,$1+$1,$4,$5*
1,1,$1+$1,$6,$7*
1,1,$1+$1,$8,$9*
0 Add four rect primitives between the rounded corners*
20,1,$1+$1,$2,$3,$4,$5,0*
20,1,$1+$1,$4,$5,$6,$7,0*
20,1,$1+$1,$6,$7,$8,$9,0*
20,1,$1+$1,$8,$9,$2,$3,0*%
G04 Aperture macros list end*
%ADD10C,0.300000*%
%TA.AperFunction,NonConductor*%
%ADD11C,0.300000*%
%TD*%
%TA.AperFunction,ComponentPad*%
%ADD12C,2.200000*%
%TD*%
%TA.AperFunction,ComponentPad*%
%ADD13R,1.700000X1.700000*%
%TD*%
%TA.AperFunction,ComponentPad*%
%ADD14C,1.700000*%
%TD*%
%TA.AperFunction,SMDPad,CuDef*%
%ADD15RoundRect,0.500000X-0.875000X-0.500000X0.875000X-0.500000X0.875000X0.500000X-0.875000X0.500000X0*%
%TD*%
%TA.AperFunction,SMDPad,CuDef*%
%ADD16C,1.700000*%
%TD*%
%TA.AperFunction,SMDPad,CuDef*%
%ADD17RoundRect,0.275000X0.975000X0.275000X-0.975000X0.275000X-0.975000X-0.275000X0.975000X-0.275000X0*%
%TD*%
%TA.AperFunction,ComponentPad*%
%ADD18R,2.000000X2.000000*%
%TD*%
%TA.AperFunction,ComponentPad*%
%ADD19C,2.000000*%
%TD*%
%TA.AperFunction,Conductor*%
%ADD20C,0.200000*%
%TD*%
G04 APERTURE END LIST*
D10*
D11*
X91399638Y-120516917D02*
X91399638Y-121850251D01*
X93494876Y-121850251D02*
X89494876Y-121850251D01*
X89494876Y-121850251D02*
X89494876Y-119945489D01*
X93494876Y-116326441D02*
X93494876Y-118612156D01*
X93494876Y-117469299D02*
X89494876Y-117469299D01*
X89494876Y-117469299D02*
X90066304Y-117850251D01*
X90066304Y-117850251D02*
X90447257Y-118231203D01*
X90447257Y-118231203D02*
X90637733Y-118612156D01*
X91399638Y-110231203D02*
X91590114Y-109659775D01*
X91590114Y-109659775D02*
X91780590Y-109469298D01*
X91780590Y-109469298D02*
X92161542Y-109278822D01*
X92161542Y-109278822D02*
X92732971Y-109278822D01*
X92732971Y-109278822D02*
X93113923Y-109469298D01*
X93113923Y-109469298D02*
X93304400Y-109659775D01*
X93304400Y-109659775D02*
X93494876Y-110040727D01*
X93494876Y-110040727D02*
X93494876Y-111564537D01*
X93494876Y-111564537D02*
X89494876Y-111564537D01*
X89494876Y-111564537D02*
X89494876Y-110231203D01*
X89494876Y-110231203D02*
X89685352Y-109850251D01*
X89685352Y-109850251D02*
X89875828Y-109659775D01*
X89875828Y-109659775D02*
X90256780Y-109469298D01*
X90256780Y-109469298D02*
X90637733Y-109469298D01*
X90637733Y-109469298D02*
X91018685Y-109659775D01*
X91018685Y-109659775D02*
X91209161Y-109850251D01*
X91209161Y-109850251D02*
X91399638Y-110231203D01*
X91399638Y-110231203D02*
X91399638Y-111564537D01*
X93494876Y-105659775D02*
X93494876Y-107564537D01*
X93494876Y-107564537D02*
X89494876Y-107564537D01*
X92352019Y-104516918D02*
X92352019Y-102612156D01*
X93494876Y-104897870D02*
X89494876Y-103564537D01*
X89494876Y-103564537D02*
X93494876Y-102231203D01*
X93494876Y-98612156D02*
X91590114Y-99945490D01*
X93494876Y-100897871D02*
X89494876Y-100897871D01*
X89494876Y-100897871D02*
X89494876Y-99374061D01*
X89494876Y-99374061D02*
X89685352Y-98993109D01*
X89685352Y-98993109D02*
X89875828Y-98802632D01*
X89875828Y-98802632D02*
X90256780Y-98612156D01*
X90256780Y-98612156D02*
X90828209Y-98612156D01*
X90828209Y-98612156D02*
X91209161Y-98802632D01*
X91209161Y-98802632D02*
X91399638Y-98993109D01*
X91399638Y-98993109D02*
X91590114Y-99374061D01*
X91590114Y-99374061D02*
X91590114Y-100897871D01*
X91399638Y-96897871D02*
X91399638Y-95564537D01*
X93494876Y-94993109D02*
X93494876Y-96897871D01*
X93494876Y-96897871D02*
X89494876Y-96897871D01*
X89494876Y-96897871D02*
X89494876Y-94993109D01*
D12*
%TO.P,SW3,2,2_2*%
%TO.N,Net-(U1-D2)*%
X200270000Y-97210000D03*
%TO.P,SW3,1,1_1*%
%TO.N,GND*%
X206620000Y-94670000D03*
%TD*%
D13*
%TO.P,J1,1,Pin_1_1*%
%TO.N,GND*%
X189830000Y-98970000D03*
D14*
%TO.P,J1,2,Pin_2_2*%
%TO.N,+3V3*%
X189830000Y-101510000D03*
%TO.P,J1,3,Pin_3_3*%
%TO.N,/SDA*%
X189830000Y-104050000D03*
%TO.P,J1,4,Pin_4_4*%
%TO.N,/SCL*%
X189830000Y-106590000D03*
%TO.P,J1,5,Pin_5_5*%
%TO.N,/RST*%
X189830000Y-109130000D03*
%TO.P,J1,6,Pin_6_6*%
%TO.N,/DC*%
X189830000Y-111670000D03*
%TO.P,J1,7,Pin_7_7*%
%TO.N,/CS*%
X189830000Y-114210000D03*
%TO.P,J1,8,Pin_8_8*%
%TO.N,/BL*%
X189830000Y-116750000D03*
%TD*%
D12*
%TO.P,SW1,1,1_1*%
%TO.N,GND*%
X107750000Y-94500000D03*
%TO.P,SW1,2,2_2*%
%TO.N,Net-(U1-D0)*%
X101400000Y-97040000D03*
%TD*%
%TO.P,SW2,1,1_1*%
%TO.N,GND*%
X107750000Y-113500000D03*
%TO.P,SW2,2,2_2*%
%TO.N,Net-(U1-D1)*%
X101400000Y-116040000D03*
%TD*%
%TO.P,SW4,1,1_1*%
%TO.N,GND*%
X206620000Y-113670000D03*
%TO.P,SW4,2,2_2*%
%TO.N,Net-(U1-D3)*%
X200270000Y-116210000D03*
%TD*%
D15*
%TO.P,U1,1,D0_1*%
%TO.N,Net-(U1-D0)*%
X160504500Y-90560250D03*
%TO.P,U1,2,D1_2*%
%TO.N,Net-(U1-D1)*%
X160504500Y-93100250D03*
%TO.P,U1,3,D2_3*%
%TO.N,Net-(U1-D2)*%
X160504500Y-95640250D03*
%TO.P,U1,4,D3_4*%
%TO.N,Net-(U1-D3)*%
X160504500Y-98180250D03*
%TO.P,U1,5,D4_5*%
%TO.N,/DC*%
X160504500Y-100720250D03*
%TO.P,U1,6,D5_6*%
%TO.N,/CS*%
X160504500Y-103260250D03*
%TO.P,U1,7,D6_7*%
%TO.N,/BL*%
X160504500Y-105800250D03*
%TO.P,U1,8,D7_8*%
%TO.N,Net-(BZ1-+)*%
X176669500Y-105800250D03*
%TO.P,U1,9,D8_9*%
%TO.N,/RST*%
X176669500Y-103260250D03*
%TO.P,U1,10,D9/BOOT_10*%
%TO.N,/SCL*%
X176669500Y-100720250D03*
%TO.P,U1,11,D10_11*%
%TO.N,/SDA*%
X176669500Y-98180250D03*
%TO.P,U1,12,3V3_OUT_12*%
%TO.N,+3V3*%
X176669500Y-95640250D03*
%TO.P,U1,13,GND_13*%
%TO.N,GND*%
X176669500Y-93100250D03*
%TO.P,U1,14,VBUS_14*%
%TO.N,unconnected-(U1-VBUS-Pad14)*%
X176669500Y-90560250D03*
D16*
%TO.P,U1,15,D3/MTDI_15*%
%TO.N,unconnected-(U1-D3{slash}MTDI-Pad15)*%
X167289500Y-89548250D03*
%TO.P,U1,16,D5/MTDO_16*%
%TO.N,unconnected-(U1-D5{slash}MTDO-Pad16)*%
X169829500Y-89548250D03*
%TO.P,U1,17,EN_17*%
%TO.N,unconnected-(U1-EN-Pad17)*%
X167289500Y-92088250D03*
%TO.P,U1,18,GND_18*%
%TO.N,GND*%
X169829500Y-92088250D03*
%TO.P,U1,19,D2/MTMS_19*%
%TO.N,unconnected-(U1-D2{slash}MTMS-Pad19)*%
X167289500Y-94628250D03*
%TO.P,U1,20,D4/MTCK_20*%
%TO.N,unconnected-(U1-D4{slash}MTCK-Pad20)*%
X169829500Y-94628250D03*
D17*
%TO.P,U1,21,VBAT_21*%
%TO.N,unconnected-(U1-VBAT-Pad21)*%
X164114500Y-97798250D03*
%TO.P,U1,22,GND_22*%
%TO.N,GND*%
X164114500Y-95893250D03*
%TD*%
D18*
%TO.P,BZ1,1,+_1*%
%TO.N,Net-(BZ1-+)*%
X146751750Y-127364500D03*
D19*
%TO.P,BZ1,2,-_2*%
%TO.N,GND*%
X139151750Y-127364500D03*
%TD*%
%TO.N,Net-(U1-D3)*%
D20*
X144251750Y-129161555D02*
X144251750Y-114433000D01*
X144954693Y-129864499D02*
X144251750Y-129161555D01*
X144251750Y-114433000D02*
X160504500Y-98180250D01*
X179473217Y-129864499D02*
X144954693Y-129864499D01*
X193127716Y-116210000D02*
X179473217Y-129864499D01*
X200270000Y-116210000D02*
X193127716Y-116210000D01*
%TO.N,GND*%
X188756598Y-130750000D02*
X205836598Y-113670000D01*
X205836598Y-113670000D02*
X206620000Y-113670000D01*
X142537250Y-130750000D02*
X188756598Y-130750000D01*
X139151750Y-127364500D02*
X142537250Y-130750000D01*
%TO.N,/CS*%
X145051750Y-118713000D02*
X160504500Y-103260250D01*
X145051750Y-128830185D02*
X145051750Y-118713000D01*
X145286065Y-129064500D02*
X145051750Y-128830185D01*
X148217435Y-129064500D02*
X145286065Y-129064500D01*
X148451750Y-128830185D02*
X148217435Y-129064500D01*
X148451750Y-128164500D02*
X148451750Y-128830185D01*
X155285984Y-128164500D02*
X148451750Y-128164500D01*
X155436607Y-128164505D02*
X155285984Y-128164500D01*
X155436612Y-128164500D02*
X155436607Y-128164505D01*
X155451120Y-128150000D02*
X155436620Y-128164500D01*
X178995685Y-128150000D02*
X155451120Y-128150000D01*
X179395686Y-127750000D02*
X178995685Y-128150000D01*
X190980000Y-117226346D02*
X180456346Y-127750000D01*
X180456346Y-127750000D02*
X179395686Y-127750000D01*
X190980000Y-115360000D02*
X190980000Y-117226346D01*
X155436620Y-128164500D02*
X155436612Y-128164500D01*
X189830000Y-114210000D02*
X190980000Y-115360000D01*
%TO.N,/DC*%
X144651750Y-116573000D02*
X160504500Y-100720250D01*
X144651750Y-128995870D02*
X144651750Y-116573000D01*
X145120379Y-129464500D02*
X144651750Y-128995870D01*
X148383120Y-129464500D02*
X145120379Y-129464500D01*
X148851750Y-128900000D02*
X148851750Y-128995871D01*
X148851750Y-128995871D02*
X148383120Y-129464500D01*
X191380000Y-117392032D02*
X179872031Y-128900000D01*
X191380000Y-113220000D02*
X191380000Y-117392032D01*
X179872031Y-128900000D02*
X148851750Y-128900000D01*
X189830000Y-111670000D02*
X191380000Y-113220000D01*
%TO.N,/BL*%
X145451750Y-120853000D02*
X160504500Y-105800250D01*
X155270935Y-127764500D02*
X148051750Y-127764500D01*
X155285436Y-127750000D02*
X155270935Y-127764500D01*
X148051750Y-128664500D02*
X145451750Y-128664500D01*
X145451750Y-128664500D02*
X145451750Y-120853000D01*
X178830000Y-127750000D02*
X155285436Y-127750000D01*
X148051750Y-127764500D02*
X148051750Y-128664500D01*
X189830000Y-116750000D02*
X178830000Y-127750000D01*
%TO.N,GND*%
X183960250Y-93100250D02*
X189830000Y-98970000D01*
X176669500Y-93100250D02*
X183960250Y-93100250D01*
X170841500Y-93100250D02*
X176669500Y-93100250D01*
X169829500Y-92088250D02*
X170841500Y-93100250D01*
X170250000Y-92250000D02*
X170250000Y-92750000D01*
X170088250Y-92088250D02*
X170250000Y-92250000D01*
X169829500Y-92088250D02*
X170088250Y-92088250D01*
X168439500Y-93478250D02*
X169829500Y-92088250D01*
X166529500Y-93478250D02*
X168439500Y-93478250D01*
X164114500Y-95893250D02*
X166529500Y-93478250D01*
%TO.N,+3V3*%
X181985936Y-95640250D02*
X176669500Y-95640250D01*
X187855686Y-101510000D02*
X181985936Y-95640250D01*
X189830000Y-101510000D02*
X187855686Y-101510000D01*
%TO.N,/SDA*%
X183960250Y-98180250D02*
X176669500Y-98180250D01*
X189830000Y-104050000D02*
X183960250Y-98180250D01*
%TO.N,/SCL*%
X189830000Y-106590000D02*
X183960250Y-100720250D01*
X183960250Y-100720250D02*
X176669500Y-100720250D01*
%TO.N,/RST*%
X183960250Y-103260250D02*
X176669500Y-103260250D01*
X189830000Y-109130000D02*
X183960250Y-103260250D01*
%TO.N,GND*%
X199497056Y-98550000D02*
X190250000Y-98550000D01*
X199623578Y-98676523D02*
X199497056Y-98550000D01*
X200783376Y-98676523D02*
X199623578Y-98676523D01*
X190250000Y-98550000D02*
X189830000Y-98970000D01*
X204789899Y-94670000D02*
X200783376Y-98676523D01*
X206620000Y-94670000D02*
X204789899Y-94670000D01*
X206620000Y-94670000D02*
X206620000Y-113670000D01*
X110671098Y-127364500D02*
X139151750Y-127364500D01*
X100000000Y-116693402D02*
X110671098Y-127364500D01*
X100000000Y-115460101D02*
X100000000Y-116693402D01*
X101960101Y-113500000D02*
X100000000Y-115460101D01*
X107750000Y-113500000D02*
X101960101Y-113500000D01*
%TO.N,Net-(U1-D1)*%
X107189899Y-116040000D02*
X130129649Y-93100250D01*
X130129649Y-93100250D02*
X160504500Y-93100250D01*
X101400000Y-116040000D02*
X107189899Y-116040000D01*
%TO.N,Net-(U1-D0)*%
X107879750Y-90560250D02*
X160504500Y-90560250D01*
X101400000Y-97040000D02*
X107879750Y-90560250D01*
%TO.N,GND*%
X107750000Y-94500000D02*
X107750000Y-113500000D01*
%TO.N,Net-(BZ1-+)*%
X155105250Y-127364500D02*
X176669500Y-105800250D01*
X146751750Y-127364500D02*
X155105250Y-127364500D01*
%TO.N,Net-(U1-D2)*%
X162666500Y-93478250D02*
X160504500Y-95640250D01*
X163271750Y-93478250D02*
X162666500Y-93478250D01*
X165750000Y-91000000D02*
X163271750Y-93478250D01*
X166751404Y-91000000D02*
X165750000Y-91000000D01*
X166813154Y-90938250D02*
X166751404Y-91000000D01*
X167765846Y-90938250D02*
X166813154Y-90938250D01*
X167827596Y-91000000D02*
X167765846Y-90938250D01*
X170305846Y-90938250D02*
X169353154Y-90938250D01*
X170367596Y-91000000D02*
X170305846Y-90938250D01*
X169353154Y-90938250D02*
X169291404Y-91000000D01*
X172784096Y-91000000D02*
X170367596Y-91000000D01*
X174923846Y-88860250D02*
X172784096Y-91000000D01*
X169291404Y-91000000D02*
X167827596Y-91000000D01*
X191920250Y-88860250D02*
X174923846Y-88860250D01*
X200270000Y-97210000D02*
X191920250Y-88860250D01*
%TD*%
M02*
