%TF.GenerationSoftware,KiCad,Pcbnew,10.0.5*%
%TF.CreationDate,2026-08-31T19:22:05+05:30*%
%TF.ProjectId,F1 Blare PCB,46312042-6c61-4726-9520-5043422e6b69,rev?*%
%TF.SameCoordinates,Original*%
%TF.FileFunction,Legend,Bot*%
%TF.FilePolarity,Positive*%
%FSLAX46Y46*%
G04 Gerber Fmt 4.6, Leading zero omitted, Abs format (unit mm)*
G04 Created by KiCad (PCBNEW 10.0.5) date 2026-08-31 19:22:05*
%MOMM*%
%LPD*%
G01*
G04 APERTURE LIST*
%ADD10C,0.150000*%
%ADD11C,0.120000*%
G04 APERTURE END LIST*
D10*
X141880952Y-114731009D02*
X141738095Y-114778628D01*
X141738095Y-114778628D02*
X141690476Y-114826247D01*
X141690476Y-114826247D02*
X141642857Y-114921485D01*
X141642857Y-114921485D02*
X141642857Y-115064342D01*
X141642857Y-115064342D02*
X141690476Y-115159580D01*
X141690476Y-115159580D02*
X141738095Y-115207200D01*
X141738095Y-115207200D02*
X141833333Y-115254819D01*
X141833333Y-115254819D02*
X142214285Y-115254819D01*
X142214285Y-115254819D02*
X142214285Y-114254819D01*
X142214285Y-114254819D02*
X141880952Y-114254819D01*
X141880952Y-114254819D02*
X141785714Y-114302438D01*
X141785714Y-114302438D02*
X141738095Y-114350057D01*
X141738095Y-114350057D02*
X141690476Y-114445295D01*
X141690476Y-114445295D02*
X141690476Y-114540533D01*
X141690476Y-114540533D02*
X141738095Y-114635771D01*
X141738095Y-114635771D02*
X141785714Y-114683390D01*
X141785714Y-114683390D02*
X141880952Y-114731009D01*
X141880952Y-114731009D02*
X142214285Y-114731009D01*
X141309523Y-114254819D02*
X140642857Y-114254819D01*
X140642857Y-114254819D02*
X141309523Y-115254819D01*
X141309523Y-115254819D02*
X140642857Y-115254819D01*
X139738095Y-115254819D02*
X140309523Y-115254819D01*
X140023809Y-115254819D02*
X140023809Y-114254819D01*
X140023809Y-114254819D02*
X140119047Y-114397676D01*
X140119047Y-114397676D02*
X140214285Y-114492914D01*
X140214285Y-114492914D02*
X140309523Y-114540533D01*
X145190951Y-119533866D02*
X144429047Y-119533866D01*
X144809999Y-119914819D02*
X144809999Y-119152914D01*
%TO.C,BZ1*%
D11*
X147100000Y-122000000D02*
G75*
G02*
X134900000Y-122000000I-6100000J0D01*
G01*
X134900000Y-122000000D02*
G75*
G02*
X147100000Y-122000000I6100000J0D01*
G01*
%TD*%
M02*
