%TF.GenerationSoftware,KiCad,Pcbnew,10.0.5*%
%TF.CreationDate,2026-09-01T17:09:03+05:30*%
%TF.ProjectId,F1 Blare PCB,46312042-6c61-4726-9520-5043422e6b69,rev?*%
%TF.SameCoordinates,Original*%
%TF.FileFunction,Soldermask,Top*%
%TF.FilePolarity,Negative*%
%FSLAX46Y46*%
G04 Gerber Fmt 4.6, Leading zero omitted, Abs format (unit mm)*
G04 Created by KiCad (PCBNEW 10.0.5) date 2026-09-01 17:09:03*
%MOMM*%
%LPD*%
G01*
G04 APERTURE LIST*
G04 Aperture macros list*
%AMRoundRect*
0 Rectangle with rounded corners*
0 $1 Rounding radius*
0 $2 $3 $4 $5 $6 $7 $8 $9 X,Y pos of 4 corners*
0 Add a 4 corners polygon primitive as box body*
4,1,4,$2,$3,$4,$5,$6,$7,$8,$9,$2,$3,0*
0 Add four circle primitives for the rounded corners*
1,1,$1+$1,$2,$3*
1,1,$1+$1,$4,$5*
1,1,$1+$1,$6,$7*
1,1,$1+$1,$8,$9*
0 Add four rect primitives between the rounded corners*
20,1,$1+$1,$2,$3,$4,$5,0*
20,1,$1+$1,$4,$5,$6,$7,0*
20,1,$1+$1,$6,$7,$8,$9,0*
20,1,$1+$1,$8,$9,$2,$3,0*%
G04 Aperture macros list end*
%ADD10C,3.200000*%
%ADD11C,2.200000*%
%ADD12C,1.700000*%
%ADD13C,4.000000*%
%ADD14R,1.700000X1.700000*%
%ADD15RoundRect,0.550800X-0.875000X-0.500000X0.875000X-0.500000X0.875000X0.500000X-0.875000X0.500000X0*%
%ADD16RoundRect,0.275000X0.975000X0.275000X-0.975000X0.275000X-0.975000X-0.275000X0.975000X-0.275000X0*%
%ADD17R,2.000000X2.000000*%
%ADD18C,2.000000*%
G04 APERTURE END LIST*
D10*
%TO.C,H3*%
X91250000Y-89500000D03*
%TD*%
D11*
%TO.C,SW3*%
X200270000Y-97210000D03*
X206620000Y-94670000D03*
D12*
X209160000Y-99750000D03*
D13*
X204080000Y-99750000D03*
D12*
X199000000Y-99750000D03*
%TD*%
D10*
%TO.C,H2*%
X219000000Y-132250000D03*
%TD*%
%TO.C,H4*%
X91250000Y-132000000D03*
%TD*%
D14*
%TO.C,J1*%
X189830000Y-98970000D03*
D12*
X189830000Y-101510000D03*
X189830000Y-104050000D03*
X189830000Y-106590000D03*
X189830000Y-109130000D03*
X189830000Y-111670000D03*
X189830000Y-114210000D03*
X189830000Y-116750000D03*
%TD*%
%TO.C,SW1*%
X100130000Y-99580000D03*
D13*
X105210000Y-99580000D03*
D12*
X110290000Y-99580000D03*
D11*
X107750000Y-94500000D03*
X101400000Y-97040000D03*
%TD*%
D12*
%TO.C,SW2*%
X100130000Y-118580000D03*
D13*
X105210000Y-118580000D03*
D12*
X110290000Y-118580000D03*
D11*
X107750000Y-113500000D03*
X101400000Y-116040000D03*
%TD*%
D10*
%TO.C,H1*%
X219000000Y-90000000D03*
%TD*%
D12*
%TO.C,SW4*%
X199000000Y-118750000D03*
D13*
X204080000Y-118750000D03*
D12*
X209160000Y-118750000D03*
D11*
X206620000Y-113670000D03*
X200270000Y-116210000D03*
%TD*%
D15*
%TO.C,U1*%
X160504500Y-90560250D03*
X160504500Y-93100250D03*
X160504500Y-95640250D03*
X160504500Y-98180250D03*
X160504500Y-100720250D03*
X160504500Y-103260250D03*
X160504500Y-105800250D03*
X176669500Y-105800250D03*
X176669500Y-103260250D03*
X176669500Y-100720250D03*
X176669500Y-98180250D03*
X176669500Y-95640250D03*
X176669500Y-93100250D03*
X176669500Y-90560250D03*
D12*
X167289500Y-89548250D03*
X169829500Y-89548250D03*
X167289500Y-92088250D03*
X169829500Y-92088250D03*
X167289500Y-94628250D03*
X169829500Y-94628250D03*
D16*
X164114500Y-97798250D03*
X164114500Y-95893250D03*
%TD*%
D17*
%TO.C,BZ1*%
X146751750Y-127364500D03*
D18*
X139151750Y-127364500D03*
%TD*%
M02*
